<svg width="11" height="11" viewBox="0 0 11 11" fill="none" xmlns="http://www.w3.org/2000/svg">
<path d="M10.3973 5.63484C10.2759 5.18124 10.033 4.78212 9.69985 4.46796C9.97201 3.82836 9.93097 3.0942 9.58297 2.49108C9.24913 1.91316 8.71033 1.49964 8.06569 1.32684C7.61185 1.2054 7.14433 1.21596 6.70513 1.34796C6.28681 0.791641 5.63545 0.459961 4.93585 0.459961C3.75841 0.459961 2.77081 1.2798 2.50801 2.3778C2.50561 2.37804 2.50345 2.37708 2.50105 2.37732C1.80457 2.46372 1.20409 2.86188 0.853454 3.46908C0.519614 4.047 0.431054 4.72044 0.603854 5.36508C0.725534 5.81892 0.968414 6.21852 1.30201 6.53268C1.02985 7.17252 1.06921 7.90404 1.41817 8.50884C1.75201 9.08676 2.29081 9.50028 2.93545 9.67308C3.15049 9.73068 3.36913 9.75924 3.58609 9.75924C3.82681 9.75924 4.06489 9.7206 4.29577 9.65124C4.71385 10.2085 5.36257 10.54 6.06529 10.54C7.24393 10.54 8.23201 9.71868 8.49409 8.61924C9.18529 8.53524 9.79753 8.1378 10.1479 7.53084C10.4815 6.95292 10.5701 6.27948 10.3973 5.63484ZM7.94137 1.79028C8.46241 1.92972 8.89753 2.26404 9.16705 2.73084C9.41881 3.16692 9.46537 3.69084 9.30361 4.16292C9.27985 4.14804 9.25729 4.13148 9.23305 4.11732L7.03249 2.84676C6.95761 2.8038 6.86497 2.80428 6.79009 2.8482L4.34257 4.29804L4.33009 3.19236L6.40921 1.99212C6.87649 1.72236 7.42057 1.65108 7.94137 1.79028ZM6.63745 4.82676L6.65233 6.14772L5.51569 6.82092L4.36393 6.17316L4.34905 4.8522L5.48569 4.179L6.63745 4.82676ZM2.91697 2.95884C2.91697 1.84548 3.82273 0.939961 4.93585 0.939961C5.44201 0.939961 5.91793 1.1598 6.24577 1.53708C6.22057 1.55052 6.19441 1.5618 6.16945 1.5762L3.96865 2.84676C3.89377 2.8902 3.84769 2.97084 3.84865 3.05724L3.88057 5.90148L2.91697 5.35956V2.95884ZM1.06729 5.241C0.927854 4.7202 0.999614 4.17588 1.26913 3.70908C1.52353 3.26844 1.94665 2.97132 2.44129 2.87532C2.44033 2.90316 2.43697 2.93052 2.43697 2.95884V5.49996C2.43697 5.5866 2.48377 5.66652 2.55937 5.70924L5.03833 7.10364L4.08697 7.66716L2.00809 6.46668C1.54105 6.19716 1.20697 5.76204 1.06729 5.241ZM3.05977 9.20964C2.53873 9.0702 2.10361 8.73588 1.83409 8.26908C1.58137 7.83132 1.53433 7.30884 1.69657 6.83628C1.72081 6.8514 1.74361 6.8682 1.76833 6.8826L3.96889 8.15316C4.00585 8.17452 4.04737 8.18532 4.08889 8.18532C4.13137 8.18532 4.17361 8.17404 4.21129 8.15172L6.65881 6.70188L6.67129 7.80756L4.59217 9.0078C4.12513 9.2778 3.58081 9.34956 3.05977 9.20964ZM8.08417 8.04108C8.08417 9.15444 7.17865 10.06 6.06529 10.06C5.55673 10.06 5.08273 9.8394 4.75513 9.4614C4.78033 9.44796 4.80697 9.43788 4.83193 9.42348L7.03273 8.15292C7.10761 8.10948 7.15369 8.02884 7.15273 7.94244L7.12057 5.09844L8.08417 5.64036V8.04108ZM9.73201 7.29084C9.47857 7.73004 9.05041 8.03148 8.55985 8.12676C8.56081 8.09796 8.56417 8.06988 8.56417 8.04108V5.49996C8.56417 5.41332 8.51737 5.3334 8.44177 5.29068L5.96281 3.89628L6.91417 3.33276L8.99305 4.53324C9.46009 4.80276 9.79417 5.23812 9.93385 5.75892C10.0733 6.27972 10.0015 6.82404 9.73201 7.29084Z" fill="white"/>
</svg>
