<svg width="10" height="13" viewBox="0 0 10 13" fill="none" xmlns="http://www.w3.org/2000/svg">
<path d="M9.80597 8.86953L8.74347 2.36953C8.71397 2.19053 8.58997 2.04103 8.41897 1.97953C8.24797 1.91903 8.05697 1.95453 7.92047 2.07403L6.29697 3.49653L5.38247 1.72103C5.29947 1.56053 5.13647 1.45703 4.95597 1.45053C4.77497 1.44403 4.60547 1.53503 4.51097 1.68953L3.96497 2.58253L2.79597 0.273032C2.70047 0.0845317 2.49447 -0.0194683 2.28647 0.0030317C2.07647 0.0300317 1.90647 0.186032 1.86147 0.393032L0.0114698 8.90603C-0.0470302 9.17553 0.12397 9.44203 0.39397 9.50053C0.40747 9.50353 0.42097 9.50303 0.43447 9.50503C0.43597 9.50553 0.43647 9.50703 0.43797 9.50753L4.66547 11.945C4.74247 11.99 4.82847 12.0125 4.91497 12.0125C5.00197 12.0125 5.08897 11.99 5.16647 11.9445L9.56397 9.38203C9.74297 9.27753 9.83947 9.07403 9.80597 8.86953ZM4.90047 2.97003L5.52147 4.17553L5.00197 4.63053L4.49597 3.63153L4.90047 2.97003ZM4.22547 5.31103L2.60347 6.73203L3.88347 4.63553L4.22547 5.31103ZM2.53947 1.98103L3.35247 3.58653L1.54897 6.54003L2.53947 1.98103ZM4.91347 10.9345L1.54247 8.99103L5.22097 5.76803C5.22447 5.76403 5.22897 5.76203 5.23247 5.75803L7.90197 3.41953L8.76397 8.69103L4.91347 10.9345Z" fill="white"/>
</svg>
