<svg width="11" height="11" viewBox="0 0 11 11" fill="none" xmlns="http://www.w3.org/2000/svg">
<path d="M0.240001 0C0.176351 6.36405e-06 0.11531 0.025294 0.0703024 0.0703014C0.0252951 0.115309 7.39378e-06 0.17635 1.02974e-06 0.24V4.8V9.84V9.84141C0.000184817 9.84595 0.000497451 9.85048 0.00093853 9.855C0.00115531 9.85891 0.0014679 9.86282 0.00187603 9.86672C0.00202671 9.86766 0.00218296 9.86859 0.00234478 9.86953C0.00311124 9.87676 0.00420611 9.88396 0.00562603 9.89109C0.00706567 9.89773 0.00878596 9.90429 0.0107823 9.91078C0.0120869 9.91472 0.0134937 9.91863 0.015001 9.9225C0.0167276 9.92725 0.0186036 9.93194 0.020626 9.93656C0.0237446 9.94344 0.0271859 9.95017 0.0309385 9.95672C0.0330239 9.96053 0.0352122 9.96428 0.037501 9.96797C0.0391617 9.97082 0.0408808 9.97363 0.0426573 9.97641C0.0456513 9.98057 0.0487779 9.98463 0.0520323 9.98859C0.0538631 9.99097 0.0557385 9.99332 0.0576573 9.99562C0.0608285 9.99932 0.0641112 10.0029 0.067501 10.0064C0.0694913 10.0086 0.0715229 10.0108 0.0735948 10.013C0.0787069 10.0177 0.0840245 10.0223 0.0895323 10.0266C0.0899991 10.027 0.0904678 10.0275 0.0909385 10.028C0.0963846 10.0323 0.102015 10.0363 0.107814 10.0402C0.108901 10.0409 0.109994 10.0417 0.111095 10.0425C0.111873 10.043 0.112655 10.0434 0.113439 10.0439C0.119234 10.0474 0.125177 10.0507 0.131251 10.0537C0.138425 10.0574 0.145778 10.0607 0.153282 10.0636C0.15807 10.0655 0.162916 10.0672 0.167814 10.0687C0.17123 10.0698 0.174668 10.0707 0.178126 10.0716C0.178594 10.0717 0.179063 10.0719 0.179532 10.072C0.186033 10.0737 0.192601 10.0751 0.19922 10.0762C0.204043 10.077 0.208889 10.0776 0.213751 10.0781C0.218112 10.0787 0.222489 10.0792 0.226876 10.0795C0.228438 10.0795 0.230001 10.0795 0.231564 10.0795C0.234373 10.0797 0.237186 10.0799 0.240001 10.08C0.242345 10.08 0.244689 10.08 0.247032 10.08H9.84C9.88746 10.08 9.93384 10.0659 9.9733 10.0395C10.0128 10.0131 10.0435 9.97567 10.0617 9.93182C10.0798 9.88798 10.0846 9.83973 10.0753 9.79319C10.0661 9.74664 10.0432 9.70388 10.0097 9.67031L5.37938 5.04L10.0097 0.409687C10.0432 0.376119 10.0661 0.333359 10.0753 0.286812C10.0846 0.240265 10.0798 0.192021 10.0617 0.148176C10.0435 0.104331 10.0128 0.066853 9.9733 0.040479C9.93384 0.0141051 9.88746 1.86308e-05 9.84 0H4.8H0.240001ZM0.480001 0.48H4.22063L0.480001 4.22062V0.48ZM4.89938 0.48H9.26063L4.87031 4.87031L0.480001 9.26062V4.89937L4.89938 0.48ZM5.04 5.37937L9.26063 9.6H0.819376L5.04 5.37937Z" fill="white"/>
</svg>
