<svg width="12" height="12" viewBox="0 0 12 12" fill="none" xmlns="http://www.w3.org/2000/svg">
<path d="M5.52 0C2.47429 0 0 2.47429 0 5.52C0 7.17047 0.727391 8.65261 1.87687 9.66422L1.29703 10.6791C1.27639 10.7153 1.26556 10.7564 1.26562 10.7981V11.7652C1.26564 11.8075 1.27683 11.849 1.29808 11.8856C1.31932 11.9222 1.34986 11.9525 1.38659 11.9735C1.42333 11.9945 1.46496 12.0054 1.50726 12.0051C1.54957 12.0048 1.59105 11.9934 1.6275 11.9719L2.46094 11.4811C2.49681 11.4599 2.52654 11.4297 2.54719 11.3934L3.07641 10.4677C3.81342 10.8324 4.64281 11.04 5.52 11.04C6.39719 11.04 7.22658 10.8324 7.96359 10.4677L8.49281 11.3934C8.51346 11.4297 8.54319 11.4599 8.57906 11.4811L9.4125 11.9719C9.44895 11.9934 9.49043 12.0048 9.53274 12.0051C9.57504 12.0054 9.61667 11.9945 9.65341 11.9735C9.69014 11.9525 9.72068 11.9222 9.74192 11.8856C9.76317 11.849 9.77436 11.8075 9.77437 11.7652V10.7981C9.77444 10.7564 9.76361 10.7153 9.74297 10.6791L9.16312 9.66422C10.3126 8.65261 11.04 7.17047 11.04 5.52C11.04 2.47429 8.56571 0 5.52 0ZM5.52 0.48C8.30629 0.48 10.56 2.73371 10.56 5.52C10.56 6.99452 9.92802 8.31787 8.92031 9.23953L8.41969 8.36344C9.08411 7.68432 9.52461 6.78309 9.58734 5.775C9.58939 5.74228 9.58471 5.7095 9.5736 5.67866C9.56249 5.64782 9.54518 5.61958 9.52273 5.59569C9.50029 5.5718 9.47319 5.55276 9.44311 5.53974C9.41302 5.52672 9.38059 5.52 9.34781 5.52H8.38781C8.32759 5.52004 8.26959 5.54271 8.2253 5.58352C8.18102 5.62433 8.1537 5.6803 8.14875 5.74031C8.10882 6.22014 7.91292 6.64332 7.65 7.01625L7.13062 6.10734L7.36922 5.87016C7.39165 5.84786 7.40944 5.82134 7.42159 5.79214C7.43374 5.76294 7.43999 5.73163 7.44 5.7V3.6C7.44 3.20521 7.11479 2.88 6.72 2.88H6.48V2.16C6.47999 2.09635 6.45471 2.03531 6.4097 1.9903C6.36469 1.94529 6.30365 1.92001 6.24 1.92H4.8C4.73635 1.92001 4.67531 1.94529 4.6303 1.9903C4.58529 2.03531 4.56001 2.09635 4.56 2.16V2.88H4.32C3.92521 2.88 3.6 3.20521 3.6 3.6V5.7C3.60001 5.76342 3.62512 5.82425 3.66984 5.86922L3.90844 6.10922L2.11969 9.23953C1.11198 8.31787 0.48 6.99452 0.48 5.52C0.48 2.73371 2.73371 0.48 5.52 0.48ZM5.04 2.4H6V3.12C6.00001 3.18365 6.02529 3.24469 6.0703 3.2897C6.11531 3.33471 6.17635 3.35999 6.24 3.36H6.72C6.85561 3.36 6.96 3.46439 6.96 3.6V5.60016L6.66797 5.89078C6.6659 5.89278 6.66387 5.89481 6.66187 5.89687L5.95687 6.59766L5.65078 6.90187C5.57186 6.98046 5.45156 6.98061 5.37281 6.90141L5.08125 6.60844L5.07984 6.60656L4.37766 5.90016C4.37673 5.89921 4.37579 5.89827 4.37484 5.89734L4.08 5.60109V3.6C4.08 3.46439 4.18439 3.36 4.32 3.36H4.8C4.86365 3.35999 4.92469 3.33471 4.9697 3.2897C5.01471 3.24469 5.03999 3.18365 5.04 3.12V2.4ZM5.52 3.84C5.22 3.84 4.96445 3.96114 4.80047 4.14562C4.63648 4.33011 4.56 4.56667 4.56 4.8C4.56 5.03333 4.63648 5.26989 4.80047 5.45437C4.96445 5.63886 5.22 5.76 5.52 5.76C5.82 5.76 6.07555 5.63886 6.23953 5.45437C6.40352 5.26989 6.48 5.03333 6.48 4.8C6.48 4.56667 6.40352 4.33011 6.23953 4.14562C6.07555 3.96114 5.82 3.84 5.52 3.84ZM5.52 4.32C5.7 4.32 5.80445 4.37886 5.88047 4.46437C5.95648 4.54989 6 4.67333 6 4.8C6 4.92667 5.95648 5.05011 5.88047 5.13562C5.80445 5.22114 5.7 5.28 5.52 5.28C5.34 5.28 5.23555 5.22114 5.15953 5.13562C5.08352 5.05011 5.04 4.92667 5.04 4.8C5.04 4.67333 5.08352 4.54989 5.15953 4.46437C5.23555 4.37886 5.34 4.32 5.52 4.32ZM8.57062 6H9.06703C8.95247 6.84571 8.55918 7.60324 7.96266 8.15766C7.95877 8.16143 7.95502 8.16534 7.95141 8.16937C7.74004 8.36413 7.5052 8.53369 7.25203 8.67375C7.24354 8.67703 7.23525 8.68078 7.22719 8.685C6.71856 8.96149 6.13867 9.12 5.52 9.12C4.90133 9.12 4.32144 8.96149 3.81281 8.685C3.75766 8.65505 3.69296 8.64789 3.63259 8.66506C3.57222 8.68224 3.52098 8.72237 3.48984 8.77687L2.16234 11.1L1.74562 11.3452V10.8619L4.25953 6.46219L4.61062 6.81516L3.96516 7.94484C3.94922 7.97274 3.93905 8.00354 3.93524 8.03544C3.93143 8.06734 3.93406 8.09968 3.94298 8.13054C3.95189 8.1614 3.96692 8.19015 3.98715 8.2151C4.00739 8.24005 4.03242 8.26069 4.06078 8.27578C4.49619 8.50765 4.99342 8.64 5.52 8.64C6.04682 8.64 6.54361 8.50704 6.97875 8.27531L6.97969 8.27672C7.29202 8.11054 7.57295 7.89264 7.81078 7.63453L7.80984 7.63359C8.21749 7.19171 8.47178 6.62061 8.57062 6ZM6.77812 6.45797L7.33453 7.43203C7.21715 7.54377 7.09062 7.64562 6.95437 7.73437L6.42562 6.80859L6.77812 6.45797ZM6.07312 7.15875L6.52031 7.94203C6.20952 8.07185 5.87771 8.16 5.52 8.16C5.1621 8.16 4.83001 8.0721 4.51922 7.9425L4.96172 7.16859L5.0325 7.23984C5.29408 7.5029 5.72638 7.50391 5.98922 7.24219L6.07312 7.15875ZM8.0625 8.70562L9.29437 10.8619V11.3452L8.87766 11.1L7.66922 8.985C7.80613 8.89962 7.93708 8.80615 8.0625 8.70562ZM3.80437 9.19406C4.32829 9.44093 4.90314 9.6 5.52 9.6C6.13686 9.6 6.7117 9.44093 7.23562 9.19406L7.72547 10.0509C7.05918 10.3762 6.31233 10.56 5.52 10.56C4.72767 10.56 3.98082 10.3762 3.31453 10.0509L3.80437 9.19406Z" fill="white"/>
</svg>
