<svg width="13" height="10" viewBox="0 0 13 10" fill="none" xmlns="http://www.w3.org/2000/svg">
<path d="M6.01031 0C3.65927 0 1.43687 1.79663 0.950625 4.09031C0.949185 4.09727 0.951116 4.10398 0.950156 4.11094C0.385196 4.49614 0 5.25192 0 6.12C0 7.37712 0.80736 8.4 1.8 8.4C1.87872 8.4 1.95224 8.36144 1.99688 8.29687C2.04176 8.23207 2.05189 8.14954 2.02453 8.07562C2.02093 8.0665 1.67953 7.13856 1.67953 6C1.67953 4.80144 2.00451 4.20532 2.00859 4.19812C2.05059 4.12396 2.04991 4.03321 2.00719 3.95953C1.96471 3.88537 1.88544 3.84 1.8 3.84C1.69872 3.84 1.59977 3.85311 1.50281 3.87375C2.07113 1.94727 3.98711 0.48 6.01031 0.48C7.92839 0.48 9.77559 1.8106 10.4339 3.61828C10.3624 3.60724 10.2899 3.6 10.2159 3.6C10.131 3.6 10.0522 3.64538 10.0092 3.71906C9.96602 3.7925 9.96582 3.88396 10.0073 3.95812C10.0107 3.96388 10.3359 4.56 10.3359 5.76C10.3359 6.7056 10.1011 7.50423 10.0195 7.75359C9.74425 7.97775 9.326 8.28823 8.83688 8.55703C8.65424 8.35327 8.37177 8.24914 8.08641 8.31562L7.65844 8.41453C7.45612 8.46085 7.28438 8.5829 7.17422 8.75906C7.0643 8.93474 7.02922 9.14363 7.07578 9.34547C7.15834 9.70451 7.47905 9.94781 7.83281 9.94781C7.89017 9.94781 7.94816 9.94156 8.00672 9.92812L8.43516 9.82969C8.63724 9.78337 8.80899 9.66061 8.91891 9.48469C9.01107 9.33757 9.04727 9.16804 9.03047 8.99812C9.54527 8.71924 9.98722 8.39602 10.2858 8.15578C11.2458 8.10874 12.0159 7.10736 12.0159 5.88C12.0159 4.97688 11.5986 4.1974 10.9959 3.82828C10.995 3.81028 10.997 3.79238 10.9917 3.77437C10.367 1.58726 8.27183 0 6.01031 0ZM2.89031 3.48C2.75759 3.48 2.65031 3.58728 2.65031 3.72V6.6C2.65031 6.73272 2.75759 6.84 2.89031 6.84H6.74109C6.62013 7.09368 6.42877 7.43577 6.28453 7.67625C6.23629 7.75665 6.23947 7.85772 6.29203 7.935C6.33691 8.00148 6.41183 8.04 6.49031 8.04C6.50351 8.04 6.51649 8.03888 6.52969 8.03672C8.01457 7.78928 9.22919 6.8283 9.28031 6.7875C9.33719 6.7419 9.37031 6.67296 9.37031 6.6V3.72C9.37031 3.58728 9.26303 3.48 9.13031 3.48H2.89031ZM4.45031 4.44C4.78679 4.44 5.05031 4.75608 5.05031 5.16C5.05031 5.56392 4.78679 5.88 4.45031 5.88C4.11383 5.88 3.85031 5.56392 3.85031 5.16C3.85031 4.75608 4.11383 4.44 4.45031 4.44ZM7.57031 4.44C7.90679 4.44 8.17031 4.75608 8.17031 5.16C8.17031 5.56392 7.90679 5.88 7.57031 5.88C7.23383 5.88 6.97031 5.56392 6.97031 5.16C6.97031 4.75608 7.23383 4.44 7.57031 4.44Z" fill="white"/>
</svg>
