<svg width="9" height="11" viewBox="0 0 9 11" fill="none" xmlns="http://www.w3.org/2000/svg">
<path d="M5.27995 0C5.21631 1.227e-05 5.15527 0.0253038 5.11027 0.0703125L0.0702663 5.11031C0.0252745 5.15532 0 5.21636 0 5.28C0 5.34364 0.0252745 5.40468 0.0702663 5.44969L1.51027 6.88969C1.55528 6.93468 1.61631 6.95995 1.67995 6.95995C1.74359 6.95995 1.80463 6.93468 1.84964 6.88969L8.32964 0.409688C8.36319 0.376119 8.38603 0.333359 8.39528 0.286812C8.40453 0.240265 8.39977 0.192021 8.38161 0.148176C8.36345 0.104331 8.33271 0.0668529 8.29325 0.040479C8.2538 0.014105 8.20741 1.86308e-05 8.15995 0H5.27995ZM5.37933 0.48H7.58058L1.67995 6.38063L0.579329 5.28L5.37933 0.48ZM5.51995 4.56C5.45631 4.56001 5.39527 4.5853 5.35027 4.63031L2.47027 7.51031C2.42527 7.55532 2.4 7.61636 2.4 7.68C2.4 7.74364 2.42527 7.80468 2.47027 7.84969L3.91027 9.28969L5.35027 10.7297C5.39527 10.7747 5.45631 10.8 5.51995 10.8H8.39995C8.44741 10.8 8.4938 10.7859 8.53325 10.7595C8.57271 10.7331 8.60345 10.6957 8.62161 10.6518C8.63977 10.608 8.64453 10.5597 8.63528 10.5132C8.62603 10.4666 8.60319 10.4239 8.56964 10.3903L5.85933 7.68L8.56964 4.96969C8.60319 4.93612 8.62603 4.89336 8.63528 4.84681C8.64453 4.80027 8.63977 4.75202 8.62161 4.70818C8.60345 4.66433 8.57271 4.62685 8.53325 4.60048C8.4938 4.57411 8.44741 4.56002 8.39995 4.56H5.51995ZM5.61933 5.04H7.82058L4.07995 8.78063L2.97933 7.68L5.61933 5.04ZM5.51995 8.01938L7.82058 10.32H5.61933L4.41933 9.12L5.51995 8.01938Z" fill="white"/>
</svg>
