<svg width="11" height="11" viewBox="0 0 11 11" fill="none" xmlns="http://www.w3.org/2000/svg">
<path d="M0.24 0C0.17635 6.36405e-06 0.115309 0.025294 0.0703014 0.0703014C0.025294 0.115309 6.36405e-06 0.17635 0 0.24V9.84C6.36405e-06 9.90365 0.025294 9.96469 0.0703014 10.0097C0.115309 10.0547 0.17635 10.08 0.24 10.08H9.84C9.90365 10.08 9.96469 10.0547 10.0097 10.0097C10.0547 9.96469 10.08 9.90365 10.08 9.84V0.24C10.08 0.17635 10.0547 0.115309 10.0097 0.0703014C9.96469 0.025294 9.90365 6.36405e-06 9.84 0H0.24ZM0.48 0.48H9.6V9.6H0.48V0.48ZM2.64 4.56V5.38687H3.84V9.12H4.8V5.38687H6V4.56H2.64ZM7.84594 4.56234C7.09843 4.55937 6.24422 4.78589 6.24422 5.83781C6.24422 7.21301 8.09719 7.21335 8.09719 7.83375C8.09719 7.89255 8.12212 8.31984 7.46812 8.31984C6.81412 8.31984 6.26906 7.90875 6.26906 7.90875V8.90672C6.26906 8.90672 9.12047 9.82897 9.12047 7.74937C9.12023 6.39938 7.25016 6.46689 7.25016 5.79609C7.25016 5.53617 7.43481 5.29312 7.94625 5.29312C8.45769 5.29312 8.91047 5.595 8.91047 5.595L8.94422 4.70578C8.94422 4.70578 8.42733 4.56466 7.84594 4.56234Z" fill="white"/>
</svg>
