<svg width="8" height="12" viewBox="0 0 8 12" fill="none" xmlns="http://www.w3.org/2000/svg">
<path d="M2.04 0C0.916205 0 0 0.916205 0 2.04C0 2.83207 0.467983 3.50229 1.13016 3.84C0.467983 4.17771 0 4.84793 0 5.64C0 6.43207 0.467983 7.10229 1.13016 7.44C0.467983 7.77771 0 8.44793 0 9.24C0 10.3638 0.916205 11.28 2.04 11.28C3.1638 11.28 4.08 10.3638 4.08 9.24V7.44V6.6375C4.40193 7.24841 5.0237 7.68 5.76 7.68C6.81754 7.68 7.68 6.81754 7.68 5.76C7.68 4.89078 7.08628 4.18288 6.29156 3.94781C7.09285 3.67241 7.68 2.93285 7.68 2.04C7.68 0.916205 6.7638 0 5.64 0H3.84H2.04ZM2.04 0.48H3.6V3.6H2.04C1.17564 3.6 0.48 2.90436 0.48 2.04C0.48 1.17564 1.17564 0.48 2.04 0.48ZM4.08 0.48H5.64C6.50436 0.48 7.2 1.17564 7.2 2.04C7.2 2.90436 6.50436 3.6 5.64 3.6H4.08V0.48ZM2.04 4.08H3.6V7.2H2.04C1.17564 7.2 0.48 6.50436 0.48 5.64C0.48 4.77564 1.17564 4.08 2.04 4.08ZM4.08 4.08H4.8825C4.53812 4.26147 4.26147 4.53812 4.08 4.8825V4.08ZM5.76 4.32C6.55813 4.32 7.2 4.96187 7.2 5.76C7.2 6.55813 6.55813 7.2 5.76 7.2C4.96187 7.2 4.32 6.55813 4.32 5.76C4.32 4.96187 4.96187 4.32 5.76 4.32ZM2.04 7.68H3.6V9.24C3.6 10.1044 2.90436 10.8 2.04 10.8C1.17564 10.8 0.48 10.1044 0.48 9.24C0.48 8.37563 1.17564 7.68 2.04 7.68Z" fill="white"/>
</svg>
