<svg width="11" height="12" viewBox="0 0 11 12" fill="none" xmlns="http://www.w3.org/2000/svg">
<path d="M5.04 0C4.51251 0 4.08 0.432509 4.08 0.96C4.08 1.03564 4.1068 1.10301 4.12359 1.17375L1.66125 2.47734C1.48535 2.28545 1.23887 2.16 0.96 2.16C0.432509 2.16 0 2.59251 0 3.12C0 3.56145 0.309965 3.92155 0.72 4.03125V7.00875C0.310425 7.11825 0 7.47743 0 7.92C0 8.44604 0.431641 8.88 0.96 8.88C1.23887 8.88 1.48535 8.75455 1.66125 8.56266L4.12359 9.86625C4.1068 9.93699 4.08 10.0044 4.08 10.08C4.08 10.6075 4.51251 11.04 5.04 11.04C5.56836 11.04 6 10.606 6 10.08C6 10.0044 5.9732 9.93699 5.95641 9.86625L8.41875 8.56266C8.59465 8.75455 8.84113 8.88 9.12 8.88C9.64836 8.88 10.08 8.44604 10.08 7.92C10.08 7.47743 9.76957 7.11825 9.36 7.00875V4.03125C9.77003 3.92155 10.08 3.56145 10.08 3.12C10.08 2.59251 9.64749 2.16 9.12 2.16C8.84113 2.16 8.59465 2.28545 8.41875 2.47734L5.95641 1.17375C5.97326 1.10294 6 1.03564 6 0.96C6 0.432509 5.56749 0 5.04 0ZM5.04 0.48C5.30883 0.48 5.52 0.691171 5.52 0.96C5.52 1.22596 5.30796 1.44 5.04 1.44C4.77117 1.44 4.56 1.22883 4.56 0.96C4.56 0.691171 4.77117 0.48 5.04 0.48ZM4.33875 1.60266C4.34882 1.61364 4.3535 1.62871 4.36406 1.63922L1.21406 7.01156C1.20949 7.01027 1.2046 7.00998 1.2 7.00875V4.03125C1.60957 3.92175 1.92 3.56257 1.92 3.12C1.92 3.04436 1.8932 2.97699 1.87641 2.90625L4.33875 1.60266ZM5.74125 1.60312L8.20359 2.90625C8.1868 2.97699 8.16 3.04436 8.16 3.12C8.16 3.56257 8.47042 3.92175 8.88 4.03125V7.00875C8.8754 7.00997 8.87051 7.01026 8.86594 7.01156L5.71641 1.63875C5.7267 1.62848 5.73142 1.61384 5.74125 1.60312ZM4.78594 1.86844C4.86864 1.89189 4.95011 1.92 5.04 1.92C5.12993 1.92 5.21139 1.8919 5.29406 1.86844L8.44406 7.24078C8.3252 7.35907 8.2532 7.51373 8.20875 7.68H1.87125C1.8268 7.51373 1.7548 7.35907 1.63594 7.24078L4.78594 1.86844ZM0.96 2.64C1.22883 2.64 1.44 2.85117 1.44 3.12C1.44 3.38883 1.22883 3.6 0.96 3.6C0.692039 3.6 0.48 3.38596 0.48 3.12C0.48 2.85117 0.691171 2.64 0.96 2.64ZM9.12 2.64C9.38883 2.64 9.6 2.85117 9.6 3.12C9.6 3.38596 9.38796 3.6 9.12 3.6C8.85117 3.6 8.64 3.38883 8.64 3.12C8.64 2.85117 8.85117 2.64 9.12 2.64ZM0.96 7.44C1.22883 7.44 1.44 7.65117 1.44 7.92C1.44 8.18883 1.22883 8.4 0.96 8.4C0.692039 8.4 0.48 8.18596 0.48 7.92C0.48 7.65117 0.691171 7.44 0.96 7.44ZM9.12 7.44C9.38883 7.44 9.6 7.65117 9.6 7.92C9.6 8.18596 9.38796 8.4 9.12 8.4C8.85117 8.4 8.64 8.18883 8.64 7.92C8.64 7.65117 8.85117 7.44 9.12 7.44ZM1.92656 8.16H8.15344L5.74125 9.43734C5.56535 9.24545 5.31887 9.12 5.04 9.12C4.76113 9.12 4.51465 9.24545 4.33875 9.43734L1.92656 8.16ZM5.04 9.6C5.30883 9.6 5.52 9.81117 5.52 10.08C5.52 10.346 5.30796 10.56 5.04 10.56C4.77117 10.56 4.56 10.3488 4.56 10.08C4.56 9.81117 4.77117 9.6 5.04 9.6Z" fill="white"/>
</svg>
