<svg width="12" height="11" viewBox="0 0 12 11" fill="none" xmlns="http://www.w3.org/2000/svg">
<path d="M7.81547 0.000767188C7.62834 -0.00552484 7.43248 0.0270994 7.23609 0.0907672C6.84333 0.218103 6.43175 0.46625 6.00937 0.80983C5.84384 0.944479 5.67681 1.0984 5.50922 1.2617C5.34532 1.10254 5.18172 0.952288 5.01984 0.820611C4.59781 0.477307 4.18734 0.229533 3.79547 0.102486C3.40359 -0.0245615 3.01368 -0.0284983 2.69344 0.156392C2.3732 0.341283 2.18169 0.680683 2.09578 1.08358C2.00987 1.48648 2.01887 1.96628 2.10516 2.50342C2.13513 2.69 2.17834 2.88574 2.22703 3.08514C2.04405 3.1406 1.86635 3.19891 1.70156 3.26327C1.20426 3.4575 0.792771 3.68988 0.493125 3.96639C0.193479 4.24291 0 4.57851 0 4.94702C0 5.31552 0.193479 5.65066 0.493125 5.92717C0.792771 6.20369 1.20426 6.43653 1.70156 6.63077C1.87776 6.69959 2.06853 6.76156 2.26547 6.82014C2.19463 7.08482 2.13724 7.34167 2.09812 7.58514C2.01176 8.12272 2.00264 8.60258 2.08875 9.00639C2.17486 9.4102 2.36646 9.75153 2.68828 9.93733C3.0101 10.1231 3.40177 10.1186 3.79453 9.99124C4.18729 9.8639 4.5984 9.61622 5.02078 9.27264C5.18479 9.13923 5.35069 8.98705 5.51672 8.82545C5.68354 8.98793 5.85026 9.14098 6.015 9.27499C6.43704 9.61829 6.84797 9.86606 7.23984 9.99311C7.63172 10.1202 8.02117 10.1241 8.34141 9.9392C8.66165 9.75431 8.85315 9.41491 8.93906 9.01202C9.02497 8.60912 9.01551 8.12932 8.92922 7.59217C8.89 7.34804 8.83257 7.09081 8.76141 6.8253C8.96485 6.76528 9.16164 6.70165 9.34312 6.63077C9.84043 6.43653 10.2519 6.20369 10.5516 5.92717C10.8512 5.65066 11.0447 5.31552 11.0447 4.94702C11.0447 4.57851 10.8512 4.24291 10.5516 3.96639C10.2519 3.68988 9.84043 3.4575 9.34312 3.26327C9.17598 3.19798 8.99555 3.13892 8.80969 3.0828C8.85877 2.88217 8.90235 2.68503 8.9325 2.49733C9.01886 1.95975 9.02798 1.47942 8.94187 1.07561C8.85577 0.6718 8.6637 0.330947 8.34187 0.145142C8.18096 0.05224 8.00259 0.00705922 7.81547 0.000767188ZM7.79344 0.489205C7.91086 0.492416 8.01103 0.520358 8.09672 0.56983C8.26809 0.668772 8.39476 0.861339 8.46234 1.17827C8.52992 1.49519 8.52759 1.9234 8.44781 2.41999C8.4205 2.59001 8.38084 2.7702 8.33578 2.95483C7.84499 2.83672 7.30722 2.74902 6.73406 2.69749C6.44613 2.29855 6.15017 1.93565 5.85187 1.61327C6.00959 1.45932 6.16628 1.31533 6.31922 1.19092C6.70939 0.873541 7.07877 0.65758 7.38703 0.557642C7.54116 0.507673 7.67601 0.485994 7.79344 0.489205ZM3.23906 0.490611C3.35716 0.487314 3.4923 0.508935 3.64687 0.559048C3.95602 0.659275 4.32605 0.87514 4.71656 1.1928C4.8664 1.31468 5.01965 1.45553 5.17406 1.60577C4.87361 1.9307 4.57559 2.29741 4.28578 2.69983C3.71466 2.75231 3.17881 2.84084 2.69016 2.95952C2.64539 2.77577 2.60626 2.5963 2.57906 2.42702C2.49922 1.93 2.49723 1.50127 2.565 1.18342C2.63277 0.865581 2.76048 0.67203 2.93344 0.572173C3.01992 0.522245 3.12096 0.493908 3.23906 0.490611ZM5.51672 1.95874C5.7122 2.17147 5.9078 2.40435 6.10172 2.65483C5.91115 2.64688 5.71825 2.64217 5.52234 2.64217C5.32253 2.64217 5.12596 2.64704 4.93172 2.6553C5.12571 2.40459 5.32116 2.17165 5.51672 1.95874ZM5.52234 3.12686C5.84872 3.12686 6.16683 3.14027 6.47625 3.16295C6.68916 3.46875 6.89722 3.79317 7.09547 4.13655C7.26966 4.43826 7.4273 4.73952 7.57078 5.03702C7.42579 5.33846 7.26551 5.64379 7.08891 5.94967C6.93345 6.21893 6.77111 6.47466 6.60609 6.72124C6.25658 6.75045 5.89442 6.7667 5.52234 6.7667C5.14131 6.7667 4.77101 6.74948 4.41375 6.71889C4.25148 6.47587 4.09188 6.22354 3.93891 5.95858C3.76271 5.6534 3.6032 5.3491 3.45844 5.04827C3.60381 4.74574 3.76403 4.43928 3.94125 4.13233C4.13846 3.79075 4.34591 3.46821 4.55766 3.16389C4.87041 3.1407 5.19221 3.12686 5.52234 3.12686ZM7.09453 3.22295C7.48999 3.27231 7.8613 3.34089 8.20687 3.42311C8.10429 3.75939 7.97794 4.11063 7.82484 4.47311C7.72544 4.28149 7.62249 4.08922 7.51125 3.89655C7.37652 3.66319 7.23643 3.44035 7.09453 3.22295ZM3.92484 3.2267C3.78586 3.44014 3.6491 3.65842 3.51703 3.88717C3.40437 4.08231 3.29928 4.27717 3.19875 4.47124C3.04697 4.11094 2.92138 3.76169 2.81953 3.42733C3.16266 3.34492 3.53197 3.27663 3.92484 3.2267ZM8.68172 3.55061C8.85185 3.60209 9.01616 3.65581 9.16687 3.71467C9.62531 3.89373 9.98794 4.10576 10.223 4.32264C10.458 4.53953 10.56 4.74636 10.56 4.94702C10.56 5.14767 10.458 5.35451 10.223 5.57139C9.98794 5.78828 9.62531 6.00031 9.16687 6.17936C8.99939 6.24478 8.81537 6.3041 8.62406 6.3603C8.48759 5.93819 8.3134 5.49782 8.10609 5.04827C8.34445 4.53214 8.537 4.02891 8.68172 3.55061ZM2.355 3.55295C2.49805 4.02646 2.68815 4.52473 2.92312 5.03561C2.71446 5.48779 2.5394 5.93066 2.40234 6.35514C2.21777 6.30042 2.03999 6.24271 1.87781 6.17936C1.41938 6.00031 1.05675 5.78828 0.821719 5.57139C0.58669 5.35451 0.484687 5.14767 0.484687 4.94702C0.484687 4.74636 0.58669 4.53953 0.821719 4.32264C1.05675 4.10576 1.41938 3.89373 1.87781 3.71467C2.02621 3.65671 2.18776 3.60376 2.355 3.55295ZM5.52234 3.84452C4.86244 3.84452 4.32234 4.38462 4.32234 5.04452C4.32234 5.70442 4.86244 6.24452 5.52234 6.24452C6.18224 6.24452 6.72234 5.70442 6.72234 5.04452C6.72234 4.38462 6.18224 3.84452 5.52234 3.84452ZM5.52234 4.32452C5.92283 4.32452 6.24234 4.64403 6.24234 5.04452C6.24234 5.445 5.92283 5.76452 5.52234 5.76452C5.12186 5.76452 4.80234 5.445 4.80234 5.04452C4.80234 4.64403 5.12186 4.32452 5.52234 4.32452ZM7.83094 5.6117C7.95681 5.9096 8.06621 6.20109 8.15812 6.48217C7.8695 6.5491 7.56217 6.60549 7.23891 6.64999C7.33196 6.5015 7.42386 6.35025 7.51359 6.19483C7.62608 6 7.73055 5.80543 7.83094 5.6117ZM3.20437 5.61217C3.3053 5.8071 3.41041 6.00254 3.52359 6.19858C3.6122 6.35205 3.70268 6.50188 3.79453 6.64858C3.47222 6.60389 3.16584 6.5473 2.87812 6.4803C2.96962 6.20007 3.07908 5.90919 3.20437 5.61217ZM2.73984 6.94624C3.1742 7.04913 3.645 7.12818 4.14422 7.17967C4.47754 7.66178 4.82459 8.09475 5.17406 8.47342C5.01782 8.62576 4.86296 8.76874 4.71141 8.89202C4.32123 9.2094 3.95138 9.42489 3.64312 9.52483C3.33487 9.62477 3.10481 9.61158 2.93344 9.51264C2.76206 9.4137 2.63586 9.22113 2.56828 8.9042C2.5007 8.58728 2.50257 8.15954 2.58234 7.66295C2.61853 7.43768 2.67262 7.19645 2.73984 6.94624ZM8.29687 6.94811C8.36461 7.19971 8.41892 7.44207 8.45531 7.66858C8.53516 8.1656 8.53715 8.59386 8.46937 8.9117C8.4016 9.22955 8.27436 9.42357 8.10141 9.52342C7.92845 9.62328 7.69665 9.63678 7.3875 9.53655C7.07835 9.43632 6.70832 9.21999 6.31781 8.90233C6.16517 8.77816 6.00924 8.6345 5.85187 8.48092C6.20362 8.10082 6.55326 7.6655 6.88875 7.18061C7.38923 7.12946 7.86133 7.05089 8.29687 6.94811ZM4.77047 7.22889C5.01689 7.24232 5.26656 7.25139 5.52234 7.25139C5.76966 7.25139 6.01124 7.24287 6.24984 7.2303C6.00593 7.55938 5.75731 7.85855 5.50969 8.12795C5.26221 7.85798 5.01406 7.55827 4.77047 7.22889Z" fill="white"/>
</svg>
