<svg width="10" height="10" viewBox="0 0 10 10" fill="none" xmlns="http://www.w3.org/2000/svg">
<path d="M3.7435 6.875C3.7435 7.082 3.57575 7.25 3.3685 7.25C3.16125 7.25 2.9935 7.082 2.9935 6.875V3.375C2.9935 3.21175 3.09925 3.06725 3.25475 3.0175C3.411 2.968 3.58025 3.025 3.6745 3.15825L7.86875 9.08425C9.15425 8.17725 10 6.68375 10 5C10 2.25 7.75 0 5 0C2.25 0 0 2.25 0 5C0 7.75 2.25 10 5 10C5.798 10 6.5515 9.80575 7.2225 9.4695L3.7435 4.554V6.875ZM6.2435 3.125C6.2435 2.918 6.41125 2.75 6.6185 2.75C6.82575 2.75 6.9935 2.918 6.9935 3.125V6.585L6.2435 5.52825V3.125Z" fill="white"/>
</svg>
