<svg width="12" height="8" viewBox="0 0 12 8" fill="none" xmlns="http://www.w3.org/2000/svg">
<path d="M3.38156 2.606C3.38156 2.754 3.39756 2.8735 3.42556 2.961C3.45756 3.049 3.49756 3.145 3.55356 3.249C3.57356 3.2805 3.58156 3.3125 3.58156 3.3405C3.58156 3.3805 3.55756 3.4205 3.50556 3.4605L3.25406 3.628C3.22366 3.64992 3.1875 3.66243 3.15006 3.664C3.11006 3.664 3.07006 3.644 3.03056 3.608C2.97685 3.55023 2.9288 3.48744 2.88706 3.4205C2.84236 3.34382 2.80099 3.26524 2.76306 3.185C2.45206 3.552 2.06056 3.7355 1.58956 3.7355C1.25456 3.7355 0.98706 3.64 0.79156 3.4485C0.59606 3.2565 0.49656 3.0015 0.49656 2.682C0.49656 2.343 0.61606 2.067 0.85956 1.86C1.10306 1.6525 1.42606 1.5485 1.83706 1.5485C1.97306 1.5485 2.11256 1.5605 2.26006 1.5805C2.40806 1.6005 2.56006 1.6325 2.71906 1.6685V1.377C2.71906 1.0735 2.65556 0.862 2.53156 0.7385C2.40406 0.6145 2.18856 0.555 1.88156 0.555C1.74156 0.555 1.59756 0.5705 1.45006 0.6065C1.30256 0.6425 1.15856 0.6865 1.01906 0.7425C0.973576 0.762866 0.92681 0.780236 0.87906 0.7945C0.858496 0.801128 0.837143 0.804995 0.81556 0.806C0.75956 0.806 0.73156 0.766 0.73156 0.6825V0.487C0.73156 0.423 0.73956 0.375 0.75956 0.347C0.789763 0.310699 0.828148 0.282082 0.87156 0.2635C1.01106 0.1915 1.17856 0.1315 1.37406 0.0835001C1.57757 0.0313998 1.787 0.00601978 1.99706 0.00800014C2.47206 0.00800014 2.81906 0.116 3.04256 0.3315C3.26206 0.5465 3.37356 0.874 3.37356 1.313V2.606H3.38156ZM1.76156 3.213C1.89306 3.213 2.02856 3.189 2.17256 3.141C2.31606 3.093 2.44406 3.0055 2.55156 2.886C2.61556 2.81 2.66356 2.726 2.68756 2.63C2.71106 2.5345 2.72756 2.4185 2.72756 2.283V2.1155C2.60643 2.08597 2.48374 2.06327 2.36006 2.0475C2.23568 2.0317 2.11044 2.02368 1.98506 2.0235C1.71756 2.0235 1.52206 2.0755 1.39006 2.1835C1.25856 2.291 1.19506 2.4425 1.19506 2.642C1.19506 2.8295 1.24256 2.9695 1.34256 3.065C1.43806 3.165 1.57756 3.213 1.76156 3.213ZM4.96656 3.644C4.89456 3.644 4.84656 3.632 4.81456 3.604C4.78256 3.58 4.75456 3.524 4.73056 3.4485L3.79306 0.363C3.77482 0.311264 3.76274 0.257561 3.75706 0.203C3.75706 0.139 3.78906 0.103 3.85256 0.103H4.24406C4.31956 0.103 4.37156 0.1155 4.39906 0.143C4.43156 0.167 4.45556 0.223 4.47906 0.299L5.15006 2.941L5.77256 0.299C5.79256 0.219 5.81656 0.167 5.84806 0.143C5.89603 0.113581 5.95189 0.0996177 6.00806 0.103H6.32706C6.40306 0.103 6.45506 0.1155 6.48706 0.143C6.51856 0.167 6.54706 0.223 6.56256 0.299L7.19306 2.973L7.88356 0.299C7.90756 0.219 7.93556 0.167 7.96356 0.143C8.00988 0.113595 8.06431 0.099594 8.11906 0.103H8.49056C8.55406 0.103 8.59056 0.1355 8.59056 0.203C8.59056 0.223 8.58606 0.243 8.58206 0.267C8.5758 0.301118 8.56642 0.334591 8.55406 0.367L7.59256 3.452C7.56856 3.532 7.54056 3.5835 7.50856 3.6075C7.46351 3.6364 7.41051 3.6504 7.35706 3.6475H7.01356C6.93806 3.6475 6.88606 3.6355 6.85356 3.6075C6.82206 3.5795 6.79406 3.5275 6.77856 3.4475L6.15956 0.8735L5.54456 3.4435C5.52456 3.5235 5.50106 3.5755 5.46956 3.6035C5.43706 3.6315 5.38106 3.6435 5.30956 3.6435L4.96656 3.644ZM10.0946 3.7515C9.88706 3.7515 9.67956 3.7275 9.48006 3.68C9.28056 3.632 9.12506 3.58 9.02106 3.52C8.95706 3.4845 8.91356 3.4445 8.89756 3.4085C8.88197 3.37321 8.8738 3.33508 8.87356 3.2965V3.093C8.87356 3.0095 8.90556 2.9695 8.96506 2.9695C8.98906 2.9695 9.01306 2.9735 9.03706 2.9815C9.06106 2.9895 9.09706 3.0055 9.13706 3.0215C9.27256 3.0815 9.42006 3.129 9.57606 3.161C9.73556 3.193 9.89106 3.209 10.0511 3.209C10.3021 3.209 10.4981 3.165 10.6336 3.077C10.6985 3.03776 10.7519 2.98202 10.7884 2.91546C10.8248 2.84889 10.843 2.77386 10.8411 2.698C10.8425 2.64662 10.8338 2.59545 10.8153 2.54748C10.7969 2.4995 10.7691 2.45566 10.7336 2.4185C10.6616 2.343 10.5256 2.275 10.3301 2.211L9.75156 2.031C9.46006 1.9395 9.24456 1.804 9.11306 1.6245C8.98436 1.45884 8.91404 1.25528 8.91306 1.0455C8.91306 0.878 8.94956 0.7305 9.02106 0.6025C9.09306 0.475 9.18856 0.363 9.30856 0.2755C9.42856 0.1835 9.56356 0.1155 9.72356 0.0680001C9.88356 0.0200001 10.0511 0 10.2266 0C10.3141 0 10.4061 0.00400003 10.4941 0.016C10.5856 0.028 10.6691 0.0439999 10.7531 0.0599999C10.8331 0.0799999 10.9091 0.1 10.9806 0.1235C11.0526 0.1475 11.1086 0.1715 11.1486 0.1955C11.1957 0.219221 11.2367 0.253431 11.2686 0.2955C11.2943 0.334328 11.3068 0.380478 11.3041 0.427V0.6145C11.3041 0.6985 11.2721 0.7425 11.2121 0.7425C11.1589 0.736409 11.1075 0.72011 11.0606 0.6945C10.8194 0.587986 10.5581 0.534937 10.2946 0.539C10.0671 0.539 9.88706 0.5745 9.76356 0.6505C9.63956 0.7265 9.57606 0.842 9.57606 1.0055C9.57606 1.1175 9.61606 1.2135 9.69606 1.289C9.77556 1.365 9.92306 1.441 10.1346 1.509L10.7016 1.688C10.9886 1.78 11.1966 1.908 11.3201 2.0715C11.4436 2.235 11.5036 2.4225 11.5036 2.63C11.5036 2.8015 11.4676 2.9575 11.4001 3.093C11.3281 3.229 11.2321 3.3485 11.1086 3.4445C10.9846 3.5445 10.8371 3.616 10.6656 3.668C10.4856 3.7235 10.2986 3.7515 10.0946 3.7515ZM10.8491 5.6915C9.53606 6.6615 7.62806 7.176 5.98806 7.176C3.68906 7.176 1.61806 6.326 0.0530601 4.913C-0.0704399 4.8015 0.0410601 4.6495 0.18906 4.7375C1.88106 5.719 3.96856 6.314 6.12756 6.314C7.58456 6.314 9.18456 6.0105 10.6576 5.388C10.8771 5.288 11.0646 5.5315 10.8491 5.6915ZM11.3961 5.0685C11.2281 4.8535 10.2861 4.965 9.85906 5.017C9.73156 5.033 9.71156 4.921 9.82756 4.837C10.5776 4.3105 11.8111 4.462 11.9546 4.6375C12.0981 4.8175 11.9146 6.0505 11.2121 6.641C11.1046 6.733 11.0006 6.685 11.0486 6.5655C11.2086 6.1705 11.5636 5.2805 11.3961 5.0685Z" fill="white"/>
</svg>
