<svg width="9" height="10" viewBox="0 0 9 10" fill="none" xmlns="http://www.w3.org/2000/svg">
<path d="M4.4978 0C4.36093 0 4.22408 0.0335743 4.10596 0.101074L0.389648 2.24634C0.149648 2.38509 0 2.64779 0 2.92529V6.81738C0 7.09863 0.149648 7.35759 0.389648 7.49634L1.36523 8.05884C1.83773 8.29134 2.00622 8.29102 2.21997 8.29102C2.92122 8.29102 3.32227 7.86732 3.32227 7.13232V3.11646C3.32227 3.05646 3.27387 3.00732 3.21387 3.00732H2.74512C2.68137 3.00732 2.63599 3.05646 2.63599 3.11646V7.12866C2.63599 7.45866 2.29515 7.78107 1.7439 7.50732L0.723633 6.91846C0.686133 6.89971 0.663574 6.85863 0.663574 6.81738V2.92896C0.663574 2.88396 0.686133 2.84599 0.723633 2.82349L4.43994 0.678955C4.47369 0.656455 4.5189 0.656455 4.5564 0.678955L8.27271 2.82349C8.31021 2.84599 8.33276 2.88404 8.33276 2.92529V6.81738C8.33276 6.85863 8.31012 6.89971 8.27637 6.91846L4.5564 9.06738C4.52265 9.08613 4.47369 9.08613 4.43994 9.06738L3.4834 8.50122C3.45715 8.48247 3.42029 8.4789 3.39404 8.4939C3.12779 8.6439 3.07904 8.66253 2.83154 8.74878C2.77154 8.76753 2.67773 8.80491 2.86523 8.90991L4.10596 9.64526C4.22596 9.71276 4.36134 9.75 4.49634 9.75C4.63509 9.75 4.76965 9.71276 4.88965 9.64526L8.61035 7.49634C8.85035 7.35759 9 7.09863 9 6.81738V2.92896C9 2.64771 8.85035 2.38875 8.61035 2.25L4.88965 0.101074C4.77152 0.0335743 4.63468 0 4.4978 0ZM5.49756 3.0022C4.43631 3.0022 3.80273 3.4519 3.80273 4.2019C3.80273 5.01565 4.43215 5.2403 5.45215 5.34155C6.6709 5.46155 6.76465 5.64208 6.76465 5.88208C6.76465 6.29458 6.43146 6.47095 5.64771 6.47095C4.66146 6.47095 4.44381 6.2231 4.37256 5.7356C4.36506 5.6831 4.32032 5.64551 4.26782 5.64551H3.78369C3.72369 5.64551 3.67896 5.69473 3.67896 5.75098C3.67896 6.37723 4.02021 7.1228 5.64771 7.1228C6.82521 7.1228 7.5 6.65839 7.5 5.84839C7.5 5.04589 6.95616 4.83173 5.81616 4.67798C4.65741 4.52798 4.54102 4.4492 4.54102 4.1792C4.54102 3.9542 4.64256 3.65845 5.49756 3.65845C6.25881 3.65845 6.54366 3.82292 6.65991 4.33667C6.67116 4.38542 6.71215 4.4231 6.76465 4.4231H7.24878C7.27878 4.4231 7.30465 4.40824 7.32715 4.38574C7.3459 4.36699 7.35727 4.33673 7.35352 4.30298C7.27852 3.41798 6.69006 3.0022 5.49756 3.0022Z" fill="white"/>
</svg>
