<svg width="12" height="8" viewBox="0 0 12 8" fill="none" xmlns="http://www.w3.org/2000/svg">
<path d="M4.8 0V1.2H2.4V2.4H1.2V3.6H0.27C0.155625 3.60188 0.0590626 3.68344 0.0375 3.795C0.0375 3.795 0 4.00031 0 4.26C0 4.425 0.016875 4.60406 0.045 4.785C0.0309374 4.78875 0.0121875 4.79719 0 4.8H0.045C0.114375 5.23406 0.27375 5.69625 0.54 6.135C0.540937 6.13688 0.539063 6.14063 0.54 6.1425C0.541875 6.14719 0.544687 6.15281 0.5475 6.1575C0.559687 6.21469 0.591563 6.26531 0.6375 6.3C0.642187 6.30281 0.647813 6.30563 0.6525 6.3075C0.726563 6.41438 0.804375 6.52125 0.8925 6.6225C1.53469 7.36313 2.57719 7.92 4.08 7.92C6.53344 7.92 8.60813 6.87469 9.78 4.8H11.9625C11.7019 4.73438 11.1422 4.64625 11.235 4.305C10.9247 4.66406 10.3341 4.70906 9.8775 4.6275C9.96469 4.4625 10.0491 4.29469 10.125 4.1175C10.8188 4.09969 11.3166 3.87656 11.595 3.6075C11.8997 3.31313 11.9925 2.985 11.9925 2.985C12.0159 2.89313 11.9841 2.79656 11.91 2.7375C11.91 2.7375 11.3034 2.295 10.395 2.445C10.1363 1.59656 9.465 1.185 9.465 1.185C9.41531 1.15594 9.35719 1.14469 9.3 1.155C9.26156 1.16344 9.225 1.18125 9.195 1.2075C9.195 1.2075 9.03469 1.34438 8.9025 1.59C8.77031 1.83563 8.64844 2.20969 8.6925 2.6925C8.71313 2.91844 8.78438 3.13313 8.8875 3.3375C8.82938 3.37313 8.79563 3.40313 8.7 3.4425C8.50125 3.525 8.21156 3.6 7.8 3.6H7.68V2.4H6.48V0H4.8ZM5.28 0.48H6V1.2H5.28V0.48ZM2.88 1.68H3.6V2.4H2.88V1.68ZM4.08 1.68H4.8V2.4H4.08V1.68ZM5.28 1.68H6V2.4H5.28V1.68ZM9.3825 1.7325C9.56063 1.86469 9.88313 2.14125 9.9975 2.745C10.0097 2.81156 10.0491 2.86875 10.1063 2.90438C10.1634 2.94 10.2328 2.95031 10.2975 2.9325C10.9097 2.76469 11.2406 2.9025 11.4225 3.0075C11.3878 3.08344 11.3934 3.13031 11.2575 3.2625C11.0391 3.47344 10.6688 3.68625 9.975 3.66C9.87375 3.65625 9.78094 3.71625 9.7425 3.81C9.64688 4.04906 9.53625 4.27031 9.42 4.485C9.38438 4.46438 9.35438 4.44 9.33 4.4175C9.00844 4.88344 7.14281 4.70531 7.0125 4.3425C6.61031 4.815 5.36063 4.815 4.9575 4.3425C4.82719 4.70531 2.95406 4.88344 2.6325 4.4175C2.34469 4.6875 1.20844 4.85344 0.735 4.305C0.78 4.47 0.66375 4.57688 0.51 4.65C0.490313 4.51313 0.48 4.38281 0.48 4.26C0.48 4.15688 0.4875 4.1475 0.495 4.08H7.8C8.2725 4.08 8.62688 3.99 8.88 3.885C9.13313 3.78 9.31313 3.6525 9.3375 3.6375C9.39563 3.60094 9.435 3.54188 9.44625 3.47438C9.4575 3.40781 9.43969 3.33844 9.3975 3.285C9.26438 3.11156 9.195 2.89406 9.1725 2.6475C9.13781 2.26031 9.22875 1.98938 9.3225 1.815C9.35438 1.75594 9.35625 1.76813 9.3825 1.7325ZM1.68 2.88H2.4V3.6H1.68V2.88ZM2.88 2.88H3.6V3.6H2.88V2.88ZM4.08 2.88H4.8V3.6H4.08V2.88ZM5.28 2.88H6V3.6H5.28V2.88ZM6.48 2.88H7.2V3.6H6.48V2.88ZM0.54 4.8H9.24C8.13844 6.57938 6.30938 7.44 4.08 7.44C2.7675 7.44 1.91625 6.99469 1.3575 6.405C2.4225 6.45563 3.2475 6.1725 3.2475 6.1725C3.37969 6.15563 3.47438 6.03469 3.4575 5.9025C3.44063 5.77031 3.31969 5.67563 3.1875 5.6925C3.17438 5.69438 3.16219 5.69625 3.15 5.7C3.12938 5.70281 3.10969 5.7075 3.09 5.715C3.09 5.715 2.10844 6.04969 0.96 5.8875C0.744375 5.53219 0.608437 5.15156 0.54 4.8ZM3.84 5.28C3.70781 5.28 3.6 5.38781 3.6 5.52C3.6 5.65219 3.70781 5.76 3.84 5.76C3.97219 5.76 4.08 5.65219 4.08 5.52C4.08 5.48719 4.07719 5.45813 4.065 5.43C4.04813 5.46 4.01156 5.4825 3.975 5.4825C3.92063 5.4825 3.8775 5.43188 3.8775 5.3775C3.8775 5.34094 3.90094 5.31188 3.93 5.295C3.90281 5.28469 3.87094 5.28 3.84 5.28Z" fill="white"/>
</svg>
