<svg width="22" height="9" viewBox="0 0 22 9" fill="none" xmlns="http://www.w3.org/2000/svg">
<path d="M22 4.37316C22 5.96816 20.9321 7.04 19.3428 7.04C18.7568 7.04 18.2433 6.89348 17.8288 6.62904C17.7624 6.99996 17.6466 7.32248 17.4473 7.62256C17.0927 8.1598 16.3667 8.8 14.92 8.8C14.3726 8.8 13.8939 8.71552 13.4138 8.5338L12.8454 8.31864V7.04C12.8454 7.04 8.09732 7.04 7.87776 7.04C7.45272 7.04 7.1148 6.97488 6.83936 6.87104C6.7958 6.99864 6.74784 7.12316 6.68448 7.24328C6.41256 7.77128 6.03724 8.118 5.38868 8.44052L5.0072 8.63016L4.62176 8.44844L3.59436 7.964L1.27688 6.67744L1.28172 6.677C0.46068 6.24712 0 5.45248 0 4.37536C0 2.87364 0.99 1.793 2.44684 1.64868V0.88V0H7.04748V0.88V1.93468C7.42456 1.8216 7.80868 1.76 8.21128 1.76C8.81232 1.76 9.229 1.90476 9.5238 2.09968L9.75612 2.03632C10.4562 1.84536 11.0339 1.76 11.6296 1.76C12.4164 1.76 13.02 1.97868 13.4253 2.41076C13.4834 2.4728 13.534 2.53572 13.5806 2.59996C14.1214 2.0988 14.9565 1.76 16.1735 1.76C16.6962 1.76 17.1952 1.81236 17.7914 1.93028L18.1773 2.0064C18.531 1.848 18.9367 1.76 19.386 1.76C20.9493 1.76 22 2.81028 22 4.37316ZM3.32684 0.88V2.56916C3.1614 2.52648 2.96384 2.51196 2.78432 2.51196C1.62668 2.51196 0.88 3.24544 0.88 4.37536C0.88 5.54796 1.584 6.15868 2.937 6.16C3.38888 6.16 3.83284 6.11732 4.4 6.00908V0.88H3.32684ZM3.32684 3.4606V5.23996C3.16844 5.26152 3.00828 5.26856 2.88552 5.26856C2.31836 5.26856 2.00904 4.9434 2.00904 4.35424C2.00904 3.74924 2.33244 3.40384 2.89256 3.40384C3.0294 3.40384 3.19704 3.41792 3.32684 3.4606ZM5.05428 2.64V4.80304C5.05428 5.7574 5.00456 6.1204 4.84616 6.43368C4.69524 6.73992 4.45852 6.941 3.96968 7.16804L4.99752 7.65248C5.48636 7.4096 5.72308 7.1896 5.9026 6.84068C6.09488 6.47768 6.16 6.0566 6.16 5.18144V2.64H5.05428ZM5.06 2.00552H6.16748V0.88H5.06V2.00552ZM6.81824 3.78224C7.22876 3.5684 7.66656 3.45708 8.05552 3.45708C8.32128 3.45708 8.4172 3.52704 8.4172 3.7202V3.95472C7.1258 4.06472 6.6 4.41012 6.6 5.15768C6.6 5.84892 6.99556 6.16 7.87776 6.16C8.31424 6.16 8.90912 6.11072 9.3808 6.04208V3.87816C9.3808 3.43508 9.3522 3.22828 9.2642 3.069C9.10712 2.7852 8.75204 2.64 8.21128 2.64C7.72596 2.64 7.28156 2.73724 6.81692 2.95812L6.81824 3.78224ZM8.46428 4.65168V5.36492C8.25968 5.39924 8.11624 5.41288 7.95916 5.41288C7.67184 5.41288 7.5416 5.31564 7.5416 5.1084C7.5416 4.8312 7.7682 4.72032 8.46428 4.65168ZM9.988 6.16H11V3.58908C11.2099 3.52484 11.3709 3.5112 11.5139 3.5112C11.8866 3.5112 12.0608 3.66608 12.0608 4.081V6.16H13.0684V4.03788C13.0684 3.49712 12.9994 3.24368 12.7829 3.01224C12.5528 2.76672 12.1651 2.64 11.6296 2.64C11.1144 2.64 10.6058 2.71656 9.988 2.88508V6.16ZM13.7258 6.71792V7.71056C14.1139 7.85752 14.4879 7.92 14.92 7.92C15.7696 7.92 16.3676 7.66084 16.713 7.13768C16.9497 6.7804 17.0298 6.34832 17.0298 5.42652V5.13304C17.0223 4.98608 17.0223 4.83956 17.0152 4.6926L17.0082 4.10564L16.9941 3.652V3.5398C17.2168 3.56048 16.9457 3.5134 17.241 3.56884L17.6207 2.79356C17.0883 2.6884 16.6487 2.64 16.1735 2.64C14.5548 2.64 13.64 3.3308 13.64 4.55312C13.64 5.5374 14.2582 6.15912 15.2297 6.15912C15.5166 6.15912 15.7335 6.116 15.9491 6.01216V6.03284C15.9491 6.7166 15.6394 7.00348 14.9129 7.00348C14.502 7.00348 14.1139 6.91328 13.7258 6.71792ZM15.928 3.58952L15.9355 3.94548L15.9425 4.44092C15.9425 4.58788 15.95 4.72736 15.95 4.85364V5.14712V5.225C15.8074 5.2668 15.6842 5.29408 15.5333 5.29408C15.0436 5.29408 14.7699 4.98652 14.7699 4.44972C14.7699 4.07308 14.9068 3.80732 15.1721 3.6608C15.345 3.55564 15.5976 3.5002 15.8132 3.50724H15.8932H15.928V3.58952ZM17.6 4.43388C17.6 5.49868 18.2648 6.16 19.3428 6.16C20.4349 6.16 21.12 5.4714 21.12 4.37316C21.12 3.30176 20.4622 2.64 19.386 2.64C18.2868 2.64 17.6018 3.3286 17.6 4.43388ZM19.3635 5.313C18.9446 5.313 18.6987 4.97904 18.6987 4.39868C18.6987 3.81832 18.9433 3.48436 19.3706 3.48436C19.7837 3.48436 20.0209 3.82536 20.0209 4.39868C20.0213 4.97904 19.7771 5.313 19.3635 5.313Z" fill="white"/>
</svg>
