<svg width="12" height="8" viewBox="0 0 12 8" fill="none" xmlns="http://www.w3.org/2000/svg">
<path d="M8.8535 4.5C7.9245 4.5 7.109 3.8515 5.9795 2.954C5.219 2.3495 3.4765 2.1445 3.2035 2.357L2.5 1.6465C3.5265 0.6195 4.1465 0 5.3535 0C6.8625 0 7.9605 0.844 8.843 1.523C9.12 1.7355 9.3815 1.9365 9.6065 2.069C9.7775 2.1695 10.143 2.287 10.449 2.1955C10.6445 2.138 10.7935 2.0005 10.906 1.7765L11.823 2.171C11.293 3.6295 10.183 4.5 8.8535 4.5ZM4.345 1.3165C5.1985 1.4335 6.101 1.773 6.602 2.171C7.6695 3.02 8.3005 3.5 8.8535 3.5C9.226 3.5 9.571 3.3965 9.8745 3.2005C9.569 3.152 9.2955 3.0455 9.1005 2.931C8.822 2.767 8.5365 2.5475 8.2345 2.3155C7.4315 1.6985 6.522 1 5.3535 1C4.9605 1 4.674 1.088 4.345 1.3165ZM6.3535 8C5.4245 8 4.609 7.3515 3.4795 6.454C2.7195 5.85 0.9765 5.6435 0.7035 5.857L0 5.1465C1.0265 4.1195 1.6465 3.5 2.8535 3.5C4.3625 3.5 5.4605 4.344 6.343 5.023C6.62 5.2355 6.8815 5.4365 7.1065 5.569C7.2775 5.6695 7.643 5.7855 7.949 5.6955C8.1445 5.638 8.2935 5.5005 8.406 5.2765L9.323 5.671C8.793 7.1295 7.683 8 6.3535 8ZM1.845 4.8165C2.6985 4.9335 3.601 5.273 4.102 5.671C5.1695 6.52 5.8005 7 6.3535 7C6.726 7 7.071 6.8965 7.3745 6.7005C7.069 6.652 6.7955 6.5455 6.6005 6.431C6.322 6.267 6.0365 6.0475 5.7345 5.8155C4.9315 5.1985 4.022 4.5 2.8535 4.5C2.4605 4.5 2.174 4.588 1.845 4.8165Z" fill="white"/>
</svg>
