<svg width="12" height="12" viewBox="0 0 12 12" fill="none" xmlns="http://www.w3.org/2000/svg">
<path opacity="0.35" d="M2.90528 0.5H9.49978C9.77578 0.5 9.99978 0.724 9.99978 1V4C9.99978 4.276 9.77578 4.5 9.49978 4.5H5.99978L2.63978 1.14C2.40378 0.904 2.57078 0.5 2.90528 0.5Z" fill="white"/>
<path d="M2.5 4.5H6L9.36 7.86C9.596 8.096 9.429 8.5 9.095 8.5H2.5C2.224 8.5 2 8.276 2 8V5C2 4.724 2.224 4.5 2.5 4.5Z" fill="white"/>
<path opacity="0.35" d="M2 5V8.003C2 8.3215 2.1265 8.6265 2.3515 8.8515L5.36 11.86C5.596 12.096 6 11.929 6 11.595V4.5H2.5C2.224 4.5 2 4.724 2 5Z" fill="white"/>
</svg>
