<svg width="11" height="11" viewBox="0 0 11 11" fill="none" xmlns="http://www.w3.org/2000/svg">
<path d="M9.49969 0L6.12844 3.64828L4.37437 2.01656L3.6 2.83266L6.17391 5.28L10.32 0.770625L9.49969 0ZM1.2 0.48C0.540116 0.48 0 1.02012 0 1.68V9.36C0 10.0199 0.540116 10.56 1.2 10.56H8.88C9.53988 10.56 10.08 10.0199 10.08 9.36V3.9V1.74L9.6 2.26078V3.9V9.36C9.6 9.76044 9.28044 10.08 8.88 10.08H1.2C0.799564 10.08 0.48 9.76044 0.48 9.36V1.68C0.48 1.27956 0.799564 0.96 1.2 0.96H6.45C6.45048 0.960003 6.45092 0.96 6.45141 0.96H7.95844L8.40234 0.48H6.45141H6.45H1.2ZM2.55281 4.8C1.65833 4.8 1.06875 5.28249 1.06875 6.00609C1.06875 6.59817 1.41797 6.97065 2.13797 7.14609L2.66203 7.27781C3.20755 7.40933 3.42562 7.58487 3.42562 7.91391C3.42562 8.28663 3.05465 8.54953 2.55281 8.54953C2.00729 8.54953 1.63677 8.31456 1.57125 7.92H0.96C1.00368 8.6436 1.6145 9.12 2.50922 9.12C3.46922 9.12 4.08 8.63764 4.08 7.84828C4.08 7.23436 3.73099 6.8833 2.90203 6.68578L2.44359 6.57609C1.91991 6.44457 1.70203 6.29102 1.70203 5.98406C1.70203 5.61134 2.02941 5.37047 2.53125 5.37047C3.01125 5.37047 3.33831 5.61134 3.40359 5.98406H4.01437C3.99253 5.2823 3.38201 4.8 2.55281 4.8ZM6.26156 6C5.36156 6 4.8 6.61418 4.8 7.56938C4.8 8.52458 5.36156 9.12 6.26156 9.12C6.98156 9.12 7.50013 8.80102 7.63453 8.25094H7.02703C6.91423 8.48446 6.64547 8.61047 6.28547 8.61047C5.78867 8.61047 5.45259 8.21976 5.42859 7.71V7.66688H7.68V7.5075C7.68 6.5739 7.13996 6 6.26156 6ZM6.26156 6.49219C6.70796 6.49219 6.99356 6.7584 7.04156 7.2H5.46C5.5128 6.7752 5.81756 6.49219 6.26156 6.49219Z" fill="white"/>
</svg>
