<svg width="12" height="12" viewBox="0 0 12 12" fill="none" xmlns="http://www.w3.org/2000/svg">
<path d="M3.99793 6.57086C3.5593 6.69535 3.27154 6.9136 3.08198 7.13169C3.26354 6.9728 3.50674 6.82698 3.83481 6.73398C4.17036 6.63888 4.45662 6.63956 4.69316 6.6852V6.50024C4.49139 6.48179 4.26005 6.49649 3.99793 6.57086ZM3.06193 5.01598L1.43295 5.44514C1.43295 5.44514 1.46264 5.48708 1.5176 5.54303L2.89878 5.17909C2.89878 5.17909 2.8792 5.43129 2.70924 5.65689C3.03074 5.41365 3.06193 5.01598 3.06193 5.01598ZM4.42549 8.84435C2.13307 9.46179 0.920241 6.80513 0.553044 5.42621C0.383394 4.78971 0.309336 4.30766 0.289598 3.99658C0.287476 3.96428 0.288456 3.93705 0.29074 3.9121C0.171823 3.91928 0.114889 3.98109 0.126473 4.15973C0.146211 4.47064 0.22027 4.95266 0.38992 5.58936C0.756954 6.96806 1.96995 9.62473 4.26237 9.0073C4.76135 8.87288 5.13621 8.62804 5.41761 8.31549C5.15824 8.54975 4.83361 8.73424 4.42549 8.84435ZM4.85628 3.39008V3.55323H5.75545C5.737 3.49546 5.71841 3.44341 5.69996 3.39008H4.85628Z" fill="white"/>
<path d="M5.95682 4.73368C6.36119 4.84851 6.57507 5.13203 6.6881 5.38293L7.13898 5.51098C7.13898 5.51098 7.07748 4.63289 6.28322 4.40728C5.54018 4.19616 5.08293 4.82013 5.02732 4.90088C5.24347 4.74688 5.5591 4.6208 5.95682 4.73368ZM9.5459 5.38698C8.80219 5.17491 8.34512 5.80018 8.29032 5.87979C8.50663 5.72598 8.8221 5.59985 9.21964 5.71324C9.62337 5.82826 9.83707 6.11143 9.95045 6.3625L10.402 6.49103C10.402 6.49103 10.3395 5.61276 9.5459 5.38698ZM9.09795 7.70223L5.34722 6.65366C5.34722 6.65366 5.38782 6.85953 5.54362 7.12609L8.70156 8.00893C8.96155 7.8585 9.09795 7.70223 9.09795 7.70223ZM6.49755 9.95924C3.5277 9.163 3.88674 5.37901 4.3673 3.58591C4.56517 2.84696 4.76859 2.29773 4.93728 1.92955C4.83663 1.90884 4.75327 1.96185 4.67089 2.12938C4.49178 2.49266 4.26274 3.08415 4.04108 3.91218C3.56065 5.70524 3.2016 9.4891 6.17133 10.2853C7.5711 10.6603 8.66157 10.0904 9.47445 9.19531C8.70287 9.89416 7.71774 10.286 6.49755 9.95924Z" fill="white"/>
<path d="M4.85703 7.95759V7.194L2.73544 7.7956C2.73544 7.7956 2.89221 6.88473 3.99868 6.57085C4.33423 6.47575 4.62053 6.4764 4.85703 6.52208V3.39006H5.91932C5.80366 3.03265 5.69177 2.75749 5.5978 2.56629C5.44233 2.24983 5.28297 2.45961 4.92117 2.76221C4.66634 2.9751 4.02233 3.42924 3.05322 3.69039C2.08408 3.9517 1.30059 3.8824 0.97369 3.82579C0.510248 3.74584 0.267843 3.64406 0.290521 3.99656C0.310256 4.30748 0.384318 4.78954 0.553967 5.4262C0.920998 6.80494 2.13399 9.4616 4.42641 8.84418C5.02522 8.68283 5.44788 8.36391 5.74086 7.95743L4.85703 7.95759ZM1.43354 5.44513L3.06268 5.01596C3.06268 5.01596 3.01519 5.64269 2.40446 5.80369C1.79356 5.96453 1.43354 5.44513 1.43354 5.44513Z" fill="white"/>
<path d="M10.9878 3.42625C10.5644 3.50049 9.54841 3.59298 8.29286 3.25644C7.03696 2.9201 6.20368 2.33185 5.87355 2.05535C5.40555 1.66336 5.19968 1.39094 4.99708 1.803C4.81797 2.16644 4.58892 2.75794 4.36722 3.58596C3.88683 5.37903 3.5278 9.16289 6.49748 9.95911C9.46655 10.7547 11.0472 7.29803 11.5276 5.5048C11.7493 4.67694 11.8465 4.05005 11.8733 3.64584C11.9038 3.18795 11.5893 3.32086 10.9878 3.42625ZM5.02121 4.90973C5.02121 4.90973 5.48921 4.18185 6.28297 4.40745C7.07723 4.63306 7.13873 5.51116 7.13873 5.51116L5.02121 4.90973ZM6.95881 8.176C5.56263 7.76701 5.34731 6.65368 5.34731 6.65368L9.09787 7.70228C9.09787 7.7021 8.34082 8.57986 6.95881 8.176ZM8.28486 5.88798C8.28486 5.88798 8.75221 5.1606 9.54582 5.38685C10.3394 5.6128 10.4019 6.4909 10.4019 6.4909L8.28486 5.88798Z" fill="white"/>
<path d="M4.1158 7.40426L2.7356 7.79544C2.7356 7.79544 2.88553 6.94132 3.90228 6.60285L3.12074 3.66986L3.0532 3.69039C2.08408 3.95174 1.30059 3.8824 0.973689 3.82579C0.510251 3.74587 0.267847 3.64406 0.290521 3.9966C0.310259 4.30751 0.384318 4.78954 0.553967 5.42622C0.921001 6.80494 2.134 9.4616 4.4264 8.84417L4.49394 8.82296L4.1158 7.40426ZM1.4337 5.44515L3.06284 5.01596C3.06284 5.01596 3.01535 5.64269 2.40463 5.80369C1.79372 5.96452 1.4337 5.44515 1.4337 5.44515Z" fill="white"/>
<path d="M7.02178 8.19131L6.95863 8.17596C5.56247 7.76701 5.34713 6.65368 5.34713 6.65368L7.28116 7.19428L8.30507 3.2597L8.29268 3.25644C7.03678 2.9201 6.20356 2.33185 5.87337 2.05535C5.40537 1.66336 5.19951 1.39094 4.99691 1.803C4.81797 2.16644 4.58892 2.75794 4.36722 3.58596C3.88683 5.37903 3.5278 9.16289 6.49748 9.95909L6.55835 9.9728L7.02178 8.19131ZM5.02121 4.90974C5.02121 4.90974 5.48921 4.18185 6.28297 4.40745C7.07723 4.63306 7.13873 5.51116 7.13873 5.51116L5.02121 4.90974Z" fill="white"/>
<path d="M4.18466 7.38415L3.81452 7.4892C3.90196 7.98215 4.05609 8.45523 4.29801 8.87315C4.34011 8.86385 4.38187 8.85587 4.42476 8.84412C4.53716 8.81379 4.64139 8.77624 4.74174 8.73529C4.47144 8.33418 4.29262 7.8722 4.18466 7.38415ZM4.04013 3.9122C3.84993 4.62212 3.67976 5.64393 3.7266 6.66883C3.81044 6.63244 3.899 6.59854 3.99737 6.57063L4.0659 6.55532C3.98236 5.46055 4.16294 4.34497 4.36636 3.58594C4.41792 3.39393 4.46962 3.21533 4.52116 3.04877C4.43815 3.1016 4.34876 3.15575 4.24695 3.21154C4.17829 3.42347 4.10895 3.6551 4.04013 3.9122Z" fill="white"/>
</svg>
