<svg width="9" height="12" viewBox="0 0 9 12" fill="none" xmlns="http://www.w3.org/2000/svg">
<path d="M6.98 8.92981H7.1785V9.01681H7.1925C7.22455 8.96695 7.2744 8.93117 7.3319 8.91678C7.3894 8.90238 7.45023 8.91044 7.502 8.93931L7.447 9.12581C7.41876 9.11067 7.38702 9.10325 7.355 9.10431C7.33181 9.103 7.30865 9.10732 7.2875 9.1169C7.26634 9.12647 7.24782 9.14102 7.2335 9.15931C7.20432 9.20185 7.18992 9.25279 7.1925 9.30431V9.62181H6.9805L6.98 8.92981ZM6.85 9.45381C6.81779 9.51132 6.7713 9.55954 6.715 9.59381C6.65475 9.62905 6.58577 9.64656 6.516 9.64431C6.46475 9.64474 6.41388 9.63558 6.366 9.61731C6.32195 9.59921 6.28174 9.57291 6.2475 9.53981C6.21219 9.50563 6.18443 9.46444 6.166 9.41889C6.14757 9.37333 6.13888 9.32442 6.1405 9.27531C6.1405 9.22531 6.1495 9.17831 6.1685 9.13431C6.18649 9.09038 6.213 9.05044 6.2465 9.01681C6.2808 8.98147 6.32195 8.95349 6.36742 8.93458C6.4129 8.91566 6.46175 8.90621 6.511 8.90681C6.56273 8.90563 6.61414 8.91516 6.662 8.93481C6.70322 8.95268 6.74022 8.979 6.77063 9.01208C6.80103 9.04515 6.82415 9.08424 6.8385 9.12681C6.8608 9.19134 6.86714 9.2603 6.857 9.32781H6.347C6.357 9.37281 6.3785 9.40581 6.4105 9.42681C6.44236 9.44741 6.47957 9.45819 6.5175 9.45781C6.54994 9.45939 6.58216 9.45178 6.61047 9.43586C6.63877 9.41994 6.66201 9.39635 6.6775 9.36781L6.85 9.45381ZM6.662 9.18381C6.65923 9.17069 6.65415 9.15816 6.647 9.14681C6.64001 9.13317 6.63011 9.12122 6.618 9.11181C6.60452 9.09972 6.58869 9.09052 6.5715 9.08481C6.55094 9.0765 6.52891 9.07248 6.50674 9.073C6.48457 9.07353 6.46275 9.07858 6.44261 9.08785C6.42247 9.09713 6.40444 9.11042 6.38963 9.12693C6.37482 9.14343 6.36355 9.16279 6.3565 9.18381H6.662ZM6.041 9.45381C6.00879 9.51132 5.9623 9.55954 5.906 9.59381C5.84589 9.62896 5.7771 9.64646 5.7075 9.64431C5.65625 9.64474 5.60538 9.63558 5.5575 9.61731C5.51345 9.59921 5.47324 9.57291 5.439 9.53981C5.4036 9.50568 5.37574 9.46451 5.35723 9.41895C5.33871 9.37339 5.32995 9.32446 5.3315 9.27531C5.3315 9.22531 5.341 9.17831 5.36 9.13431C5.37784 9.09042 5.40418 9.05049 5.4375 9.01681C5.4718 8.98147 5.51295 8.95349 5.55842 8.93458C5.6039 8.91566 5.65275 8.90621 5.702 8.90681C5.7595 8.90681 5.8095 8.91581 5.853 8.93481C5.89422 8.95268 5.93122 8.979 5.96163 9.01208C5.99203 9.04515 6.01515 9.08424 6.0295 9.12681C6.0518 9.19134 6.05814 9.2603 6.048 9.32781H5.538C5.548 9.37281 5.5695 9.40581 5.6015 9.42681C5.6335 9.4475 5.6709 9.45829 5.709 9.45781C5.74144 9.45939 5.77366 9.45178 5.80197 9.43586C5.83027 9.41994 5.85351 9.39635 5.869 9.36781L6.041 9.45381ZM5.853 9.18381C5.85053 9.17075 5.8458 9.15823 5.839 9.14681C5.83172 9.13307 5.82147 9.12111 5.809 9.11181C5.79552 9.09972 5.77969 9.09052 5.7625 9.08481C5.74194 9.0765 5.71991 9.07248 5.69774 9.073C5.67557 9.07353 5.65375 9.07858 5.63361 9.08785C5.61347 9.09713 5.59544 9.11042 5.58063 9.12693C5.56582 9.14343 5.55455 9.16279 5.5475 9.18381H5.853ZM4.894 9.11181L4.7725 9.10981L4.7745 8.91581L4.8995 8.92181L4.896 8.71681L5.102 8.71881L5.094 8.91381L5.2775 8.92381L5.2715 9.10131L5.089 9.10531L5.0955 9.34031C5.0895 9.38631 5.1065 9.41281 5.109 9.43731C5.149 9.48731 5.1775 9.47131 5.1775 9.47131C5.1875 9.46731 5.2585 9.45781 5.266 9.45231L5.286 9.64631C5.217 9.68731 5.0975 9.66431 5.0975 9.66431C4.971 9.64581 4.906 9.55581 4.9055 9.51781C4.893 9.48381 4.8965 9.41281 4.891 9.37281L4.894 9.11181ZM4.688 9.47031C4.6695 9.53331 4.602 9.57931 4.5465 9.61281C4.48523 9.64958 4.41495 9.66862 4.3435 9.66781C4.28832 9.66445 4.23417 9.65141 4.1835 9.62931C4.1385 9.61031 4.101 9.57281 4.067 9.53931C4.033 9.50681 4.0205 9.46831 4.0015 9.42431C3.98413 9.37456 3.97649 9.32194 3.979 9.26931C3.9715 9.17231 4.042 9.08031 4.085 9.01681C4.225 8.89781 4.33 8.90681 4.33 8.90681C4.5235 8.86931 4.678 9.05081 4.689 9.12531C4.704 9.16831 4.7 9.21531 4.7 9.26531C4.6975 9.29231 4.7 9.29031 4.6845 9.32781H4.166C4.176 9.37281 4.1975 9.42381 4.218 9.44781C4.242 9.47781 4.282 9.47781 4.3215 9.47781C4.361 9.47781 4.403 9.47881 4.4285 9.46181C4.455 9.44481 4.5145 9.42581 4.53 9.39931L4.688 9.47031ZM4.503 9.19131C4.49844 9.17435 4.49172 9.15805 4.483 9.14281C4.476 9.12981 4.458 9.11981 4.445 9.10981C4.433 9.09831 4.4095 9.09131 4.3905 9.08481C4.37131 9.07697 4.35073 9.07306 4.33 9.07331C4.29985 9.07266 4.27032 9.08197 4.246 9.09981C4.2175 9.11831 4.1975 9.15981 4.1845 9.19481L4.503 9.19131ZM3.333 9.00531H3.347C3.36499 8.97623 3.39035 8.95243 3.4205 8.93631C3.45941 8.9152 3.50325 8.90484 3.5475 8.90631C3.59152 8.90608 3.6351 8.91519 3.67535 8.93303C3.71559 8.95087 3.7516 8.97704 3.781 9.00981C3.81296 9.04321 3.83795 9.08265 3.8545 9.12581C3.8725 9.17081 3.881 9.22081 3.881 9.27581C3.88186 9.32705 3.87286 9.37797 3.8545 9.42581C3.83768 9.46914 3.81274 9.50885 3.781 9.54281C3.75097 9.57464 3.71479 9.60005 3.67465 9.6175C3.63452 9.63494 3.59126 9.64407 3.5475 9.64431C3.50347 9.64593 3.45976 9.63629 3.4205 9.61631C3.39039 9.59925 3.3651 9.57482 3.347 9.54531H3.333L3.347 9.64431V9.92681H3.135V8.92981H3.333V9.00531ZM3.501 9.10431C3.46823 9.10434 3.43616 9.11384 3.40866 9.13167C3.38116 9.1495 3.3594 9.1749 3.346 9.20481C3.33711 9.22724 3.33269 9.25119 3.333 9.27531C3.333 9.30181 3.337 9.32581 3.3455 9.34781C3.3545 9.36773 3.36704 9.38586 3.3825 9.40131C3.3985 9.41531 3.4165 9.42631 3.436 9.43531C3.47752 9.45032 3.52298 9.45032 3.5645 9.43531C3.58444 9.4274 3.60275 9.41588 3.6185 9.40131C3.63437 9.38631 3.64682 9.36806 3.655 9.34781C3.66465 9.32488 3.66942 9.30019 3.669 9.27531C3.66926 9.25303 3.66512 9.23092 3.65681 9.21025C3.6485 9.18958 3.63618 9.17076 3.62057 9.15487C3.60495 9.13898 3.58635 9.12633 3.56583 9.11765C3.54531 9.10897 3.52328 9.10444 3.501 9.10431ZM2.488 9.00531H2.503C2.52085 8.9763 2.54603 8.9525 2.576 8.93631C2.61491 8.9152 2.65875 8.90484 2.703 8.90631C2.74694 8.90615 2.79042 8.91529 2.83057 8.93313C2.87073 8.95097 2.90666 8.9771 2.936 9.00981C2.96796 9.04321 2.99295 9.08265 3.0095 9.12581C3.0275 9.17081 3.0365 9.22081 3.0365 9.27581C3.0372 9.32708 3.02803 9.378 3.0095 9.42581C2.99268 9.46914 2.96774 9.50885 2.936 9.54281C2.90603 9.57458 2.86993 9.59995 2.82989 9.6174C2.78984 9.63484 2.74668 9.644 2.703 9.64431C2.65897 9.64593 2.61526 9.63629 2.576 9.61631C2.54589 9.59925 2.5206 9.57482 2.5025 9.54531H2.488L2.503 9.64431V9.92681H2.29V8.92981H2.4875L2.488 9.00531ZM2.6565 9.10431C2.62373 9.10434 2.59166 9.11384 2.56416 9.13167C2.53666 9.1495 2.5149 9.1749 2.5015 9.20481C2.49244 9.2272 2.48785 9.25115 2.488 9.27531C2.488 9.30181 2.493 9.32581 2.501 9.34781C2.50985 9.36769 2.52222 9.38582 2.5375 9.40131C2.5535 9.41531 2.5715 9.42631 2.5915 9.43531C2.63302 9.45032 2.67848 9.45032 2.72 9.43531C2.73976 9.42735 2.7579 9.41582 2.7735 9.40131C2.78956 9.38637 2.80219 9.36811 2.8105 9.34781C2.82015 9.32488 2.82492 9.30019 2.8245 9.27531C2.82482 9.24149 2.81498 9.20835 2.79626 9.18019C2.77754 9.15202 2.7508 9.13012 2.7195 9.11731C2.6996 9.10876 2.67816 9.10433 2.6565 9.10431ZM1.94 9.53431H1.926C1.90372 9.56992 1.8723 9.5989 1.83502 9.61825C1.79773 9.6376 1.75594 9.6466 1.714 9.64431C1.627 9.64431 1.5625 9.61681 1.5205 9.56081C1.47541 9.49696 1.45289 9.4199 1.4565 9.34181V8.92931H1.6685V9.31781C1.6685 9.35581 1.6775 9.38681 1.6955 9.41131C1.7135 9.43481 1.741 9.44631 1.779 9.44631C1.80031 9.44739 1.82153 9.44288 1.84056 9.43323C1.85959 9.42358 1.87577 9.40913 1.8875 9.39131C1.91477 9.34838 1.9282 9.29812 1.926 9.24731V8.92931H2.138V9.62181H1.94V9.53431ZM0.643 9.62181V8.60981H1.005C1.05355 8.60931 1.1018 8.61744 1.1475 8.63381C1.18997 8.64861 1.22906 8.67173 1.2625 8.70181C1.29472 8.73026 1.32032 8.76542 1.3375 8.80481C1.35558 8.84749 1.3646 8.89346 1.364 8.93981C1.36443 8.98571 1.35523 9.03118 1.337 9.07331C1.31944 9.11368 1.29345 9.14983 1.26076 9.17933C1.22808 9.20882 1.18946 9.23098 1.1475 9.24431C1.1018 9.2607 1.05355 9.26883 1.005 9.26831H0.8635V9.62181H0.643ZM1.012 9.05931C1.058 9.05931 1.092 9.04781 1.115 9.02531C1.12621 9.01404 1.13501 9.0006 1.14086 8.98581C1.1467 8.97103 1.14947 8.9552 1.149 8.93931C1.14954 8.92333 1.14681 8.90742 1.14096 8.89254C1.13511 8.87766 1.12628 8.86414 1.115 8.85281C1.0925 8.83031 1.058 8.81881 1.012 8.81881H0.8635V9.05881L1.012 9.05931ZM7.055 1.37881L6.758 1.40381L6.876 2.86981L7.189 3.05131L7.055 1.37881ZM1.047 1.38381L0.899 3.00481L1.211 2.85481L1.344 1.40981L1.047 1.38381ZM0.802 3.97531L0.78 4.25381L0.1565 5.82231C0.0485 5.93431 0.00250002 6.07931 0.00300002 6.23481L0 11.4198C0 11.7543 0.245 11.9998 0.579 11.9998H7.445C7.78 11.9998 8.07 11.7778 8.07 11.4448V6.24231C8.07 6.08931 8.02 5.96231 7.927 5.85531L7.255 3.87381L7.252 3.83981L6.9645 3.96831L7.098 5.63331H0.958L1.0765 4.32581L1.1895 4.03181L1.1065 3.99981L1.1075 3.98481L0.802 3.97531ZM7.358 5.14531L7.5195 5.63881C7.4755 5.63181 7.4405 5.63581 7.397 5.63381L7.358 5.14531ZM0.7 5.26131L0.658 5.63331C0.629 5.63081 0.598 5.63581 0.572 5.63681L0.7 5.26131ZM0.61 5.82831L7.445 5.83231C7.68 5.83231 7.8715 6.00431 7.8715 6.23981V6.63781H0.1915V6.23981C0.1915 6.00481 0.3735 5.82831 0.61 5.82831ZM0.6775 6.10481C0.659687 6.10468 0.642025 6.10807 0.625531 6.1148C0.609036 6.12152 0.594035 6.13145 0.581393 6.144C0.568751 6.15654 0.558718 6.17147 0.551871 6.18792C0.545024 6.20436 0.541499 6.222 0.5415 6.23981C0.5415 6.41981 0.8125 6.41981 0.8125 6.23981C0.8125 6.20401 0.798277 6.16967 0.772959 6.14435C0.747642 6.11903 0.713304 6.10481 0.6775 6.10481ZM1.1375 6.10481C0.9575 6.10481 0.9575 6.37481 1.1375 6.37481C1.3175 6.37481 1.3185 6.10481 1.1385 6.10481H1.1375ZM1.5855 6.10481C1.3905 6.08781 1.3905 6.39081 1.5855 6.37381C1.7505 6.35981 1.7505 6.11881 1.5855 6.10481ZM0.1915 6.81681H7.8715V11.3933C7.8715 11.6908 7.6815 11.8163 7.445 11.8158L0.611 11.8138C0.555579 11.8146 0.500559 11.8043 0.449203 11.7834C0.397847 11.7626 0.351202 11.7316 0.312032 11.6924C0.272862 11.6532 0.241966 11.6065 0.221176 11.5551C0.200385 11.5038 0.190124 11.4487 0.191 11.3933L0.1915 6.81681ZM1.133 9.02681C1.168 8.96831 1.168 8.97181 1.167 8.93381C1.163 8.89731 1.165 8.89581 1.1405 8.86631C1.1135 8.83931 1.079 8.79731 1.0405 8.79931H0.847L0.837 9.07431H1.0405C1.1015 9.07331 1.1205 9.03181 1.133 9.02681ZM1.0405 8.61181C1.08128 8.6097 1.12205 8.61622 1.16013 8.63096C1.19822 8.64569 1.23276 8.6683 1.2615 8.69731C1.3165 8.75581 1.3435 8.83381 1.3435 8.92981C1.34791 9.01429 1.31921 9.09716 1.2635 9.16081C1.205 9.22081 1.132 9.26581 1.0485 9.26231L0.8485 9.26631L0.8465 9.65331L0.6405 9.64681L0.638 8.60281L1.0405 8.61181ZM1.937 9.24181L1.931 8.92981L2.114 8.92781L2.116 9.64531L1.936 9.64731V9.58631C1.90693 9.61275 1.8728 9.63302 1.83567 9.64591C1.79855 9.6588 1.7592 9.66404 1.72 9.66131C1.68208 9.66307 1.6442 9.65706 1.60869 9.64364C1.57318 9.63023 1.54079 9.6097 1.5135 9.58331C1.462 9.52831 1.4485 9.42831 1.452 9.35331L1.45 8.92981H1.636L1.632 9.31481C1.62939 9.35652 1.6428 9.39766 1.6695 9.42981C1.68155 9.44428 1.69671 9.45585 1.71385 9.46364C1.73099 9.47143 1.74967 9.47525 1.7685 9.47481C1.881 9.47481 1.9365 9.39681 1.9365 9.24081L1.937 9.24181ZM2.8395 9.28031C2.84039 9.25505 2.83596 9.22989 2.82648 9.20645C2.81701 9.18302 2.8027 9.16185 2.7845 9.14431C2.7495 9.10781 2.727 9.08531 2.6755 9.08681C2.6255 9.08681 2.5825 9.09581 2.5425 9.13381C2.52312 9.15281 2.50795 9.17567 2.49796 9.20091C2.48797 9.22614 2.48338 9.25319 2.4845 9.28031C2.4845 9.34031 2.5035 9.38881 2.543 9.42531C2.578 9.46181 2.627 9.48231 2.678 9.48231C2.729 9.48381 2.761 9.45581 2.797 9.41931C2.8405 9.37231 2.827 9.31431 2.8395 9.28031ZM2.7085 8.90031C2.7965 8.90031 2.875 8.95531 2.9415 9.02281C2.97426 9.05699 2.99985 9.09738 3.01677 9.14161C3.03368 9.18583 3.04158 9.23299 3.04 9.28031C3.04167 9.32742 3.0338 9.37437 3.01687 9.41836C2.99995 9.46235 2.97431 9.50247 2.9415 9.53631C2.895 9.61631 2.7865 9.66381 2.6985 9.66331C2.6185 9.66581 2.5185 9.63031 2.4845 9.56481L2.4865 9.94481L2.2865 9.94781L2.2765 8.92781L2.4845 8.91781V8.99631C2.5475 8.94481 2.627 8.89631 2.7085 8.89981V8.90031ZM3.7095 9.28231C3.7025 9.20231 3.6875 9.18081 3.651 9.14081C3.615 9.10381 3.5925 9.09731 3.541 9.09831C3.491 9.09831 3.452 9.09581 3.4125 9.13331C3.39306 9.15237 3.37785 9.17531 3.36785 9.20064C3.35786 9.22596 3.35331 9.25311 3.3545 9.28031C3.3545 9.34031 3.3735 9.38881 3.4125 9.42531C3.4475 9.46181 3.4965 9.48231 3.5475 9.48231C3.5985 9.48381 3.6245 9.44981 3.6605 9.41381C3.697 9.37381 3.7035 9.32631 3.7095 9.28231ZM3.5505 8.90731C3.639 8.90731 3.745 8.95531 3.8115 9.02231C3.84437 9.05655 3.87005 9.09701 3.88705 9.14131C3.90406 9.18562 3.91203 9.23288 3.9105 9.28031C3.9121 9.32745 3.90415 9.37443 3.88714 9.41842C3.87013 9.46241 3.8444 9.50251 3.8115 9.53631C3.759 9.61131 3.6395 9.66381 3.5505 9.66331C3.51232 9.66386 3.47457 9.65519 3.44045 9.63804C3.40633 9.6209 3.37684 9.59578 3.3545 9.56481V9.93981L3.152 9.94481L3.1405 8.92781H3.3545V8.99631C3.4175 8.94481 3.4695 8.90431 3.5505 8.90731ZM4.1845 9.19531L4.503 9.19131C4.4945 9.15431 4.4715 9.13131 4.441 9.10831C4.41102 9.08791 4.37553 9.07712 4.33927 9.07739C4.303 9.07766 4.26768 9.08897 4.238 9.10981C4.1955 9.14381 4.211 9.13781 4.1845 9.19481V9.19531ZM4.341 8.90781C4.4305 8.90631 4.5535 8.94681 4.617 9.00931C4.6835 9.07431 4.6955 9.16331 4.7 9.26531L4.6845 9.32781H4.1695C4.1795 9.37531 4.1915 9.42081 4.2215 9.44981C4.251 9.47781 4.298 9.48481 4.3385 9.48481C4.37467 9.48534 4.41052 9.47801 4.44358 9.46334C4.47665 9.44866 4.50613 9.42649 4.53 9.39931L4.688 9.47031C4.665 9.54031 4.5945 9.58181 4.536 9.61831C4.47377 9.65284 4.40307 9.66913 4.332 9.66531C4.24 9.66681 4.143 9.60731 4.0785 9.54181C4.04517 9.50714 4.01914 9.46613 4.00196 9.42121C3.98478 9.37629 3.9768 9.32837 3.9785 9.28031C3.9785 9.17531 4.0255 9.08931 4.0935 9.02131C4.1585 8.95531 4.2485 8.90531 4.341 8.90781ZM5.1775 9.47131C5.2175 9.46981 5.2325 9.47231 5.2665 9.45231L5.2865 9.64631C5.233 9.67781 5.219 9.66531 5.1565 9.66731C5.08008 9.66743 5.0062 9.63991 4.9485 9.58981C4.9015 9.54481 4.9 9.45981 4.9 9.36831L4.894 9.11181L4.7725 9.10981L4.7745 8.91581L4.8995 8.92181L4.896 8.71681L5.102 8.71881L5.094 8.91381L5.2775 8.92381L5.2715 9.10131L5.089 9.10531L5.0905 9.35881C5.0915 9.43631 5.1115 9.47131 5.178 9.47131H5.1775ZM5.5525 9.20131H5.8795C5.8712 9.16416 5.84993 9.13119 5.8195 9.10831C5.78947 9.0878 5.75388 9.07695 5.71751 9.07722C5.68115 9.07749 5.64573 9.08886 5.616 9.10981C5.58377 9.13115 5.56102 9.16361 5.5525 9.20131ZM5.7215 8.90781C5.814 8.90781 5.9055 8.95381 5.9715 9.01781C6.038 9.08281 6.058 9.16531 6.063 9.26781V9.32781H5.548C5.55488 9.37139 5.57597 9.41147 5.608 9.44181C5.63731 9.46985 5.67644 9.48529 5.717 9.48481C5.7945 9.48481 5.8655 9.45481 5.9005 9.39481L6.0505 9.46981C6.0255 9.53481 5.9905 9.56481 5.9315 9.60081C5.86251 9.64005 5.78485 9.66152 5.7055 9.66331C5.65833 9.66221 5.61185 9.65174 5.56876 9.63251C5.52567 9.61328 5.48683 9.58568 5.4545 9.55131C5.3858 9.47801 5.34848 9.38075 5.3505 9.28031C5.3505 9.17531 5.4035 9.08931 5.4705 9.02131C5.5365 8.95531 5.6285 8.90531 5.7205 8.90781H5.7215ZM6.3565 9.20131H6.6835C6.6752 9.16416 6.65393 9.13119 6.6235 9.10831C6.59347 9.0878 6.55788 9.07695 6.52151 9.07722C6.48515 9.07749 6.44973 9.08886 6.42 9.10981C6.38777 9.13115 6.36502 9.16361 6.3565 9.20131ZM6.525 8.90781C6.61931 8.91125 6.70874 8.9506 6.775 9.01781C6.842 9.08281 6.862 9.16531 6.867 9.26781V9.32781H6.352C6.35888 9.37139 6.37997 9.41147 6.412 9.44181C6.44118 9.46973 6.48011 9.48516 6.5205 9.48481C6.5975 9.48481 6.669 9.45481 6.7045 9.39481L6.8545 9.46981C6.8295 9.53481 6.7945 9.56481 6.7355 9.60081C6.66622 9.64022 6.58819 9.66171 6.5085 9.66331C6.4615 9.66205 6.41522 9.6515 6.37231 9.63228C6.32941 9.61306 6.29073 9.58554 6.2585 9.55131C6.1898 9.47801 6.15248 9.38075 6.1545 9.28031C6.1545 9.17531 6.2075 9.08931 6.2745 9.02131C6.3395 8.95531 6.4325 8.90531 6.525 8.90781ZM7.494 8.92781L7.4605 9.10981L7.3705 9.09831C7.2095 9.09831 7.1905 9.20181 7.1905 9.39581V9.64081L6.994 9.64331L6.998 8.92831H7.1805L7.1785 9.03831C7.251 8.95331 7.286 8.89531 7.4935 8.92831L7.494 8.92781ZM6.8025 3.95481L6.8125 3.77181L7.471 3.42831L7.4745 3.62631L6.8025 3.95481ZM0.555 3.41981L1.23 3.75981L1.226 3.95631L0.569 3.63131L0.555 3.41981ZM4.16 2.54581L6.5795 3.76981V3.96581L4.154 2.73581L4.16 2.54581ZM1.472 3.75481L3.919 2.54481L3.9155 2.73181L1.469 3.95381L1.472 3.75481ZM3.2055 1.76781L0.744 0.54931L1.355 0.24681L4.031 1.61881L6.7025 0.23281L7.331 0.55781L4.868 1.79681C4.77 1.84581 4.803 1.99081 4.9015 2.03981L7.3205 3.24981L6.7105 3.56081L4.034 2.21231L1.345 3.56431L0.7085 3.24731L3.2075 2.00581C3.22966 1.99464 3.24824 1.97749 3.26116 1.95631C3.27408 1.93513 3.28082 1.91075 3.28061 1.88594C3.2804 1.86113 3.27326 1.83687 3.25999 1.8159C3.24671 1.79494 3.22784 1.77861 3.2055 1.76781ZM0.5645 0.94381L0.568 0.75531L2.8715 1.89331L2.6975 1.99331L0.5645 0.94381ZM5.3885 1.98231L5.1835 1.89031L7.4815 0.73881L7.4675 0.94481L5.3885 1.98231ZM5.5995 2.13531L7.6615 1.10031C7.67187 1.0953 7.68063 1.0875 7.68681 1.07778C7.69299 1.06807 7.69635 1.05682 7.6965 1.04531V0.55531C7.6965 0.53231 7.6925 0.48731 7.6715 0.47681L6.7015 0.00680999C6.69276 0.0023341 6.68307 0 6.67325 0C6.66343 0 6.65374 0.0023341 6.645 0.00680999L4.0615 1.31831C4.05296 1.32258 4.04355 1.3248 4.034 1.3248C4.02445 1.3248 4.01504 1.32258 4.0065 1.31831L1.3745 0.00730999C1.36595 0.00307878 1.35654 0.000877514 1.347 0.000877514C1.33746 0.000877514 1.32805 0.00307878 1.3195 0.00730999L0.343 0.46881C0.323 0.47881 0.333 0.52381 0.333 0.54731V1.04481C0.333 1.06831 0.346 1.08981 0.368 1.09981L2.438 2.12331L0.38 3.11931C0.36 3.12931 0.326 3.15031 0.325 3.17331L0.3335 3.69031C0.333219 3.70198 0.336266 3.7135 0.342287 3.7235C0.348308 3.73351 0.357053 3.74159 0.3675 3.74681L1.334 4.23981C1.351 4.24881 1.395 4.25481 1.4125 4.24681L4.0055 2.94581C4.01405 2.94158 4.02346 2.93938 4.033 2.93938C4.04254 2.93938 4.05195 2.94158 4.0605 2.94581L6.6205 4.24731C6.62905 4.25154 6.63846 4.25374 6.648 4.25374C6.65754 4.25374 6.66695 4.25154 6.6755 4.24731L7.6615 3.77031C7.6825 3.76031 7.713 3.74531 7.7135 3.72231L7.71 3.20581C7.71 3.18231 7.6865 3.13081 7.665 3.12081L5.5995 2.13531Z" fill="white"/>
</svg>
