<svg width="51" height="53" viewBox="0 0 51 53" fill="none" xmlns="http://www.w3.org/2000/svg">
<path d="M25.4936 44.1226C34.8844 44.1226 42.497 36.2114 42.497 26.4524C42.497 16.6934 34.8844 8.78223 25.4936 8.78223C16.1029 8.78223 8.49023 16.6934 8.49023 26.4524C8.49023 36.2114 16.1029 44.1226 25.4936 44.1226Z" fill="#7C4DFF"/>
<path d="M5.76919 22.9444L6.23414 23.0252L6.38629 22.0799L6.98868 22.1846L6.83653 23.1299L7.35 23.2192L7.5224 22.1478L8.15716 22.2581L7.85222 24.153L5.00195 23.6576L5.30686 21.7627L5.94162 21.873L5.76919 22.9444Z" fill="#CDCDCD"/>
<path d="M6.52523 17.6626L9.25963 18.6344L8.99965 19.4244L7.4909 18.8882L8.82324 19.9605L8.60572 20.6216L6.90756 20.6213L8.42796 21.1616L8.168 21.9517L5.43359 20.9799L5.74797 20.0246L7.75912 19.9425L6.21218 18.6139L6.52523 17.6626Z" fill="#CDCDCD"/>
<path d="M9.22426 15.6351C9.31256 15.787 9.35608 15.9625 9.34943 16.1399C9.33977 16.3542 9.27963 16.5628 9.17429 16.7473L8.98219 17.1091L9.83634 17.599L9.44813 18.33L6.91797 16.8789L7.49829 15.7861C7.59181 15.5972 7.72673 15.4337 7.89217 15.3089C8.03112 15.206 8.19675 15.1493 8.36732 15.146C8.54194 15.1464 8.7134 15.1944 8.86457 15.2852C9.01175 15.3673 9.13574 15.4879 9.22426 15.6351ZM8.46843 16.0311C8.28423 15.9255 8.13733 15.9759 8.0277 16.1822L7.8732 16.4731L8.4223 16.788L8.5768 16.4971C8.68637 16.2908 8.65024 16.1355 8.46843 16.0311Z" fill="#CDCDCD"/>
<path d="M10.9257 15.4276C10.6898 15.5319 10.4312 15.5679 10.1773 15.5318C9.91278 15.4894 9.66313 15.3774 9.45203 15.2064C9.24093 15.0355 9.0754 14.8113 8.97118 14.5552C8.87544 14.3085 8.84633 14.0394 8.88699 13.7769C8.93046 13.5096 9.03714 13.2578 9.19743 13.044C9.35772 12.8303 9.56661 12.6612 9.80532 12.5521C10.0398 12.448 10.2972 12.4127 10.5496 12.45C10.8136 12.4937 11.0627 12.6062 11.2736 12.777C11.4845 12.9477 11.6504 13.1712 11.7557 13.4266C11.8523 13.6728 11.8824 13.9418 11.8428 14.2045C11.8008 14.4719 11.6948 14.7241 11.5346 14.9378C11.3743 15.1516 11.165 15.32 10.9257 15.4276ZM11.0862 13.9349C11.0537 13.7519 10.949 13.5888 10.7722 13.4457C10.5911 13.2991 10.4118 13.2321 10.2342 13.2449C10.0566 13.2577 9.90476 13.3481 9.77879 13.5161C9.65113 13.6864 9.60347 13.862 9.63581 14.043C9.66816 14.224 9.77486 14.3878 9.95591 14.5344C10.1349 14.6793 10.3127 14.7459 10.4894 14.7342C10.6662 14.7226 10.8184 14.6317 10.9461 14.4613C11.0721 14.2933 11.1188 14.1178 11.0862 13.9349Z" fill="#CDCDCD"/>
<path d="M13.7777 8.47119L15.1073 11.2376L14.3542 11.902L12.9051 10.7665L13.7417 12.4424L12.9886 13.1068L10.584 11.2887L11.2465 10.7043L12.7814 12.0435L11.8496 10.1722L12.5215 9.57949L14.127 10.834L13.1152 9.05565L13.7777 8.47119Z" fill="#CDCDCD"/>
<path d="M15.4612 8.27921L15.6977 8.70298L16.4955 8.22223L16.8019 8.77134L16.004 9.25213L16.2651 9.72011L17.1694 9.17527L17.4922 9.75385L15.8929 10.7175L14.4434 8.11941L16.0427 7.15576L16.3655 7.73435L15.4612 8.27921Z" fill="#CDCDCD"/>
<path d="M19.1146 9.02085L18.1771 8.22507L18.0976 8.25923L18.5047 9.28283L17.7622 9.60178L16.6582 6.8264L17.8287 6.32349C18.0145 6.23686 18.2171 6.1964 18.4204 6.20531C18.5883 6.21422 18.7498 6.27479 18.8845 6.37933C19.0159 6.48466 19.1177 6.62486 19.179 6.78519C19.2531 6.96229 19.2701 7.15957 19.2274 7.34754C19.1779 7.54396 19.0666 7.71752 18.9112 7.84058L19.9442 8.66444L19.1146 9.02085ZM17.8877 7.73173L18.2552 7.57387C18.3561 7.53048 18.422 7.473 18.4527 7.40143C18.4678 7.36146 18.4746 7.31866 18.4729 7.27577C18.4711 7.23288 18.4607 7.19086 18.4423 7.15239C18.4289 7.11273 18.4076 7.07645 18.3798 7.04591C18.352 7.01537 18.3183 6.99125 18.2809 6.97512C18.1963 6.94687 18.1045 6.95406 18.025 6.99513L17.6575 7.15299L17.8877 7.73173Z" fill="#CDCDCD"/>
<path d="M20.3999 6.13069L20.5201 6.60436L21.412 6.35998L21.5677 6.97374L20.6758 7.21813L20.8086 7.74122L21.8193 7.4643L21.9834 8.11101L20.1958 8.60083L19.459 5.69687L21.2466 5.20703L21.4107 5.8537L20.3999 6.13069Z" fill="#7C4DFF"/>
<path d="M23.8924 5.00312C24.1257 5.09563 24.3279 5.25689 24.4742 5.46713C24.6255 5.68928 24.7184 5.94863 24.7436 6.21952C24.778 6.48818 24.7436 6.76153 24.6439 7.01197C24.5459 7.25198 24.3842 7.45804 24.1777 7.60611C23.9497 7.76765 23.6859 7.86646 23.4112 7.89328L22.2751 8.02966L21.9434 5.04634L23.0794 4.90991C23.3537 4.87052 23.633 4.90254 23.8924 5.00312ZM23.7963 6.90362C23.9145 6.75507 23.9602 6.55947 23.9333 6.31681C23.906 6.07139 23.8183 5.88967 23.6704 5.77163C23.5225 5.65359 23.3318 5.60859 23.0983 5.63662L22.8214 5.66988L22.9918 7.20178L23.2687 7.16848C23.5021 7.14046 23.678 7.05215 23.7963 6.90362Z" fill="#7C4DFF"/>
<path d="M29.0932 7.46116L29.9753 7.63476L29.8609 8.26259L28.1895 7.93371L28.7271 4.98291L29.5165 5.13827L29.0932 7.46116Z" fill="#CDCDCD"/>
<path d="M31.523 6.34242L31.3828 6.81014L32.2634 7.09515L32.0818 7.70115L31.2012 7.41614L31.0464 7.93268L32.0443 8.25574L31.853 8.89425L30.0879 8.32295L30.9473 5.45557L32.7124 6.02688L32.521 6.66545L31.523 6.34242Z" fill="#CDCDCD"/>
<path d="M33.9947 9.36197L33.0705 8.90184L32.7264 9.27364L31.9648 8.89443L34.1637 6.65918L34.9991 7.07518L34.6967 10.2548L33.9315 9.87374L33.9947 9.36197ZM34.0793 8.69559L34.2022 7.6798L33.5211 8.41761L34.0793 8.69559Z" fill="#CDCDCD"/>
<path d="M36.0208 11.2286L36.1539 9.9783L36.083 9.92751L35.4776 10.839L34.8164 10.3648L36.4579 7.89307L37.5004 8.64077C37.6713 8.75567 37.8141 8.91037 37.9175 9.09259C38.0015 9.24385 38.0404 9.41766 38.0292 9.59193C38.0156 9.76388 37.9576 9.92886 37.8614 10.0695C37.7587 10.2304 37.6086 10.3525 37.4336 10.4174C37.2481 10.481 37.0474 10.4783 36.8635 10.4096L36.7597 11.7585L36.0208 11.2286ZM36.395 9.45771L36.7223 9.69238C36.8122 9.75687 36.8944 9.78305 36.9689 9.77093C37.0094 9.76235 37.0477 9.74508 37.0814 9.72021C37.115 9.69534 37.1433 9.66343 37.1644 9.62652C37.1892 9.59324 37.2069 9.55492 37.2164 9.51406C37.226 9.4732 37.2271 9.43071 37.2199 9.38935C37.1967 9.30023 37.141 9.22403 37.0645 9.17701L36.7373 8.94229L36.395 9.45771Z" fill="#CDCDCD"/>
<path d="M38.8927 13.8309L38.3111 13.2549L38.6509 11.2728L37.5367 12.4878L36.9551 11.9118L38.9489 9.73779L39.5305 10.3138L39.1765 12.3113L40.3049 11.0809L40.8865 11.6569L38.8927 13.8309Z" fill="#CDCDCD"/>
<path d="M41.8477 12.8857L39.6217 14.801L39.1094 14.1579L41.3354 12.2427L41.8477 12.8857Z" fill="#CDCDCD"/>
<path d="M41.3432 17.4218L40.9072 16.7204L41.6832 14.8758L40.3266 15.7866L39.8906 15.0853L42.3179 13.4556L42.7539 14.1568L41.9608 16.0131L43.3346 15.0907L43.7706 15.792L41.3432 17.4218Z" fill="#CDCDCD"/>
<path d="M44.015 18.7065C44.0665 18.632 44.0966 18.5438 44.1017 18.4522C44.106 18.3499 44.0868 18.2481 44.0457 18.155C43.9659 17.9619 43.8428 17.8368 43.6764 17.7798C43.51 17.7226 43.3252 17.7395 43.1218 17.8304C42.8933 17.9324 42.744 18.0694 42.6738 18.2414C42.6036 18.4133 42.6155 18.6128 42.7093 18.8399C42.8205 19.1086 43.0165 19.2482 43.2975 19.2588L42.9787 18.4878L43.5097 18.2506L44.102 19.6831L43.3865 20.0026C43.2146 20.0043 43.0438 19.9746 42.8818 19.915C42.7019 19.8484 42.5369 19.7447 42.3965 19.6101C42.2359 19.4559 42.1098 19.2669 42.0271 19.0564C41.9163 18.8027 41.8708 18.5235 41.895 18.2461C41.9191 17.9879 42.0144 17.7425 42.1694 17.5393C42.3391 17.3279 42.5544 17.1611 42.7979 17.0524C43.0413 16.9437 43.306 16.8962 43.5704 16.9137C43.8184 16.9366 44.0549 17.0329 44.2518 17.1913C44.4619 17.3633 44.6252 17.5891 44.7258 17.8467C44.8693 18.1936 44.9076 18.5165 44.8408 18.8153C44.776 19.1111 44.6021 19.3686 44.3565 19.5324L44.015 18.7065Z" fill="#CDCDCD"/>
<path d="M42.9163 20.8323C43.017 20.5734 43.2095 20.397 43.4938 20.3031L43.7083 21.1651C43.6283 21.1869 43.5596 21.24 43.5166 21.3134C43.4889 21.379 43.482 21.452 43.4967 21.5219C43.5114 21.5918 43.5471 21.6551 43.5986 21.7027C43.6219 21.7216 43.6492 21.7345 43.6782 21.7401C43.7073 21.7457 43.7372 21.7439 43.7654 21.7349C43.8049 21.7249 43.8409 21.7036 43.8693 21.6734C43.8977 21.6432 43.9174 21.6053 43.9261 21.5641C43.9578 21.4236 43.976 21.2801 43.9805 21.1359C43.9896 20.9655 44.0104 20.7959 44.0426 20.6286C44.0724 20.4922 44.1319 20.3648 44.2167 20.2562C44.3049 20.1401 44.4377 20.0582 44.615 20.0106C44.7782 19.9616 44.9522 19.9672 45.1122 20.0266C45.2676 20.0886 45.4024 20.196 45.5004 20.3359C45.6133 20.4957 45.6945 20.6773 45.7392 20.8701C45.8233 21.2082 45.8145 21.4988 45.7126 21.7418C45.6107 21.9848 45.424 22.1501 45.1523 22.2378L44.9337 21.3594C44.9695 21.3513 45.0032 21.3353 45.0326 21.3126C45.062 21.2899 45.0864 21.261 45.1042 21.2277C45.1342 21.161 45.1394 21.0852 45.1189 21.0147C45.1074 20.9596 45.0756 20.9113 45.0304 20.8801C45.0063 20.8653 44.9795 20.8561 44.9517 20.8529C44.9239 20.8498 44.8958 20.8528 44.8692 20.8619C44.8433 20.8687 44.819 20.8812 44.7982 20.8986C44.7773 20.9159 44.7602 20.9378 44.7482 20.9626C44.7187 21.0206 44.6985 21.0832 44.6885 21.148C44.6764 21.2187 44.6646 21.3216 44.6531 21.4567C44.6423 21.6262 44.6198 21.7947 44.5859 21.9609C44.5554 22.0981 44.4964 22.2266 44.4129 22.3375C44.3178 22.4591 44.1857 22.5434 44.0384 22.5767C43.8806 22.6217 43.7137 22.6184 43.5576 22.5673C43.3982 22.5123 43.2571 22.4113 43.1507 22.2762C43.0251 22.1163 42.9365 21.9287 42.8914 21.7278C42.8073 21.3895 42.8156 21.0911 42.9163 20.8323Z" fill="#CDCDCD"/>
<path d="M6.00832 32.538L6.21621 33.1475L6.0023 33.2263L5.69727 32.3321L7.39411 31.707L7.49123 31.9918L6.00832 32.538Z" fill="#DBD5D5"/>
<path d="M7.21276 34.4826L6.78602 33.4502C6.65526 33.5143 6.57262 33.5964 6.53811 33.6964C6.50358 33.797 6.50848 33.9077 6.55175 34.0046C6.58388 34.0897 6.64184 34.1615 6.71683 34.2093C6.78549 34.2526 6.86785 34.2661 6.94603 34.2468L7.06882 34.5439C6.97305 34.5671 6.87324 34.5654 6.77827 34.5388C6.6833 34.5123 6.5961 34.4618 6.52444 34.3918C6.44404 34.3143 6.38075 34.2195 6.33889 34.1141C6.28697 33.9951 6.26536 33.8643 6.27614 33.7341C6.28791 33.6106 6.33393 33.4934 6.40862 33.3966C6.49517 33.2915 6.60376 33.2085 6.72602 33.154C6.84828 33.0994 6.98096 33.0747 7.11386 33.0818C7.23281 33.0921 7.34631 33.1381 7.44059 33.2142C7.53688 33.2976 7.61294 33.4034 7.66263 33.5231C7.71232 33.6427 7.73424 33.7728 7.72662 33.9028C7.71641 34.0202 7.67409 34.1322 7.60464 34.2254C7.53304 34.3206 7.43898 34.3949 7.33159 34.4411C7.29329 34.4587 7.25351 34.4726 7.21276 34.4826ZM7.4163 34.0182C7.45826 33.963 7.48277 33.8956 7.48645 33.8253C7.48974 33.7543 7.47707 33.6834 7.44945 33.6184C7.41097 33.5167 7.33617 33.4343 7.24067 33.3886C7.14639 33.3441 7.03546 33.3465 6.90785 33.3958L7.22289 34.1579C7.29854 34.1308 7.36549 34.0824 7.4163 34.0182Z" fill="#DBD5D5"/>
<path d="M8.37496 35.2655C8.36296 35.3766 8.31732 35.4808 8.24463 35.5632L8.53255 35.4034L8.66953 35.6699L7.43019 36.3578L7.29322 36.0913L7.58111 35.9315C7.47482 35.9485 7.36608 35.9299 7.27058 35.8786C7.16812 35.822 7.08526 35.7335 7.03359 35.6256C6.97763 35.521 6.95065 35.4023 6.95567 35.2827C6.96228 35.1638 7.00192 35.0495 7.06979 34.9535C7.15099 34.8451 7.25323 34.7556 7.36986 34.6908C7.4865 34.6261 7.61492 34.5876 7.74681 34.5778C7.86129 34.5725 7.97478 34.6018 8.07355 34.6622C8.17194 34.7244 8.25184 34.8137 8.30439 34.9201C8.36202 35.0248 8.3867 35.1456 8.37496 35.2655ZM7.86647 34.9034C7.75728 34.8729 7.63897 34.893 7.51153 34.9637C7.38407 35.0345 7.3022 35.1255 7.26591 35.2367C7.24813 35.2936 7.24223 35.3537 7.24859 35.4131C7.25496 35.4725 7.27344 35.5299 7.30281 35.5813C7.338 35.6524 7.39123 35.7122 7.45675 35.7542C7.52155 35.7949 7.59596 35.816 7.67165 35.8152C7.75617 35.8118 7.83885 35.7885 7.91345 35.7471C7.98806 35.7056 8.05266 35.6472 8.10238 35.5761C8.1457 35.5111 8.1706 35.4349 8.17425 35.3559C8.17711 35.276 8.15889 35.1968 8.12155 35.1268C8.09675 35.0729 8.06117 35.0251 8.01719 34.9865C7.97321 34.948 7.92183 34.9196 7.86647 34.9034Z" fill="#DBD5D5"/>
<path d="M9.05902 36.4253C9.15448 36.4767 9.2343 36.5546 9.28953 36.6505L9.02158 36.825L8.97555 36.7486C8.92172 36.6486 8.83619 36.5711 8.73354 36.5293C8.63987 36.4954 8.53254 36.5179 8.41155 36.5967L7.80863 36.9891L7.6543 36.7331L8.84502 35.958L8.99938 36.214L8.76596 36.3659C8.86707 36.3568 8.96861 36.3774 9.05902 36.4253Z" fill="#DBD5D5"/>
<path d="M9.95801 37.9098C9.93059 38.057 9.83779 38.1903 9.6796 38.3097L9.01713 38.8093L8.84635 38.5648L9.48408 38.0839C9.57401 38.0247 9.63833 37.9316 9.66347 37.8242C9.67164 37.7739 9.66943 37.7224 9.65698 37.673C9.64453 37.6237 9.62212 37.5777 9.59126 37.5381C9.56283 37.4933 9.52556 37.4554 9.48194 37.4267C9.43831 37.3981 9.38932 37.3794 9.33823 37.372C9.23744 37.3585 9.12926 37.3954 9.01369 37.4825L8.40903 37.9386L8.23828 37.6941L9.37542 36.8364L9.54615 37.0809L9.29644 37.2692C9.39751 37.2362 9.50634 37.2395 9.6054 37.2786C9.70636 37.3195 9.79334 37.3906 9.8553 37.483C9.90069 37.5424 9.93334 37.6113 9.95106 37.6849C9.96877 37.7585 9.97114 37.8352 9.95801 37.9098Z" fill="#DBD5D5"/>
<path d="M10.704 40.211L10.1887 39.6306L9.8086 39.8003L9.59766 39.5627L11.3498 38.8203L11.5764 39.0755L10.7215 40.8288L10.5106 40.5911L10.704 40.211ZM10.8136 39.9906L11.2298 39.1697L10.409 39.5348L10.8136 39.9906Z" fill="#DBD5D5"/>
<path d="M12.6753 40.9015C12.6772 41.0514 12.6123 41.2015 12.4806 41.3517L11.9294 41.9805L11.7145 41.7771L12.2452 41.1718C12.3217 41.0949 12.3665 40.9902 12.3702 40.8796C12.3683 40.8287 12.3561 40.7787 12.3343 40.733C12.3125 40.6874 12.2816 40.647 12.2437 40.6147C12.2071 40.5769 12.1632 40.5476 12.1149 40.5287C12.0666 40.5099 12.015 40.502 11.9635 40.5054C11.8621 40.5134 11.7634 40.5723 11.6673 40.682L11.1641 41.256L10.9492 41.0526L11.8954 39.9731L12.1103 40.1766L11.9025 40.4136C11.995 40.3599 12.1023 40.3402 12.2069 40.3576C12.3137 40.3764 12.4128 40.4278 12.4915 40.5052C12.5475 40.5538 12.5929 40.6143 12.6246 40.6827C12.6563 40.751 12.6736 40.8256 12.6753 40.9015Z" fill="#DBD5D5"/>
<path d="M13.2501 41.2135L12.9509 42.3299L13.8915 41.7292L14.1476 41.9351L12.2073 43.099L11.9512 42.8931L12.6203 42.5097L12.992 41.0059L13.2501 41.2135Z" fill="#DBD5D5"/>
<path d="M14.2342 43.4327L14.0925 43.6498L13.9448 43.5457C13.8209 43.4585 13.7473 43.3613 13.7238 43.254C13.7003 43.1467 13.7358 43.0207 13.8303 42.876L14.2167 42.2838L14.05 42.1663L14.1888 41.9536L14.3555 42.071L14.5516 41.7705L14.7943 41.9416L14.5983 42.2421L14.8789 42.4398L14.7401 42.6526L14.4594 42.4548L14.0702 43.0514C14.0253 43.1201 14.0066 43.1763 14.0141 43.22C14.0215 43.2636 14.0561 43.3073 14.1181 43.3509L14.2342 43.4327Z" fill="#DBD5D5"/>
<path d="M16.0369 43.3278C16.0688 43.4741 16.0354 43.6349 15.9368 43.8103L15.5236 44.5446L15.2726 44.3921L15.6703 43.6853C15.7298 43.5935 15.7527 43.4814 15.7341 43.3725C15.7221 43.3231 15.7002 43.2768 15.6697 43.2369C15.6392 43.1969 15.6009 43.1642 15.5573 43.1408C15.5139 43.1117 15.4651 43.0925 15.4141 43.0845C15.3631 43.0765 15.311 43.0799 15.2613 43.0944C15.1638 43.1242 15.079 43.2032 15.007 43.3313L14.6299 44.0015L14.3789 43.8491L15.3314 42.1562L15.5823 42.3087L15.1833 43.0178C15.263 42.9453 15.3639 42.9029 15.4697 42.8973C15.578 42.8925 15.6852 42.9213 15.7777 42.98C15.8422 43.0154 15.8987 43.0648 15.9434 43.1248C15.9881 43.1848 16.02 43.254 16.0369 43.3278Z" fill="#DBD5D5"/>
<path d="M16.7812 43.5678L16.1438 44.869L15.8848 44.7319L16.5222 43.4307L16.7812 43.5678ZM16.7719 42.9443C16.8199 42.9308 16.8711 42.9376 16.9143 42.9632C16.9599 42.9847 16.9956 43.0239 17.0139 43.0724C17.0221 43.0947 17.0255 43.1186 17.0239 43.1424C17.0224 43.1662 17.0159 43.1894 17.005 43.2104C16.9954 43.2317 16.9814 43.2505 16.9639 43.2654C16.9464 43.2803 16.926 43.291 16.904 43.2967C16.8556 43.3081 16.8048 43.3003 16.7616 43.2749C16.7167 43.2539 16.6811 43.2159 16.662 43.1686C16.6539 43.1468 16.6505 43.1234 16.652 43.1001C16.6535 43.0768 16.66 43.0541 16.6709 43.0336C16.6807 43.0121 16.6948 42.9931 16.7122 42.9777C16.7296 42.9623 16.7499 42.9509 16.7719 42.9443Z" fill="#DBD5D5"/>
<path d="M18.1023 44.3498C18.1503 44.4913 18.1351 44.655 18.0567 44.8411L17.7283 45.6203L17.462 45.4991L17.7781 44.7491C17.8269 44.6508 17.8371 44.5366 17.8065 44.4307C17.7891 44.383 17.7621 44.3398 17.7273 44.3037C17.6926 44.2677 17.6509 44.2398 17.605 44.2218C17.5587 44.1982 17.5081 44.185 17.4565 44.1833C17.4049 44.1815 17.3536 44.1911 17.3059 44.2115C17.2124 44.2528 17.1369 44.3415 17.0797 44.4774L16.7799 45.1887L16.5137 45.0675L17.0773 43.73L17.3436 43.8512L17.2198 44.1449C17.2909 44.0632 17.3864 44.0088 17.4909 43.9905C17.5979 43.9727 17.7076 43.9884 17.806 44.0355C17.8741 44.063 17.9357 44.1052 17.9868 44.1594C18.0379 44.2136 18.0773 44.2785 18.1023 44.3498Z" fill="#DBD5D5"/>
<path d="M19.4029 44.7742C19.4672 44.8638 19.5024 44.9723 19.5036 45.084L19.6086 44.7629L19.8839 44.8601L19.4268 46.2576C19.3902 46.3773 19.3256 46.4858 19.2388 46.5733C19.157 46.6541 19.0545 46.7087 18.9436 46.7307C18.8209 46.7532 18.6946 46.7415 18.5777 46.6966C18.3909 46.6307 18.2551 46.5314 18.1701 46.3987C18.0851 46.2664 18.0516 46.1056 18.0762 45.9486L18.3491 46.0449C18.3435 46.1301 18.3675 46.2145 18.4167 46.2829C18.4741 46.3575 18.5522 46.4119 18.6404 46.4389C18.6893 46.4582 18.7415 46.4673 18.7938 46.4656C18.8461 46.4639 18.8976 46.4514 18.9453 46.4289C19.039 46.3837 19.1078 46.2942 19.1516 46.1604L19.2616 45.8242C19.1951 45.9121 19.1036 45.9758 19.0001 46.0062C18.8881 46.0377 18.7694 46.032 18.6607 45.9899C18.551 45.9532 18.4533 45.8858 18.3783 45.7949C18.3049 45.7035 18.2586 45.5918 18.245 45.4736C18.233 45.3367 18.2487 45.1988 18.2912 45.0687C18.3338 44.9386 18.4022 44.8192 18.492 44.7184C18.5721 44.6332 18.6743 44.574 18.7861 44.548C18.8988 44.5234 19.0158 44.5318 19.1242 44.5722C19.2351 44.6076 19.3326 44.6783 19.4029 44.7742ZM18.7935 44.871C18.6938 44.9263 18.6206 45.025 18.5742 45.1672C18.5277 45.3094 18.5278 45.434 18.5745 45.5409C18.5989 45.5951 18.6341 45.6432 18.6779 45.682C18.7216 45.7209 18.7728 45.7496 18.828 45.7663C18.9005 45.7932 18.9787 45.799 19.0541 45.7831C19.1282 45.7668 19.1964 45.7293 19.2511 45.675C19.3105 45.6124 19.3555 45.5367 19.3828 45.4535C19.41 45.3703 19.4187 45.2817 19.4082 45.1945C19.3971 45.1163 19.3651 45.0429 19.3159 44.9827C19.2654 44.9224 19.2 44.8775 19.1267 44.8529C19.0731 44.8312 19.0157 44.8215 18.9582 44.8247C18.9008 44.8278 18.8447 44.8436 18.7935 44.871Z" fill="#DBD5D5"/>
<path d="M20.0326 46.4572C20.0135 46.5423 19.9661 46.6177 19.8987 46.6701C19.8634 46.6937 19.8233 46.7085 19.7816 46.7133C19.7399 46.7182 19.6977 46.713 19.6582 46.6981L19.6897 46.5807C19.7059 46.5869 19.7231 46.5895 19.7403 46.5883C19.7575 46.5871 19.7743 46.5822 19.7895 46.5738C19.8209 46.5479 19.8421 46.511 19.8491 46.47L19.8553 46.4471L19.7128 46.4058L19.7882 46.125L20.0534 46.2018C20.062 46.2876 20.0549 46.3742 20.0326 46.4572Z" fill="#DBD5D5"/>
<path d="M22.1102 46.6422C22.0506 46.7132 21.9724 46.7645 21.8851 46.7897C21.7786 46.8197 21.6667 46.8221 21.5591 46.7966C21.4478 46.7762 21.3419 46.7313 21.2486 46.665C21.1659 46.6065 21.0993 46.5265 21.0557 46.433C21.0137 46.341 20.9978 46.2385 21.0097 46.1375L21.3151 46.1993C21.3081 46.2795 21.3296 46.3597 21.3754 46.4247C21.4012 46.4605 21.4335 46.4906 21.4705 46.5134C21.5074 46.5361 21.5484 46.5511 21.5909 46.5574C21.627 46.5672 21.6646 46.5694 21.7016 46.5639C21.7385 46.5585 21.774 46.5453 21.806 46.5254C21.8343 46.5058 21.8583 46.4803 21.8767 46.4505C21.895 46.4208 21.9072 46.3874 21.9125 46.3525C21.9258 46.2939 21.9179 46.2323 21.8904 46.1793C21.8627 46.1291 21.8246 46.0859 21.779 46.0528C21.7318 46.0181 21.6661 45.976 21.5818 45.9266C21.495 45.8788 21.4119 45.8241 21.3332 45.7628C21.2699 45.7113 21.2196 45.6447 21.1865 45.5685C21.15 45.4774 21.1425 45.3766 21.165 45.2807C21.1804 45.1884 21.2217 45.1028 21.2838 45.0348C21.3473 44.968 21.4282 44.922 21.5165 44.9023C21.6192 44.879 21.7255 44.8789 21.8283 44.902C22.0085 44.9384 22.1432 45.0124 22.2322 45.124C22.2758 45.1777 22.3085 45.2399 22.3283 45.307C22.3481 45.3741 22.3546 45.4447 22.3474 45.5145L22.0395 45.4522C22.0411 45.3813 22.0198 45.3119 21.9791 45.255C21.931 45.1914 21.8611 45.1496 21.7839 45.1387C21.7151 45.121 21.6424 45.1298 21.5793 45.1634C21.5503 45.1813 21.5256 45.2057 21.5071 45.2349C21.4886 45.2642 21.4767 45.2974 21.4723 45.3321C21.4598 45.3879 21.4672 45.4466 21.4934 45.497C21.5202 45.5456 21.5572 45.5873 21.6018 45.6188C21.6483 45.6525 21.7128 45.6939 21.7954 45.743C21.884 45.7912 21.9687 45.8467 22.0488 45.909C22.1135 45.9617 22.1649 46.03 22.1986 46.108C22.2355 46.2018 22.243 46.3054 22.2198 46.4039C22.2039 46.4919 22.1661 46.5741 22.1102 46.6422Z" fill="#DBD5D5"/>
<path d="M23.9465 45.6552L23.7875 47.1061L23.4961 47.0715L23.5307 46.7556C23.4873 46.8544 23.4123 46.9346 23.3185 46.9825C23.2203 47.0316 23.1103 47.0497 23.0023 47.0345C22.9295 47.0291 22.8586 47.0077 22.7944 46.9716C22.7301 46.9355 22.6741 46.8855 22.63 46.825C22.544 46.7046 22.512 46.5435 22.5341 46.3416L22.6265 45.499L22.9153 45.5332L22.8264 46.3442C22.812 46.4758 22.833 46.581 22.8894 46.6597C22.9196 46.6999 22.9576 46.733 23.001 46.7567C23.0444 46.7805 23.0922 46.7944 23.1412 46.7975C23.1923 46.8059 23.2445 46.8028 23.2943 46.7885C23.3441 46.7741 23.3904 46.7489 23.4301 46.7144C23.5077 46.6453 23.5547 46.537 23.5709 46.3896L23.6551 45.6208L23.9465 45.6552Z" fill="#DBD5D5"/>
<path d="M25.3414 45.8447C25.4584 45.9506 25.5331 46.0982 25.5507 46.2585L25.2423 46.2484C25.2315 46.1623 25.1897 46.0838 25.1253 46.0285C25.0557 45.9722 24.9699 45.9418 24.8817 45.9423C24.8293 45.9392 24.7768 45.9478 24.7279 45.9675C24.6789 45.9871 24.6345 46.0174 24.5976 46.0562C24.5203 46.1359 24.4793 46.2551 24.4745 46.4141C24.4696 46.573 24.5033 46.6952 24.5756 46.7807C24.6098 46.8222 24.6522 46.8556 24.6999 46.8787C24.7476 46.9017 24.7995 46.9139 24.8521 46.9143C24.9403 46.9206 25.028 46.8954 25.1005 46.843C25.168 46.7913 25.2145 46.7153 25.2307 46.6298L25.5391 46.6399C25.5116 46.7991 25.4282 46.9419 25.305 47.0406C25.1732 47.1404 25.0118 47.1886 24.8492 47.1767C24.7235 47.1752 24.6003 47.1401 24.4914 47.0748C24.3887 47.0114 24.306 46.9185 24.2533 46.8072C24.1984 46.6812 24.172 46.5438 24.1762 46.4056C24.1804 46.2674 24.2151 46.132 24.2775 46.0099C24.337 45.9023 24.4251 45.815 24.5314 45.7585C24.6441 45.7004 24.7692 45.6735 24.8948 45.6802C25.0576 45.679 25.2156 45.7373 25.3414 45.8447Z" fill="#DBD5D5"/>
<path d="M26.9042 45.7916C27.0291 45.8874 27.115 46.0283 27.1449 46.1866L26.8367 46.2023C26.8193 46.1174 26.7715 46.0426 26.7031 45.9928C26.6294 45.9425 26.5415 45.9193 26.4536 45.9272C26.4011 45.9286 26.3495 45.9415 26.3022 45.9652C26.2549 45.9888 26.213 46.0227 26.1792 46.0645C26.1084 46.1503 26.0767 46.2727 26.0842 46.4315C26.0916 46.5903 26.1346 46.7093 26.2133 46.7884C26.2506 46.8269 26.2955 46.8567 26.3448 46.8757C26.3941 46.8947 26.4468 46.9025 26.4993 46.8986C26.5877 46.8975 26.6731 46.8651 26.7413 46.8067C26.8047 46.7496 26.8451 46.6699 26.8547 46.5834L27.1628 46.5677C27.1477 46.7286 27.0756 46.8779 26.9604 46.9866C26.8368 47.097 26.6797 47.1586 26.5167 47.1604C26.3912 47.1694 26.2657 47.1447 26.1521 47.0886C26.0449 47.0341 25.9552 46.9483 25.8941 46.8417C25.8296 46.7208 25.7927 46.5861 25.7862 46.4479C25.7797 46.3098 25.8038 46.172 25.8566 46.0451C25.9075 45.9329 25.9887 45.8384 26.0902 45.7732C26.198 45.706 26.3207 45.6687 26.4463 45.6649C26.6085 45.6501 26.7706 45.695 26.9042 45.7916Z" fill="#DBD5D5"/>
<path d="M28.7587 46.2322L27.6866 46.3774C27.7103 46.5256 27.7638 46.6306 27.847 46.6924C27.9307 46.7544 28.0346 46.7797 28.1361 46.7628C28.2236 46.7539 28.3059 46.7155 28.3705 46.6535C28.4294 46.5967 28.4644 46.518 28.4678 46.4346L28.7763 46.3929C28.7716 46.4949 28.7428 46.5943 28.6924 46.682C28.6419 46.7697 28.5714 46.8431 28.487 46.8957C28.3933 46.9549 28.2883 46.9924 28.1794 47.0055C28.055 47.025 27.928 47.0109 27.8104 46.9646C27.6993 46.9192 27.6033 46.8412 27.5341 46.7401C27.4604 46.625 27.4132 46.4938 27.396 46.3567C27.3788 46.2195 27.3921 46.0801 27.4349 45.9492C27.4769 45.8331 27.5504 45.7321 27.6466 45.6586C27.7501 45.5851 27.8687 45.5379 27.993 45.5208C28.1173 45.5038 28.2437 45.5173 28.362 45.5603C28.4679 45.6026 28.5601 45.6754 28.6275 45.7703C28.7187 45.9052 28.7648 46.0674 28.7587 46.2322ZM28.3843 45.9021C28.3446 45.8451 28.2889 45.8022 28.2249 45.7794C28.16 45.7567 28.0909 45.7501 28.0232 45.76C27.9185 45.7707 27.8219 45.8231 27.7535 45.9061C27.6866 45.9882 27.6586 46.0997 27.6695 46.2408L28.4609 46.1336C28.4565 46.0505 28.4299 45.9704 28.3843 45.9021Z" fill="#DBD5D5"/>
<path d="M30.3463 45.8904L29.289 46.1253C29.3242 46.271 29.3857 46.3712 29.4734 46.4258C29.5617 46.4805 29.6671 46.4969 29.767 46.4716C29.8535 46.4553 29.9326 46.4102 29.9922 46.3431C30.0465 46.2815 30.0752 46.2001 30.0721 46.1167L30.3763 46.0491C30.3796 46.1513 30.3586 46.2527 30.3152 46.3443C30.2717 46.436 30.2071 46.5151 30.1272 46.5746C30.0383 46.6415 29.9366 46.6877 29.829 46.7099C29.7066 46.7397 29.5789 46.7364 29.458 46.7002C29.3438 46.6642 29.2421 46.5945 29.1652 46.4996C29.0828 46.391 29.0255 46.2642 28.9977 46.129C28.9699 45.9937 28.9723 45.8537 29.0048 45.7196C29.0377 45.6003 29.1031 45.4935 29.1932 45.4122C29.2906 45.3302 29.4053 45.2732 29.5278 45.2457C29.6503 45.2183 29.7774 45.2211 29.8987 45.2541C30.0075 45.2873 30.105 45.3522 30.1796 45.4411C30.281 45.5679 30.3396 45.7257 30.3463 45.8904ZM29.9475 45.5929C29.9035 45.5394 29.8447 45.5014 29.779 45.484C29.7126 45.4668 29.6433 45.466 29.5765 45.4815C29.473 45.501 29.3808 45.5613 29.319 45.6498C29.2588 45.7373 29.2395 45.8509 29.2613 45.9906L30.0419 45.8172C30.031 45.7348 29.9983 45.6571 29.9475 45.5929Z" fill="#DBD5D5"/>
<path d="M31.3198 44.857C31.4219 44.8906 31.5108 44.9579 31.5729 45.0486L31.3382 44.2447L31.6189 44.1562L32.1667 46.0327L31.8861 46.1212L31.7913 45.7966C31.7882 45.9079 31.7503 46.0151 31.6833 46.1021C31.61 46.1955 31.5104 46.2628 31.3984 46.2944C31.2888 46.3311 31.1715 46.3355 31.0597 46.307C30.9487 46.2772 30.8485 46.2145 30.7712 46.1266C30.6846 46.0227 30.62 45.9011 30.5816 45.7696C30.5433 45.6381 30.5319 45.4997 30.5483 45.3633C30.5656 45.2456 30.6154 45.1356 30.6917 45.0467C30.7695 44.9585 30.8694 44.8945 30.9801 44.8616C31.0901 44.8233 31.2089 44.8217 31.3198 44.857ZM30.879 45.3048C30.8289 45.4102 30.8248 45.5347 30.8668 45.6783C30.9087 45.8221 30.9787 45.9232 31.0767 45.9819C31.1268 46.0111 31.1825 46.0288 31.2398 46.0339C31.2971 46.039 31.3548 46.0313 31.409 46.0114C31.483 45.9894 31.5498 45.9468 31.6022 45.8882C31.6532 45.83 31.6876 45.7583 31.7016 45.681C31.7149 45.5942 31.709 45.5053 31.6844 45.4212C31.6599 45.3371 31.6173 45.2599 31.5598 45.1954C31.507 45.1385 31.4399 45.0983 31.3661 45.0792C31.2912 45.0607 31.2128 45.0639 31.1395 45.0883C31.0838 45.1031 31.0317 45.13 30.9868 45.1674C30.9419 45.2047 30.9051 45.2515 30.879 45.3048Z" fill="#DBD5D5"/>
<path d="M32.8182 44.0297L33.031 44.5518L33.6415 44.283L33.7291 44.4978L33.1186 44.7665L33.3364 45.3009L34.0174 45.0011L34.1099 45.228L33.1613 45.6457L32.459 43.923L33.4076 43.5054L33.4991 43.7299L32.8182 44.0297Z" fill="#DBD5D5"/>
<path d="M34.8026 44.5271L34.6573 43.3168L34.9347 43.1704L35.0935 44.7243L34.7798 44.8899L33.666 43.8401L33.9434 43.6937L34.8026 44.5271Z" fill="#DBD5D5"/>
<path d="M36.6007 43.0442L35.6776 43.6291C35.7572 43.7545 35.8471 43.828 35.9472 43.8494C36.048 43.8706 36.1527 43.8499 36.239 43.7917C36.3154 43.7466 36.3757 43.6769 36.4106 43.593C36.4422 43.5162 36.4434 43.4296 36.4139 43.3519L36.6795 43.1836C36.7152 43.2788 36.7276 43.3817 36.7158 43.4832C36.7039 43.5846 36.6681 43.6815 36.6116 43.7651C36.5491 43.8588 36.4678 43.9373 36.3733 43.9953C36.2673 44.0655 36.1457 44.1063 36.0202 44.1136C35.9009 44.1189 35.7827 44.0881 35.6799 44.025C35.5676 43.9508 35.4732 43.8508 35.4039 43.7328C35.3346 43.6147 35.2924 43.4817 35.2803 43.3439C35.2734 43.2201 35.3012 43.0969 35.3603 42.9891C35.4262 42.8783 35.5162 42.7851 35.6231 42.717C35.73 42.649 35.8508 42.6081 35.9758 42.5975C36.0891 42.5914 36.2018 42.6191 36.3004 42.6774C36.4364 42.7622 36.542 42.8911 36.6008 43.0442L36.6007 43.0442ZM36.1296 42.9005C36.0711 42.865 36.0034 42.8493 35.936 42.8555C35.8678 42.8622 35.8021 42.8852 35.744 42.9228C35.6526 42.9768 35.5847 43.0654 35.5546 43.1701C35.5256 43.2734 35.5436 43.3872 35.6086 43.5115L36.29 43.0797C36.2536 43.0056 36.198 42.9436 36.1296 42.9005Z" fill="#DBD5D5"/>
<path d="M36.8633 41.9584C36.9074 41.8566 36.978 41.7695 37.0671 41.707L37.2492 41.9757L37.1784 42.0276C37.0852 42.0889 37.0154 42.1818 36.9808 42.2906C36.9533 42.3896 36.9806 42.4998 37.0629 42.6211L37.4726 43.2255L37.2349 43.3994L36.4258 42.2058L36.6634 42.0318L36.822 42.2658C36.8078 42.1613 36.8221 42.0548 36.8633 41.9584Z" fill="#DBD5D5"/>
<path d="M37.3676 41.4977L38.3429 42.0596L37.9993 40.9693L38.2516 40.7583L38.8899 42.99L38.6376 43.201L38.4343 42.4355L37.1133 41.7103L37.3676 41.4977Z" fill="#DBD5D5"/>
<path d="M39.7911 39.2261L40.4906 40.5558L40.2601 40.7885L39.2544 40.2301L39.7591 41.2945L39.5305 41.5254L38.2715 40.7608L38.4818 40.5484L39.4664 41.2021L38.9261 40.0996L39.1456 39.8781L40.1942 40.467L39.5936 39.4255L39.7911 39.2261Z" fill="#DBD5D5"/>
<path d="M40.7573 38.2394C40.9015 38.2319 41.0482 38.2938 41.1975 38.4249L41.8225 38.9742L41.6348 39.2048L41.0331 38.6761C40.9564 38.5994 40.854 38.5568 40.7476 38.5571C40.6987 38.5608 40.6511 38.5753 40.608 38.5997C40.5648 38.624 40.5272 38.6576 40.4975 38.6982C40.4625 38.7376 40.4359 38.7842 40.4196 38.8351C40.4033 38.8859 40.3975 38.9398 40.4027 38.9931C40.4142 39.0981 40.4744 39.1985 40.5835 39.2943L41.154 39.7957L40.9662 40.0264L39.5254 38.7601L39.7131 38.5294L40.3167 39.0599C40.2617 38.9658 40.2388 38.8551 40.2516 38.7458C40.2658 38.6342 40.3115 38.5294 40.3831 38.4449C40.4277 38.3849 40.4843 38.3355 40.5488 38.3001C40.6134 38.2646 40.6845 38.2439 40.7573 38.2394Z" fill="#DBD5D5"/>
<path d="M42.3121 37.1351L41.6843 38.0499C41.8049 38.1328 41.9153 38.1636 42.0155 38.1424C42.1162 38.1208 42.2047 38.059 42.262 37.9703C42.3153 37.8976 42.3443 37.8089 42.3447 37.7175C42.3447 37.634 42.3131 37.5538 42.2566 37.4944L42.4372 37.2311C42.506 37.3042 42.5564 37.3938 42.5838 37.4919C42.6113 37.59 42.615 37.6937 42.5946 37.7937C42.5725 37.9054 42.5274 38.0108 42.4625 38.1026C42.3915 38.2105 42.295 38.2976 42.1823 38.3556C42.0747 38.4092 41.9544 38.4291 41.836 38.413C41.7047 38.3906 41.5801 38.3372 41.4718 38.2569C41.3634 38.1767 41.2742 38.0716 41.2111 37.9499C41.1579 37.8388 41.1369 37.7141 41.1505 37.5909C41.1692 37.4621 41.2167 37.3396 41.2893 37.2334C41.3619 37.1272 41.4576 37.0402 41.5685 36.9796C41.6704 36.9276 41.7845 36.9071 41.8972 36.9205C42.0544 36.9429 42.2001 37.0183 42.3121 37.1351ZM41.8245 37.1953C41.7573 37.1867 41.6892 37.1998 41.6295 37.233C41.5693 37.267 41.5176 37.315 41.4784 37.3733C41.4147 37.4603 41.3858 37.5694 41.3977 37.678C41.41 37.7848 41.4696 37.8821 41.5763 37.9699L42.0398 37.2946C41.9782 37.2414 41.9037 37.207 41.8245 37.1953Z" fill="#DBD5D5"/>
<path d="M42.1409 36.0297C42.1431 35.918 42.1751 35.8092 42.2335 35.7153L42.5025 35.8881L42.4569 35.9647C42.3944 36.0591 42.3652 36.173 42.3745 36.2872C42.3866 36.3895 42.4534 36.4797 42.5749 36.5576L43.1801 36.9464L43.0272 37.2034L41.832 36.4357L41.9848 36.1787L42.2191 36.3291C42.1666 36.2389 42.1395 36.1352 42.1409 36.0297Z" fill="#DBD5D5"/>
<path d="M43.635 34.7345L43.1281 35.727C43.2581 35.7927 43.3715 35.8082 43.4681 35.7735C43.5652 35.7384 43.6452 35.665 43.6908 35.5692C43.7344 35.4899 43.752 35.398 43.7408 35.3073C43.7303 35.2245 43.6888 35.1494 43.6253 35.0981L43.7712 34.8126C43.8486 34.8756 43.9098 34.9576 43.9494 35.0511C43.989 35.1446 44.0058 35.2469 43.9982 35.3488C43.9904 35.4625 43.959 35.5731 43.9062 35.6731C43.8495 35.7897 43.7649 35.8892 43.6605 35.962C43.5605 36.0298 43.4438 36.066 43.3244 36.0662C43.1914 36.0619 43.0611 36.0259 42.9436 35.9611C42.826 35.8963 42.7244 35.8043 42.6464 35.6923C42.5796 35.5894 42.543 35.4687 42.541 35.3446C42.5433 35.2144 42.5749 35.0865 42.6335 34.9713C42.6921 34.8561 42.7759 34.7569 42.8782 34.6816C42.9727 34.6163 43.0831 34.5804 43.1966 34.5781C43.3552 34.579 43.5092 34.6339 43.635 34.7345ZM43.1592 34.8606C43.0915 34.8612 43.0256 34.8835 42.9706 34.9246C42.9152 34.9664 42.87 35.0211 42.8385 35.0842C42.7864 35.1792 42.7715 35.2913 42.797 35.3974C42.8227 35.5015 42.894 35.5898 43.011 35.6623L43.3851 34.9297C43.3174 34.8854 43.2392 34.8614 43.1592 34.8606Z" fill="#DBD5D5"/>
<path d="M42.8285 33.5244L43.9892 34.1173L43.8878 34.3489L42.6953 33.8283L42.8285 33.5244ZM44.2287 34.1782L44.5211 34.3166L44.3838 34.6301L44.0913 34.4917L44.2287 34.1782Z" fill="#DBD5D5"/>
<path d="M25.4088 42.5784C33.9911 42.5784 40.9484 35.3482 40.9484 26.4293C40.9484 17.5104 33.9911 10.2803 25.4088 10.2803C16.8265 10.2803 9.86914 17.5104 9.86914 26.4293C9.86914 35.3482 16.8265 42.5784 25.4088 42.5784Z" fill="white"/>
<path d="M25.409 42.7106C21.5373 42.7055 17.8055 41.2061 14.9375 38.5033C12.0694 35.8006 10.2695 32.0871 9.887 28.0833C9.50447 24.0795 10.5665 20.0708 12.8672 16.8347C15.1678 13.5986 18.5431 11.3659 22.3382 10.5696C26.1332 9.77334 30.0776 10.4703 33.4062 12.5253C36.7348 14.5802 39.2103 17.8468 40.3525 21.6912C41.4947 25.5356 41.2222 29.6838 39.5879 33.3313C37.9535 36.9787 35.0738 39.8653 31.5074 41.4311C29.5781 42.2797 27.5039 42.7149 25.409 42.7106ZM25.409 10.4126C16.9107 10.4126 9.99685 17.5976 9.99685 26.4291C9.99685 35.2607 16.9107 42.4456 25.409 42.4456C33.9073 42.4456 40.8211 35.2607 40.8211 26.4291C40.8211 17.5975 33.9073 10.4126 25.409 10.4126Z" fill="white"/>
<mask id="mask0_169_125" style="mask-type:luminance" maskUnits="userSpaceOnUse" x="14" y="14" width="23" height="23">
<path d="M36.2522 14.354H14.7637V36.6852H36.2522V14.354Z" fill="white"/>
</mask>
<g mask="url(#mask0_169_125)">
<path d="M28.0533 32.5295H22.9632C22.6341 32.5295 22.389 32.2573 22.389 31.8979V31.7444C22.389 30.4394 21.8686 29.1658 20.9251 28.1539C20.3181 27.5073 19.8456 26.7377 19.5372 25.8931C19.2287 25.0485 19.0908 24.1469 19.1322 23.2446C19.2732 19.8495 21.9425 17.0686 25.206 16.915C26.4901 16.8523 27.7624 17.194 28.8564 17.8954C29.9505 18.5968 30.8152 19.6252 31.3374 20.8459C31.8595 22.0666 32.0148 23.4227 31.7829 24.7366C31.551 26.0506 30.9427 27.2611 30.0376 28.2098C29.1277 29.1623 28.624 30.3766 28.624 31.6257V31.9363C28.6241 32.0142 28.6094 32.0914 28.5807 32.1634C28.5521 32.2354 28.51 32.3008 28.457 32.3559C28.404 32.411 28.341 32.4547 28.2718 32.4844C28.2025 32.5142 28.1282 32.5295 28.0533 32.5295ZM25.5116 17.2465C25.4142 17.2465 25.3202 17.25 25.2228 17.2535C22.1271 17.4001 19.5989 20.0379 19.4646 23.255C19.4249 24.1114 19.5556 24.967 19.8485 25.7685C20.1414 26.57 20.5902 27.3001 21.1669 27.9132C22.1708 28.9879 22.7214 30.3487 22.7214 31.7409V31.8944C22.7214 32.0619 22.8255 32.184 22.9665 32.184H28.0566C28.1215 32.1836 28.1836 32.1567 28.2295 32.109C28.2754 32.0613 28.3014 31.9967 28.3017 31.9293V31.6188C28.3017 30.2789 28.8389 28.9809 29.8093 27.962C30.6512 27.0808 31.2231 25.9601 31.4528 24.7414C31.6825 23.5227 31.5597 22.2607 31.1 21.1144C30.6403 19.9682 29.8642 18.9891 28.8696 18.3007C27.875 17.6124 26.7065 17.2455 25.5116 17.2465Z" fill="black"/>
<path d="M27.5655 33.6356H23.4491C23.0394 33.6356 22.707 33.3111 22.707 32.9098C22.707 32.5121 23.0394 32.1841 23.4491 32.1841C23.4927 32.1841 23.5345 32.2021 23.5654 32.2342C23.5962 32.2662 23.6136 32.3097 23.6136 32.3551C23.6136 32.4004 23.5962 32.4439 23.5654 32.476C23.5345 32.508 23.4927 32.526 23.4491 32.526C23.2241 32.526 23.0361 32.697 23.0361 32.9064C23.0361 33.1157 23.2207 33.2867 23.4491 33.2867H27.5655C27.7938 33.2867 27.9784 33.1157 27.9784 32.9064C27.9784 32.697 27.7938 32.526 27.5655 32.526C27.5218 32.526 27.48 32.508 27.4491 32.476C27.4183 32.4439 27.4009 32.4004 27.4009 32.3551C27.4009 32.3097 27.4183 32.2662 27.4491 32.2342C27.48 32.2021 27.5218 32.1841 27.5655 32.1841C27.9751 32.1841 28.3075 32.5086 28.3075 32.9098C28.3075 33.3111 27.9751 33.6356 27.5655 33.6356Z" fill="black"/>
<path d="M27.5655 34.7382H23.4491C23.0394 34.7382 22.707 34.4137 22.707 34.0124C22.707 33.6146 23.0394 33.2866 23.4491 33.2866C23.4707 33.2865 23.4922 33.2908 23.5123 33.2994C23.5323 33.3079 23.5506 33.3205 23.5659 33.3364C23.5813 33.3523 23.5935 33.3712 23.6018 33.392C23.6101 33.4128 23.6144 33.4351 23.6144 33.4576C23.6144 33.4801 23.6101 33.5024 23.6018 33.5232C23.5935 33.544 23.5813 33.5629 23.5659 33.5788C23.5506 33.5947 23.5323 33.6073 23.5123 33.6158C23.4922 33.6244 23.4707 33.6287 23.4491 33.6286C23.2241 33.6286 23.0361 33.7995 23.0361 34.0089C23.0361 34.2183 23.2207 34.3892 23.4491 34.3892H27.5655C27.7938 34.3892 27.9784 34.2183 27.9784 34.0089C27.9784 33.7995 27.7938 33.6286 27.5655 33.6286C27.5438 33.6287 27.5223 33.6244 27.5022 33.6158C27.4822 33.6073 27.4639 33.5947 27.4486 33.5788C27.4332 33.5629 27.421 33.544 27.4127 33.5232C27.4044 33.5024 27.4001 33.4801 27.4001 33.4576C27.4001 33.4351 27.4044 33.4128 27.4127 33.392C27.421 33.3712 27.4332 33.3523 27.4486 33.3364C27.4639 33.3205 27.4822 33.3079 27.5022 33.2994C27.5223 33.2908 27.5438 33.2865 27.5655 33.2866C27.9751 33.2866 28.3075 33.6111 28.3075 34.0124C28.3075 34.4137 27.9751 34.7382 27.5655 34.7382Z" fill="black"/>
<path d="M27.4651 35.7673H23.5501C23.3747 35.7673 23.2064 35.6949 23.0824 35.566C22.9584 35.4371 22.8887 35.2623 22.8887 35.08C22.8887 34.8977 22.9584 34.7228 23.0824 34.5939C23.2064 34.465 23.3747 34.3926 23.5501 34.3926H27.4651C27.6405 34.3926 27.8087 34.465 27.9328 34.5939C28.0568 34.7228 28.1265 34.8977 28.1265 35.08C28.1265 35.2623 28.0568 35.4371 27.9328 35.566C27.8087 35.6949 27.6405 35.7673 27.4651 35.7673ZM23.5501 34.738C23.4628 34.738 23.3792 34.774 23.3174 34.8382C23.2557 34.9023 23.2211 34.9893 23.2211 35.08C23.2211 35.1707 23.2557 35.2576 23.3174 35.3218C23.3792 35.3859 23.4628 35.4219 23.5501 35.4219H27.4651C27.5523 35.4219 27.636 35.3859 27.6977 35.3218C27.7594 35.2576 27.7941 35.1707 27.7941 35.08C27.7941 34.9893 27.7594 34.9023 27.6977 34.8382C27.636 34.774 27.5523 34.738 27.4651 34.738H23.5501Z" fill="black"/>
<path d="M25.833 36.6852H25.185C24.5672 36.6852 24.0636 36.1967 24.0636 35.5965C24.0636 35.5512 24.0809 35.5077 24.1118 35.4756C24.1426 35.4436 24.1845 35.4256 24.2281 35.4256C24.2718 35.4256 24.3136 35.4436 24.3445 35.4756C24.3753 35.5077 24.3926 35.5512 24.3926 35.5965C24.3926 36.0083 24.7485 36.3397 25.185 36.3397H25.833C26.2695 36.3397 26.6254 36.0048 26.6254 35.5965C26.6254 35.5512 26.6428 35.5077 26.6736 35.4756C26.7045 35.4436 26.7463 35.4256 26.79 35.4256C26.8336 35.4256 26.8754 35.4436 26.9063 35.4756C26.9371 35.5077 26.9545 35.5512 26.9545 35.5965C26.9545 36.1967 26.4508 36.6852 25.833 36.6852ZM27.0787 32.5295C27.0571 32.5295 27.0357 32.5251 27.0158 32.5165C26.9958 32.5079 26.9777 32.4953 26.9624 32.4794C26.9471 32.4635 26.935 32.4447 26.9267 32.4239C26.9184 32.4032 26.9142 32.381 26.9142 32.3585V30.8825C26.9142 30.6174 26.7497 30.4045 26.5482 30.4045H24.4665C24.2651 30.4045 24.1005 30.6209 24.1005 30.8825V32.3585C24.1005 32.4038 24.0832 32.4473 24.0523 32.4794C24.0215 32.5114 23.9796 32.5295 23.936 32.5295C23.8924 32.5295 23.8505 32.5114 23.8197 32.4794C23.7888 32.4473 23.7715 32.4038 23.7715 32.3585V30.8825C23.7715 30.429 24.0837 30.0591 24.4699 30.0591H26.5516C26.9343 30.0591 27.2499 30.4289 27.2499 30.8825V32.3585C27.2484 32.4045 27.2296 32.4481 27.1976 32.48C27.1657 32.5119 27.123 32.5297 27.0787 32.5295Z" fill="black"/>
<path d="M24.5841 30.4045C24.5467 30.4047 24.5104 30.3916 24.4811 30.3675C24.4518 30.3434 24.4313 30.3097 24.4229 30.2719L24.1409 29.0227C24.1311 28.9783 24.1387 28.9316 24.162 28.893C24.1853 28.8544 24.2224 28.827 24.2651 28.8168C24.3079 28.8067 24.3528 28.8145 24.3899 28.8388C24.4271 28.863 24.4534 28.9015 24.4632 28.9459L24.7453 30.1951C24.7502 30.2171 24.7508 30.2399 24.7472 30.2621C24.7436 30.2844 24.7359 30.3057 24.7243 30.3249C24.7128 30.344 24.6977 30.3606 24.68 30.3736C24.6623 30.3867 24.6422 30.396 24.621 30.401C24.6089 30.4037 24.5965 30.4049 24.5841 30.4045ZM26.4308 30.4045C26.4184 30.4052 26.4059 30.404 26.3938 30.401C26.3514 30.3902 26.3147 30.3626 26.2916 30.3242C26.2684 30.2858 26.2605 30.2395 26.2696 30.1951L26.5516 28.9459C26.5616 28.9016 26.588 28.8632 26.6251 28.839C26.6622 28.8148 26.707 28.8068 26.7497 28.8168C26.7921 28.8276 26.8288 28.8552 26.852 28.8936C26.8752 28.932 26.8831 28.9783 26.874 29.0227L26.5919 30.2719C26.584 30.3099 26.5636 30.3439 26.5342 30.3681C26.5048 30.3923 26.4682 30.4051 26.4308 30.4045Z" fill="black"/>
</g>
<path d="M18.8577 19.7312C18.8281 19.7313 18.799 19.7228 18.7738 19.7068L17.9075 19.1869C17.8885 19.1759 17.8719 19.161 17.8585 19.1432C17.8452 19.1254 17.8354 19.105 17.8298 19.0832C17.8242 19.0614 17.8228 19.0387 17.8257 19.0163C17.8287 18.994 17.836 18.9725 17.8471 18.9531C17.869 18.9139 17.905 18.8853 17.9471 18.8736C17.9892 18.8618 18.0341 18.8678 18.072 18.8903L18.9383 19.4102C18.9572 19.4212 18.9739 19.436 18.9872 19.4538C19.0006 19.4716 19.0103 19.492 19.016 19.5138C19.0216 19.5356 19.023 19.5583 19.02 19.5807C19.017 19.603 19.0098 19.6246 18.9987 19.644C18.9852 19.6706 18.9649 19.6928 18.94 19.7082C18.9151 19.7236 18.8866 19.7315 18.8577 19.7312Z" fill="#FFD700"/>
<path d="M17.8286 23.7194H16.8247C16.781 23.7194 16.7392 23.7014 16.7083 23.6693C16.6775 23.6372 16.6602 23.5938 16.6602 23.5484C16.6602 23.5031 16.6775 23.4596 16.7083 23.4275C16.7392 23.3955 16.781 23.3774 16.8247 23.3774H17.8252C17.8689 23.3775 17.9107 23.3956 17.9415 23.4276C17.9723 23.4596 17.9897 23.5031 17.9898 23.5484C17.9904 23.5707 17.9867 23.593 17.9788 23.6138C17.971 23.6346 17.9592 23.6536 17.9442 23.6695C17.9291 23.6855 17.9111 23.6981 17.8913 23.7067C17.8714 23.7153 17.8501 23.7196 17.8286 23.7194Z" fill="#FFD700"/>
<path d="M21.6673 16.8072C21.6379 16.8072 21.6091 16.7991 21.5838 16.7838C21.5584 16.7684 21.5374 16.7464 21.5229 16.72L21.026 15.8197C21.0151 15.8002 21.0081 15.7788 21.0053 15.7565C21.0025 15.7342 21.0039 15.7115 21.0095 15.6898C21.0151 15.6681 21.0248 15.6477 21.038 15.6299C21.0512 15.6121 21.0676 15.5971 21.0864 15.5859C21.1051 15.5746 21.1258 15.5674 21.1472 15.5644C21.1687 15.5615 21.1905 15.563 21.2114 15.5689C21.2323 15.5747 21.2519 15.5848 21.269 15.5985C21.2862 15.6122 21.3006 15.6293 21.3114 15.6488L21.8116 16.549C21.8229 16.5683 21.8303 16.5898 21.8334 16.6122C21.8365 16.6346 21.8352 16.6575 21.8295 16.6793C21.8239 16.7012 21.814 16.7216 21.8006 16.7394C21.7871 16.7571 21.7703 16.7719 21.7512 16.7828C21.7261 16.7993 21.6969 16.8078 21.6673 16.8072Z" fill="#FFD700"/>
<path d="M25.5083 15.7392C25.4867 15.7392 25.4653 15.7348 25.4453 15.7262C25.4253 15.7176 25.4072 15.705 25.3919 15.6892C25.3767 15.6733 25.3645 15.6544 25.3563 15.6337C25.348 15.613 25.3437 15.5907 25.3438 15.5683V14.525C25.3438 14.4796 25.3611 14.4361 25.3919 14.4041C25.4228 14.372 25.4646 14.354 25.5083 14.354C25.5519 14.354 25.5938 14.372 25.6246 14.4041C25.6555 14.4361 25.6728 14.4796 25.6728 14.525V15.5648C25.6731 15.5875 25.6691 15.61 25.661 15.6311C25.6528 15.6522 25.6408 15.6714 25.6255 15.6876C25.6102 15.7038 25.592 15.7168 25.5719 15.7256C25.5517 15.7345 25.5301 15.7391 25.5083 15.7392Z" fill="#FFD700"/>
<path d="M32.1599 19.731C32.1306 19.731 32.1018 19.7229 32.0764 19.7076C32.0511 19.6922 32.0301 19.6702 32.0155 19.6437C32.0043 19.6244 31.9969 19.6029 31.9938 19.5805C31.9907 19.5581 31.9921 19.5353 31.9977 19.5134C32.0034 19.4916 32.0132 19.4712 32.0267 19.4534C32.0401 19.4356 32.0569 19.4208 32.076 19.41L32.9422 18.8901C32.961 18.8788 32.9817 18.8716 33.0031 18.8686C33.0246 18.8657 33.0463 18.8672 33.0672 18.873C33.0881 18.8789 33.1077 18.8889 33.1249 18.9026C33.142 18.9163 33.1564 18.9334 33.1672 18.9529C33.178 18.9723 33.185 18.9938 33.1878 19.0161C33.1906 19.0384 33.1892 19.0611 33.1836 19.0828C33.178 19.1045 33.1683 19.1248 33.1551 19.1426C33.1419 19.1605 33.1255 19.1754 33.1068 19.1867L32.2405 19.7066C32.216 19.7215 32.1883 19.7299 32.1599 19.731Z" fill="#FFD700"/>
<path d="M34.1905 23.7194H33.1899C33.1463 23.7194 33.1044 23.7014 33.0736 23.6693C33.0427 23.6372 33.0254 23.5938 33.0254 23.5484C33.0254 23.5031 33.0427 23.4596 33.0736 23.4275C33.1044 23.3955 33.1463 23.3774 33.1899 23.3774H34.1905C34.2341 23.3774 34.276 23.3955 34.3068 23.4275C34.3377 23.4596 34.355 23.5031 34.355 23.5484C34.355 23.5938 34.3377 23.6372 34.3068 23.6693C34.276 23.7014 34.2341 23.7194 34.1905 23.7194Z" fill="#FFD700"/>
<path d="M29.3489 16.8068C29.3192 16.8069 29.2902 16.7985 29.2649 16.7824C29.246 16.7714 29.2293 16.7565 29.216 16.7387C29.2026 16.7209 29.1928 16.7006 29.1872 16.6788C29.1816 16.657 29.1802 16.6342 29.1832 16.6119C29.1861 16.5895 29.1934 16.568 29.2045 16.5486L29.7048 15.6484C29.7267 15.6092 29.7627 15.5806 29.8048 15.5689C29.8469 15.5571 29.8918 15.5631 29.9297 15.5856C29.9487 15.5966 29.9653 15.6114 29.9787 15.6292C29.992 15.647 30.0018 15.6674 30.0074 15.6892C30.013 15.711 30.0144 15.7338 30.0115 15.7561C30.0085 15.7785 30.0013 15.8 29.9902 15.8194L29.4899 16.7196C29.4766 16.7464 29.4564 16.7689 29.4315 16.7843C29.4065 16.7997 29.3779 16.8075 29.3489 16.8068Z" fill="#FFD700"/>
<path d="M24.1856 29.1592C23.9911 29.1589 23.8004 29.1037 23.6338 28.9994C23.4673 28.8951 23.3311 28.7456 23.2401 28.5671C23.149 28.3885 23.1064 28.1876 23.1168 27.9858C23.1272 27.784 23.1902 27.5889 23.2992 27.4215C23.324 27.3845 23.3618 27.3589 23.4044 27.3505C23.4471 27.342 23.4913 27.3512 23.5275 27.3762C23.5455 27.3887 23.5609 27.4047 23.5728 27.4235C23.5848 27.4422 23.593 27.4632 23.5971 27.4853C23.6012 27.5074 23.601 27.5301 23.5965 27.5521C23.592 27.5741 23.5834 27.5949 23.5711 27.6134C23.4875 27.7396 23.443 27.8894 23.4435 28.0426C23.4433 28.144 23.4623 28.2445 23.4995 28.3383C23.5367 28.4321 23.5913 28.5173 23.6603 28.5891C23.7292 28.6609 23.8111 28.7179 23.9012 28.7567C23.9913 28.7956 24.088 28.8156 24.1856 28.8156C24.2832 28.8156 24.3798 28.7956 24.4699 28.7567C24.5601 28.7179 24.642 28.6609 24.7109 28.5891C24.7798 28.5173 24.8344 28.4321 24.8716 28.3383C24.9088 28.2445 24.9278 28.144 24.9276 28.0426V19.159C24.9273 19.082 24.9095 19.0061 24.8756 18.9377C24.8417 18.8692 24.7927 18.81 24.7326 18.7649C24.6725 18.7199 24.603 18.6903 24.5298 18.6784C24.4566 18.6666 24.3817 18.673 24.3113 18.697C24.2409 18.721 24.177 18.762 24.1247 18.8166C24.0724 18.8712 24.0333 18.9378 24.0106 19.0111C23.9879 19.0844 23.9821 19.1622 23.9939 19.2383C24.0056 19.3143 24.0345 19.3864 24.0781 19.4486C24.1008 19.4857 24.109 19.5304 24.1011 19.5736C24.0931 19.6168 24.0696 19.6552 24.0354 19.681C24.0011 19.7068 23.9587 19.7181 23.9167 19.7125C23.8748 19.7069 23.8364 19.6849 23.8095 19.651C23.7348 19.5446 23.6854 19.4214 23.6653 19.2914C23.6452 19.1614 23.655 19.0283 23.6939 18.9029C23.7328 18.7776 23.7998 18.6637 23.8892 18.5704C23.9787 18.4771 24.0881 18.4072 24.2086 18.3664C24.329 18.3255 24.4571 18.3149 24.5823 18.3353C24.7074 18.3558 24.8262 18.4068 24.9287 18.4841C25.0313 18.5614 25.1148 18.6629 25.1724 18.7802C25.23 18.8975 25.26 19.0273 25.26 19.159V28.0461C25.2585 28.3414 25.1447 28.6242 24.9434 28.8327C24.7422 29.0412 24.4698 29.1585 24.1856 29.1592Z" fill="#989898"/>
<path d="M26.8308 29.1592C26.5468 29.159 26.2745 29.0417 26.0737 28.833C25.8729 28.6243 25.76 28.3413 25.7598 28.0462V19.159C25.7598 19.0273 25.7898 18.8975 25.8474 18.7802C25.905 18.6629 25.9885 18.5614 26.091 18.4841C26.1936 18.4068 26.3123 18.3558 26.4375 18.3353C26.5627 18.3149 26.6908 18.3255 26.8112 18.3664C26.9317 18.4072 27.0411 18.4771 27.1306 18.5704C27.22 18.6637 27.287 18.7776 27.3259 18.903C27.3648 19.0283 27.3746 19.1614 27.3545 19.2914C27.3344 19.4215 27.285 19.5447 27.2102 19.651C27.1833 19.685 27.145 19.707 27.103 19.7125C27.0611 19.7181 27.0186 19.7069 26.9844 19.681C26.9501 19.6552 26.9267 19.6168 26.9187 19.5736C26.9108 19.5305 26.919 19.4858 26.9416 19.4486C26.9856 19.3864 27.0148 19.3142 27.0268 19.238C27.0387 19.1618 27.0331 19.0837 27.0104 19.0101C26.9877 18.9366 26.9486 18.8697 26.8962 18.8149C26.8439 18.7601 26.7798 18.719 26.7091 18.6949C26.6385 18.6708 26.5634 18.6645 26.49 18.6764C26.4166 18.6883 26.3469 18.7181 26.2867 18.7634C26.2265 18.8087 26.1775 18.8681 26.1437 18.9369C26.1099 19.0057 26.0922 19.0818 26.0922 19.159V28.0462C26.0919 28.1476 26.111 28.2481 26.1481 28.3418C26.1853 28.4356 26.24 28.5208 26.3089 28.5926C26.3778 28.6644 26.4597 28.7214 26.5498 28.7603C26.64 28.7991 26.7366 28.8191 26.8342 28.8191C26.9318 28.8191 27.0284 28.7991 27.1186 28.7603C27.2087 28.7214 27.2906 28.6644 27.3595 28.5926C27.4284 28.5208 27.4831 28.4356 27.5203 28.3418C27.5574 28.2481 27.5765 28.1476 27.5762 28.0462C27.5768 27.8929 27.5323 27.7432 27.4486 27.617C27.4242 27.5795 27.415 27.5335 27.4232 27.489C27.4314 27.4445 27.4562 27.4052 27.4923 27.3797C27.5284 27.3543 27.5727 27.3448 27.6155 27.3533C27.6583 27.3618 27.6961 27.3876 27.7206 27.4251C27.83 27.5924 27.8933 27.7877 27.9037 27.9897C27.9141 28.1917 27.8712 28.3929 27.7796 28.5714C27.688 28.7499 27.5512 28.899 27.384 29.0026C27.2168 29.1062 27.0255 29.1604 26.8308 29.1592Z" fill="#989898"/>
<path d="M28.2006 28.3289C28.0173 28.3288 27.8363 28.2871 27.6701 28.2068C27.6502 28.1976 27.6322 28.1844 27.6172 28.1679C27.6022 28.1514 27.5906 28.132 27.5829 28.1108C27.5752 28.0896 27.5716 28.0671 27.5724 28.0444C27.5731 28.0218 27.5782 27.9995 27.5874 27.9789C27.5965 27.9584 27.6094 27.9399 27.6255 27.9245C27.6416 27.9092 27.6604 27.8974 27.6809 27.8897C27.7014 27.882 27.7232 27.8786 27.745 27.8797C27.7667 27.8808 27.7881 27.8864 27.8077 27.8962C27.9223 27.951 28.0462 27.9813 28.1723 27.9851C28.2983 27.9889 28.4238 27.9662 28.5411 27.9184C28.6585 27.8706 28.7654 27.7987 28.8554 27.7069C28.9454 27.6151 29.0166 27.5054 29.0648 27.3843C29.113 27.2633 29.1371 27.1333 29.1358 27.0023C29.1345 26.8713 29.1077 26.7419 29.0571 26.6219C29.0065 26.5019 28.9331 26.3937 28.8413 26.3039C28.7495 26.2141 28.6412 26.1445 28.5229 26.0993C28.5023 26.0919 28.4834 26.0803 28.4673 26.0651C28.4511 26.0499 28.4381 26.0315 28.429 26.011C28.4199 25.9904 28.4149 25.9682 28.4143 25.9456C28.4137 25.923 28.4175 25.9005 28.4255 25.8794C28.4328 25.8582 28.4441 25.8387 28.4588 25.8221C28.4734 25.8054 28.4911 25.792 28.5108 25.7826C28.5305 25.7732 28.5518 25.7679 28.5735 25.7672C28.5952 25.7664 28.6168 25.7702 28.6371 25.7782C28.9162 25.8847 29.1503 26.09 29.2984 26.3579C29.4465 26.6258 29.4992 26.9394 29.4471 27.2436C29.3951 27.5478 29.2416 27.8233 29.0137 28.0217C28.7858 28.2202 28.4979 28.3289 28.2006 28.3289Z" fill="#989898"/>
<path d="M28.7449 25.4711C28.4394 25.4706 28.1384 25.3948 27.8665 25.25C27.5946 25.1052 27.3596 24.8956 27.1807 24.6382C27.0018 24.3808 26.8842 24.0831 26.8374 23.7693C26.7907 23.4556 26.8161 23.1348 26.9116 22.8333C26.9254 22.7902 26.9551 22.7546 26.9942 22.7344C27.0332 22.7141 27.0784 22.7107 27.1198 22.7251C27.1612 22.7394 27.1954 22.7703 27.215 22.8108C27.2345 22.8514 27.2377 22.8984 27.2239 22.9414C27.1423 23.1984 27.1222 23.4722 27.1652 23.739C27.2082 24.0059 27.313 24.2579 27.4707 24.4733C27.6283 24.6887 27.8341 24.8609 28.0701 24.9752C28.3061 25.0895 28.5654 25.1423 28.8255 25.1292C28.8474 25.1277 28.8693 25.1308 28.8901 25.1383C28.9108 25.1457 28.9299 25.1575 28.9462 25.1728C28.9624 25.1881 28.9756 25.2066 28.9849 25.2273C28.9941 25.248 28.9993 25.2704 29.0001 25.2932C29.0019 25.3389 28.9864 25.3835 28.9569 25.4174C28.9274 25.4514 28.8862 25.4719 28.8423 25.4746C28.8099 25.4717 28.7774 25.4705 28.7449 25.4711ZM29.1377 26.5842C29.1017 26.5846 29.0666 26.5725 29.038 26.5497C29.0093 26.5269 28.9889 26.4948 28.9799 26.4586C28.9687 26.4147 28.9744 26.3679 28.9956 26.3282C29.0169 26.2885 29.0522 26.259 29.0941 26.2457C29.3047 26.1841 29.4956 26.0651 29.6473 25.9012C29.7989 25.7372 29.9057 25.5342 29.9567 25.3131C30.0076 25.0919 30.0009 24.8607 29.9372 24.6431C29.8736 24.4256 29.7552 24.2296 29.5943 24.0755C29.5781 24.0601 29.565 24.0416 29.5557 24.021C29.5464 24.0004 29.5411 23.9781 29.5401 23.9554C29.5391 23.9326 29.5425 23.9099 29.5499 23.8885C29.5574 23.8671 29.5689 23.8475 29.5837 23.8307C29.5985 23.8139 29.6164 23.8004 29.6363 23.7908C29.6561 23.7812 29.6776 23.7758 29.6995 23.7749C29.7214 23.7739 29.7433 23.7775 29.7638 23.7854C29.7844 23.7933 29.8032 23.8053 29.8193 23.8207C30.0237 24.0161 30.1741 24.2647 30.2551 24.5407C30.3361 24.8168 30.3447 25.1103 30.28 25.3909C30.2154 25.6716 30.0797 25.9292 29.8872 26.1371C29.6946 26.3451 29.4521 26.4958 29.1847 26.5738C29.1699 26.5806 29.1539 26.5841 29.1377 26.5842ZM27.8652 27.2751C27.6499 27.2703 27.4393 27.2087 27.2533 27.0961C27.0672 26.9834 26.9118 26.8234 26.8017 26.6311C26.6915 26.4388 26.6302 26.2206 26.6236 25.9969C26.617 25.7732 26.6653 25.5515 26.7639 25.3525C26.784 25.3124 26.8186 25.2823 26.8601 25.2687C26.9016 25.255 26.9466 25.259 26.9852 25.2798C27.0239 25.3006 27.053 25.3364 27.0663 25.3795C27.0795 25.4225 27.0759 25.4693 27.056 25.5095C26.9863 25.6487 26.9499 25.8033 26.95 25.9602C26.9501 26.1171 26.9866 26.2716 27.0565 26.4107C27.1264 26.5498 27.2275 26.6693 27.3514 26.759C27.4752 26.8488 27.6181 26.9061 27.7678 26.9262C27.8081 26.9297 27.8484 26.9332 27.8853 26.9332C27.9072 26.9311 27.9292 26.9338 27.95 26.9412C27.9707 26.9485 27.9898 26.9603 28.0059 26.9757C28.0221 26.9912 28.0349 27.0099 28.0436 27.0309C28.0523 27.0518 28.0568 27.0744 28.0566 27.0971C28.0583 27.1425 28.0426 27.1866 28.013 27.22C27.9835 27.2534 27.9424 27.2732 27.8988 27.2751L27.8652 27.2751Z" fill="#989898"/>
<path d="M27.8485 24.1205H27.8418C27.7982 24.1186 27.7571 24.0988 27.7275 24.0655C27.6979 24.0321 27.6822 23.9879 27.684 23.9426C27.6857 23.8862 27.6925 23.8301 27.7041 23.7751C27.7914 23.3389 28.154 23.0214 28.6107 22.9865C28.6542 22.9835 28.6971 22.9982 28.7303 23.0275C28.7636 23.0568 28.7845 23.0984 28.7886 23.1435C28.7921 23.1889 28.7781 23.2338 28.7498 23.2684C28.7215 23.3031 28.6811 23.3247 28.6375 23.3285C28.332 23.3529 28.0869 23.5622 28.0298 23.8484C28.0231 23.8867 28.0197 23.9251 28.0164 23.96C28.014 24.0042 27.9951 24.0457 27.9638 24.0756C27.9324 24.1056 27.8911 24.1217 27.8485 24.1205ZM26.5592 25.1603H26.5525C26.5089 25.1584 26.4677 25.1386 26.4382 25.1052C26.4086 25.0719 26.3929 25.0277 26.3947 24.9824C26.3964 24.926 26.4031 24.8699 26.4148 24.8149C26.4519 24.6376 26.5351 24.4742 26.6552 24.3426C26.7754 24.2109 26.928 24.116 27.0964 24.0682C27.1382 24.0552 27.1833 24.0601 27.2218 24.0817C27.2602 24.1033 27.2887 24.1398 27.3012 24.1833C27.3137 24.2268 27.309 24.2737 27.2882 24.3136C27.2674 24.3535 27.2323 24.3832 27.1904 24.3962C27.0793 24.4264 26.9784 24.4881 26.899 24.5743C26.8196 24.6606 26.7647 24.768 26.7405 24.8846C26.7331 24.9214 26.7286 24.9588 26.7271 24.9963C26.7243 25.0407 26.7054 25.0823 26.6743 25.1127C26.6431 25.1432 26.602 25.1602 26.5592 25.1603ZM29.299 24.295C29.2601 24.2951 29.2224 24.2808 29.1928 24.2545C29.1633 24.2283 29.1437 24.1919 29.1378 24.1519C29.1306 24.1071 29.1407 24.0611 29.1658 24.0239C29.1909 23.9867 29.2291 23.9612 29.2721 23.953C29.4501 23.9211 29.614 23.8321 29.7409 23.6985C29.8678 23.5649 29.9513 23.3935 29.9798 23.2081C30.0083 23.0228 29.9803 22.8328 29.8998 22.6648C29.8192 22.4968 29.6902 22.3592 29.5306 22.2712C29.4941 22.2483 29.4675 22.2116 29.4563 22.1688C29.445 22.126 29.4501 22.0803 29.4704 22.0413C29.4907 22.0023 29.5246 21.9729 29.5652 21.9591C29.6058 21.9454 29.65 21.9485 29.6885 21.9676C29.9088 22.0895 30.0869 22.2799 30.198 22.5121C30.309 22.7444 30.3475 23.0069 30.3079 23.263C30.2683 23.5191 30.1527 23.7559 29.9772 23.9403C29.8017 24.1247 29.5751 24.2475 29.3292 24.2915C29.3191 24.2915 29.309 24.295 29.299 24.295Z" fill="#989898"/>
<path d="M29.2614 22.7666C29.237 22.7666 29.2129 22.7609 29.1909 22.7501C29.1688 22.7392 29.1493 22.7234 29.1339 22.7038C29.1066 22.6687 29.0935 22.6241 29.0973 22.5792C29.1011 22.5343 29.1214 22.4927 29.154 22.463C29.3315 22.3107 29.4595 22.1051 29.5204 21.8743C29.5813 21.6436 29.5722 21.3989 29.4944 21.1737C29.4165 20.9485 29.2737 20.7538 29.0854 20.6161C28.8971 20.4784 28.6724 20.4045 28.4422 20.4044C28.2517 20.4032 28.0642 20.4538 27.8983 20.5509C27.8793 20.5619 27.8584 20.5689 27.8369 20.5716C27.8153 20.5742 27.7935 20.5724 27.7726 20.5662C27.7517 20.5601 27.7322 20.5497 27.7151 20.5357C27.6981 20.5217 27.6839 20.5043 27.6733 20.4846C27.6627 20.4649 27.656 20.4433 27.6535 20.4209C27.6509 20.3984 27.6527 20.3757 27.6586 20.354C27.6645 20.3323 27.6745 20.312 27.688 20.2943C27.7015 20.2766 27.7181 20.2619 27.7371 20.2509C28.0534 20.0689 28.4237 20.016 28.7755 20.1027C29.1273 20.1894 29.4354 20.4093 29.6394 20.7195C29.8435 21.0297 29.9288 21.4079 29.8788 21.78C29.8287 22.1522 29.6469 22.4915 29.3689 22.7317C29.3367 22.7532 29.2996 22.7652 29.2614 22.7666Z" fill="#989898"/>
<path d="M28.2991 20.4115C28.2638 20.4117 28.2295 20.3994 28.2018 20.3766C28.1662 20.3497 28.1424 20.3093 28.1354 20.2641C28.1285 20.219 28.1391 20.1729 28.1648 20.1358C28.2393 20.0294 28.2793 19.9011 28.279 19.7695C28.279 19.6011 28.2146 19.4395 28.1 19.3204C27.9854 19.2014 27.83 19.1344 27.6679 19.1344C27.5337 19.1329 27.4032 19.1798 27.2986 19.267C27.2643 19.2952 27.2206 19.3082 27.1772 19.3029C27.1337 19.2977 27.0941 19.2747 27.0669 19.2391C27.0397 19.2035 27.0273 19.1581 27.0323 19.1129C27.0374 19.0678 27.0595 19.0266 27.0938 18.9983C27.2576 18.8649 27.4597 18.7924 27.6679 18.7925C27.8412 18.7932 28.0109 18.8436 28.1584 18.9379C28.306 19.0323 28.4257 19.167 28.5044 19.3274C28.5831 19.4878 28.6178 19.6676 28.6047 19.8472C28.5916 20.0267 28.5312 20.199 28.4301 20.3452C28.4146 20.3659 28.3947 20.3826 28.372 20.3941C28.3493 20.4056 28.3244 20.4116 28.2991 20.4115Z" fill="#989898"/>
<path d="M26.2863 21.151C26.2581 21.1511 26.2304 21.1437 26.2057 21.1296C26.181 21.1155 26.1602 21.0951 26.1451 21.0704C26.13 21.0457 26.1212 21.0174 26.1195 20.9882C26.1177 20.9589 26.1232 20.9297 26.1352 20.9033C26.225 20.7111 26.3724 20.5544 26.5553 20.4569C26.7382 20.3593 26.9466 20.3262 27.1492 20.3624C27.1707 20.3662 27.1912 20.3743 27.2096 20.3864C27.228 20.3985 27.2439 20.4142 27.2564 20.4327C27.2689 20.4512 27.2777 20.4721 27.2824 20.4942C27.287 20.5163 27.2874 20.5391 27.2835 20.5613C27.2752 20.6058 27.2506 20.6452 27.2149 20.6712C27.1792 20.6972 27.1352 20.7079 27.0921 20.7009C26.9638 20.6772 26.8316 20.697 26.7149 20.7573C26.5983 20.8176 26.5033 20.9153 26.4441 21.0359C26.4321 21.0694 26.4106 21.0984 26.3825 21.119C26.3543 21.1395 26.3207 21.1507 26.2863 21.151Z" fill="#989898"/>
<path d="M22.8146 28.3284C22.5172 28.3279 22.2293 28.2187 22.0015 28.0199C21.7737 27.8211 21.6204 27.5454 21.5684 27.2411C21.5164 26.9367 21.569 26.623 21.717 26.3549C21.865 26.0868 22.0991 25.8812 22.3781 25.7743C22.4191 25.7586 22.4644 25.7604 22.5041 25.7793C22.5437 25.7983 22.5745 25.8329 22.5897 25.8755C22.6048 25.918 22.6031 25.9651 22.5848 26.0063C22.5665 26.0476 22.5333 26.0796 22.4923 26.0953C22.3736 26.1402 22.2648 26.2097 22.1725 26.2994C22.0803 26.3892 22.0065 26.4974 21.9556 26.6176C21.9046 26.7378 21.8777 26.8675 21.8762 26.9988C21.8748 27.1301 21.899 27.2604 21.9473 27.3817C21.9956 27.5031 22.067 27.613 22.1573 27.7049C22.2475 27.7969 22.3548 27.8688 22.4725 27.9165C22.5903 27.9642 22.7161 27.9867 22.8424 27.9825C22.9687 27.9783 23.0929 27.9476 23.2075 27.8923C23.2271 27.8827 23.2483 27.8773 23.2699 27.8764C23.2915 27.8754 23.3131 27.8789 23.3334 27.8867C23.3537 27.8945 23.3724 27.9064 23.3882 27.9217C23.404 27.9371 23.4168 27.9555 23.4257 27.976C23.4353 27.9963 23.4408 28.0184 23.4419 28.041C23.443 28.0636 23.4397 28.0861 23.4321 28.1073C23.4246 28.1285 23.413 28.1479 23.3981 28.1643C23.3831 28.1808 23.3651 28.1938 23.3451 28.2028C23.1797 28.2858 22.9983 28.3288 22.8146 28.3284Z" fill="#989898"/>
<path d="M22.272 25.4708C22.2395 25.4714 22.207 25.4702 22.1746 25.4673C22.1307 25.4646 22.0895 25.444 22.06 25.4101C22.0305 25.3762 22.015 25.3315 22.0168 25.2858C22.0176 25.263 22.0227 25.2406 22.032 25.22C22.0413 25.1993 22.0544 25.1807 22.0707 25.1654C22.087 25.1501 22.1061 25.1384 22.1268 25.1309C22.1475 25.1234 22.1695 25.1204 22.1914 25.1219C22.5857 25.1439 22.9738 25.012 23.2793 24.752C23.5321 24.5388 23.7166 24.2508 23.8083 23.9261C23.9 23.6015 23.8947 23.2555 23.793 22.9341C23.7861 22.9128 23.7834 22.8903 23.7849 22.8679C23.7865 22.8455 23.7922 22.8236 23.8019 22.8035C23.8116 22.7834 23.8249 22.7655 23.8413 22.7508C23.8576 22.7361 23.8766 22.7249 23.8971 22.7178C23.9176 22.7107 23.9392 22.7078 23.9608 22.7094C23.9823 22.711 24.0034 22.717 24.0227 22.727C24.042 22.7371 24.0593 22.751 24.0734 22.768C24.0876 22.7849 24.0984 22.8046 24.1052 22.8259C24.2272 23.2136 24.2331 23.6306 24.1222 24.0218C24.0112 24.4131 23.7888 24.7601 23.4841 25.0172C23.1436 25.3111 22.7146 25.4716 22.272 25.4708ZM21.8791 26.5838C21.8644 26.5832 21.8497 26.5809 21.8355 26.5769C21.5681 26.4989 21.3256 26.3482 21.1331 26.1402C20.9405 25.9323 20.8049 25.6747 20.7402 25.394C20.6755 25.1134 20.6841 24.8199 20.7651 24.5438C20.8461 24.2678 20.9965 24.0192 21.2009 23.8238C21.2334 23.7931 21.2764 23.777 21.3203 23.779C21.3643 23.7811 21.4056 23.8012 21.4354 23.8348C21.4651 23.8685 21.4808 23.9131 21.479 23.9587C21.4773 24.0044 21.4581 24.0475 21.4259 24.0786C21.265 24.2327 21.1466 24.4287 21.0829 24.6462C21.0192 24.8638 21.0125 25.0951 21.0635 25.3162C21.1145 25.5373 21.2213 25.7403 21.3729 25.9043C21.5246 26.0682 21.7155 26.1872 21.9261 26.2489C21.9473 26.2547 21.9671 26.265 21.9843 26.2789C22.0016 26.2929 22.0159 26.3103 22.0266 26.3302C22.0372 26.35 22.0439 26.3719 22.0463 26.3945C22.0487 26.4171 22.0466 26.44 22.0403 26.4617C22.0289 26.4969 22.0073 26.5276 21.9784 26.5495C21.9496 26.5713 21.9149 26.5833 21.8791 26.5838ZM23.1517 27.2747H23.1147C23.0729 27.2712 23.0339 27.2512 23.0057 27.2188C22.9776 27.1864 22.9624 27.1441 22.9632 27.1005C22.9641 27.0568 22.9809 27.0152 23.0103 26.984C23.0397 26.9529 23.0795 26.9345 23.1214 26.9328H23.1517C23.31 26.9279 23.4646 26.8813 23.6009 26.7976C23.7373 26.7138 23.851 26.5955 23.9315 26.4537C24.0119 26.3119 24.0565 26.1512 24.0611 25.9866C24.0656 25.8221 24.03 25.659 23.9575 25.5126C23.9376 25.4724 23.9339 25.4256 23.9472 25.3826C23.9605 25.3395 23.9896 25.3037 24.0283 25.2829C24.0669 25.2622 24.1119 25.2581 24.1534 25.2718C24.1949 25.2854 24.2295 25.3156 24.2496 25.3556C24.3182 25.4916 24.3626 25.6394 24.3805 25.7918C24.4234 26.1383 24.3322 26.4883 24.127 26.765C23.9218 27.0417 23.6193 27.2225 23.286 27.2677C23.2423 27.2712 23.1987 27.2747 23.1517 27.2747Z" fill="#989898"/>
<path d="M24.7289 21.1514C24.6953 21.1516 24.6624 21.1409 24.6347 21.121C24.6071 21.101 24.5861 21.0726 24.5745 21.0398C24.515 20.9194 24.42 20.822 24.3034 20.7618C24.1868 20.7015 24.0547 20.6815 23.9265 20.7048C23.8833 20.7125 23.839 20.7022 23.8031 20.676C23.7673 20.6499 23.7428 20.6101 23.7351 20.5653C23.7312 20.543 23.7316 20.5202 23.7362 20.4981C23.7409 20.476 23.7497 20.4551 23.7622 20.4366C23.7747 20.4181 23.7906 20.4024 23.809 20.3903C23.8274 20.3783 23.8479 20.3701 23.8694 20.3664C24.072 20.3294 24.2808 20.3622 24.4638 20.4598C24.6468 20.5574 24.7942 20.7145 24.8834 20.9072C24.895 20.9339 24.9002 20.9631 24.8984 20.9923C24.8967 21.0215 24.888 21.0498 24.8733 21.0747C24.8564 21.098 24.8346 21.117 24.8096 21.1303C24.7846 21.1436 24.757 21.1508 24.7289 21.1514Z" fill="#989898"/>
<path d="M22.7179 20.4115C22.6919 20.4114 22.6663 20.405 22.643 20.3929C22.6197 20.3808 22.5994 20.3633 22.5836 20.3417C22.4505 20.151 22.3881 19.9168 22.4079 19.6821C22.4276 19.4474 22.5282 19.228 22.6911 19.0642C22.8541 18.9004 23.0684 18.8032 23.2948 18.7905C23.5211 18.7778 23.7443 18.8503 23.9233 18.9949C23.9576 19.0231 23.9797 19.0643 23.9847 19.1095C23.9898 19.1546 23.9773 19.2 23.9502 19.2357C23.923 19.2713 23.8834 19.2942 23.8399 19.2995C23.7965 19.3047 23.7528 19.2918 23.7185 19.2636C23.6282 19.191 23.5201 19.1461 23.4065 19.1342C23.2929 19.1223 23.1783 19.1437 23.0759 19.196C22.9734 19.2483 22.8871 19.3295 22.8268 19.4303C22.7665 19.531 22.7346 19.6474 22.7347 19.766C22.7339 19.8977 22.774 20.0262 22.8489 20.1324C22.8746 20.1694 22.8852 20.2156 22.8783 20.2607C22.8713 20.3058 22.8475 20.3463 22.812 20.3732C22.7996 20.3858 22.7849 20.3957 22.7687 20.4023C22.7526 20.4089 22.7353 20.412 22.7179 20.4115Z" fill="#989898"/>
<path d="M21.7538 22.7669C21.7159 22.7664 21.6793 22.7529 21.6497 22.7285C21.3721 22.4882 21.1906 22.1489 21.1408 21.777C21.091 21.405 21.1764 21.0272 21.3803 20.7172C21.5842 20.4072 21.892 20.1873 22.2436 20.1005C22.5951 20.0136 22.9652 20.0661 23.2815 20.2477C23.3198 20.2699 23.348 20.307 23.36 20.3508C23.3719 20.3947 23.3666 20.4417 23.3453 20.4815C23.3239 20.5212 23.2882 20.5506 23.246 20.563C23.2038 20.5755 23.1586 20.57 23.1203 20.5478C22.8765 20.4069 22.5908 20.3658 22.3194 20.4325C22.0479 20.4992 21.8102 20.669 21.653 20.9084C21.4957 21.1479 21.4302 21.4397 21.4694 21.7268C21.5085 22.0138 21.6495 22.2753 21.8646 22.4599C21.8814 22.4741 21.8954 22.4917 21.9055 22.5116C21.9157 22.5315 21.9219 22.5533 21.9238 22.5758C21.9257 22.5983 21.9232 22.6209 21.9165 22.6423C21.9098 22.6638 21.899 22.6836 21.8847 22.7006C21.8685 22.7205 21.8485 22.7366 21.8259 22.748C21.8034 22.7594 21.7788 22.7659 21.7538 22.7669Z" fill="#989898"/>
<path d="M23.1651 24.1205C23.1227 24.1202 23.082 24.1031 23.0514 24.0726C23.0208 24.0421 23.0026 24.0005 23.0006 23.9565C23.0013 23.92 22.9968 23.8835 22.9871 23.8484C22.9301 23.5587 22.685 23.3494 22.3794 23.325C22.3359 23.3211 22.2956 23.2995 22.2674 23.2649C22.2392 23.2302 22.2254 23.1853 22.2289 23.1401C22.2325 23.0949 22.2531 23.0529 22.2864 23.0235C22.3196 22.994 22.3627 22.9795 22.4063 22.983C22.8629 23.0179 23.2255 23.3355 23.3128 23.7751C23.323 23.8304 23.3298 23.8864 23.333 23.9426C23.3347 23.9879 23.319 24.0321 23.2894 24.0654C23.2599 24.0988 23.2188 24.1186 23.1752 24.1205L23.1651 24.1205ZM24.4578 25.1603C24.4154 25.16 24.3747 25.1429 24.3441 25.1124C24.3135 25.0819 24.2953 25.0403 24.2932 24.9963C24.294 24.9598 24.2894 24.9233 24.2798 24.8882C24.2551 24.7713 24.2002 24.6637 24.1209 24.577C24.0415 24.4903 23.9409 24.4277 23.8299 24.3962C23.8092 24.3898 23.7899 24.3792 23.7731 24.365C23.7563 24.3508 23.7424 24.3334 23.7321 24.3136C23.7113 24.2737 23.7066 24.2268 23.7191 24.1833C23.7316 24.1398 23.7601 24.1033 23.7986 24.0817C23.837 24.0601 23.8821 24.0552 23.9239 24.0682C24.0928 24.1162 24.2457 24.2116 24.3659 24.3439C24.4862 24.4763 24.569 24.6404 24.6055 24.8184C24.6159 24.8736 24.6227 24.9296 24.6256 24.9859C24.6274 25.0312 24.6117 25.0754 24.5821 25.1087C24.5525 25.1421 24.5114 25.1619 24.4678 25.1638C24.4665 25.1625 24.4649 25.1615 24.4632 25.1609C24.4614 25.1603 24.4596 25.1601 24.4578 25.1603ZM21.718 24.295C21.7089 24.2958 21.6997 24.2946 21.6911 24.2915C21.4452 24.2475 21.2186 24.1247 21.0431 23.9403C20.8676 23.7559 20.752 23.5191 20.7124 23.263C20.6728 23.0069 20.7113 22.7444 20.8223 22.5121C20.9334 22.2799 21.1115 22.0895 21.3318 21.9676C21.3703 21.9485 21.4145 21.9454 21.4551 21.9591C21.4956 21.9729 21.5296 22.0023 21.5499 22.0413C21.5702 22.0803 21.5752 22.126 21.564 22.1688C21.5528 22.2116 21.5262 22.2483 21.4897 22.2712C21.3301 22.3592 21.2011 22.4968 21.1205 22.6648C21.04 22.8328 21.012 23.0228 21.0405 23.2081C21.069 23.3935 21.1525 23.5649 21.2794 23.6985C21.4063 23.8321 21.5702 23.9211 21.7482 23.953C21.7696 23.9568 21.7902 23.9649 21.8086 23.977C21.827 23.989 21.8429 24.0048 21.8554 24.0233C21.8678 24.0418 21.8767 24.0627 21.8813 24.0848C21.886 24.1069 21.8864 24.1297 21.8825 24.1519C21.8748 24.1917 21.8544 24.2275 21.8244 24.2535C21.7945 24.2795 21.757 24.2942 21.718 24.295Z" fill="#989898"/>
<path d="M23.0481 21.8071C22.8909 21.8072 22.7358 21.7702 22.5945 21.6989C22.4531 21.6276 22.3292 21.5238 22.2322 21.3954C22.2187 21.3777 22.2087 21.3575 22.2028 21.3359C22.1969 21.3142 22.1951 21.2916 22.1976 21.2692C22.2001 21.2469 22.2068 21.2252 22.2173 21.2056C22.2279 21.1859 22.242 21.1686 22.259 21.1546C22.276 21.1406 22.2955 21.1303 22.3163 21.1241C22.3371 21.1179 22.3589 21.1161 22.3804 21.1187C22.4019 21.1213 22.4227 21.1283 22.4417 21.1392C22.4606 21.1502 22.4772 21.1649 22.4907 21.1825C22.5992 21.325 22.7547 21.4207 22.9271 21.451C23.0995 21.4813 23.2766 21.444 23.4241 21.3465C23.5019 21.2947 23.569 21.2272 23.6215 21.1482C23.6739 21.0691 23.7107 20.9799 23.7296 20.8859C23.7563 20.7586 23.7498 20.6262 23.7108 20.5023C23.6719 20.3784 23.6019 20.2676 23.508 20.1811C23.4756 20.151 23.456 20.1087 23.4535 20.0636C23.451 20.0185 23.4658 19.9742 23.4946 19.9403C23.5243 19.9066 23.5655 19.8862 23.6094 19.8836C23.6533 19.881 23.6965 19.8963 23.7296 19.9264C23.8493 20.0368 23.9429 20.1744 24.0029 20.3285C24.063 20.4827 24.088 20.6492 24.076 20.815C24.064 20.9808 24.0152 21.1415 23.9336 21.2846C23.852 21.4276 23.7397 21.5491 23.6054 21.6396C23.4383 21.7484 23.2452 21.8065 23.0481 21.8071ZM21.8998 23.5413C21.7863 23.5415 21.6741 23.5166 21.5707 23.468C21.5264 23.447 21.4838 23.4225 21.4431 23.3947C21.4071 23.3693 21.3822 23.33 21.374 23.2855C21.3658 23.241 21.375 23.1949 21.3995 23.1574C21.424 23.12 21.4618 23.0941 21.5046 23.0856C21.5474 23.0771 21.5917 23.0866 21.6278 23.1121C21.6505 23.1294 21.6754 23.1435 21.7017 23.154C21.7647 23.1824 21.8327 23.1971 21.9014 23.1971C21.9702 23.1971 22.0382 23.1824 22.1012 23.154C22.2399 23.0919 22.3504 22.977 22.4101 22.8329C22.4254 22.7957 22.4378 22.7572 22.447 22.7178C22.457 22.6735 22.4834 22.635 22.5205 22.6108C22.5576 22.5866 22.6024 22.5787 22.6451 22.5887C22.6875 22.5995 22.7242 22.627 22.7474 22.6655C22.7706 22.7039 22.7785 22.7502 22.7694 22.7946C22.7564 22.8558 22.7373 22.9155 22.7123 22.9725C22.6181 23.1967 22.4452 23.3751 22.2288 23.4715C22.1246 23.517 22.0128 23.5407 21.8998 23.5413Z" fill="#989898"/>
</svg>
