<svg width="129" height="33" viewBox="0 0 129 33" fill="none" xmlns="http://www.w3.org/2000/svg">
<path d="M18.3186 9.45215H7.52553C6.56187 9.45215 5.14846 9.90186 4.44177 10.5443C3.28537 11.6365 2.45024 13.4353 4.24908 15.4911C5.21275 16.6475 6.8188 16.7118 8.36067 16.7118C10.9304 16.7118 13.5002 16.776 16.07 16.776C16.5197 16.776 20.5029 17.033 22.4302 19.9882C23.3296 21.4016 23.4581 22.815 23.4581 23.3932C23.4581 23.9072 23.5866 25.8987 22.366 27.6976C20.1174 31.0383 15.6203 30.9098 15.4276 30.9098C10.8662 30.8456 7.78247 31.0383 3.22111 30.9098" stroke="#71EC20" stroke-width="3" stroke-miterlimit="10" stroke-linecap="round"/>
<path d="M2 23.2007H18.1896" stroke="white" stroke-width="3" stroke-miterlimit="10" stroke-linecap="round" stroke-linejoin="round"/>
<path d="M2 2H16.0695C18.1253 2 20.1812 2.70669 21.723 4.05582C23.6504 5.79042 24.9995 8.74567 21.7873 13.3713" stroke="white" stroke-width="3" stroke-miterlimit="10" stroke-linecap="round"/>
<path d="M17.6399 12.1375C19.0946 12.1375 20.2739 10.9579 20.2739 9.50282C20.2739 8.04774 19.0946 6.86816 17.6399 6.86816C16.1851 6.86816 15.0059 8.04774 15.0059 9.50282C15.0059 10.9579 16.1851 12.1375 17.6399 12.1375Z" fill="white" stroke="#1B212A" stroke-miterlimit="10"/>
<path d="M17.6399 25.8836C19.0946 25.8836 20.2739 24.704 20.2739 23.2489C20.2739 21.7938 19.0946 20.6143 17.6399 20.6143C16.1851 20.6143 15.0059 21.7938 15.0059 23.2489C15.0059 24.704 16.1851 25.8836 17.6399 25.8836Z" fill="#71EC20" stroke="#1B212A" stroke-miterlimit="10"/>
<path d="M22.2219 15.2879C23.6766 15.2879 24.8559 14.1083 24.8559 12.6532C24.8559 11.1981 23.6766 10.0186 22.2219 10.0186C20.7672 10.0186 19.5879 11.1981 19.5879 12.6532C19.5879 14.1083 20.7672 15.2879 22.2219 15.2879Z" fill="#71EC20" stroke="#1B212A" stroke-miterlimit="10"/>
<path d="M39.8164 20.0977C39.8164 20.7943 39.6862 21.3997 39.4258 21.9141C39.1719 22.4284 38.8138 22.8548 38.3516 23.1934C37.8893 23.5254 37.3392 23.7728 36.7012 23.9355C36.0632 24.0983 35.3665 24.1797 34.6113 24.1797C33.9408 24.1797 33.293 24.1406 32.668 24.0625C32.043 23.9844 31.4245 23.8542 30.8125 23.6719V21.2988C31.112 21.403 31.4245 21.5007 31.75 21.5918C32.0755 21.6829 32.401 21.7643 32.7266 21.8359C33.0586 21.901 33.3874 21.9531 33.7129 21.9922C34.0384 22.0312 34.3542 22.0508 34.6602 22.0508C35.1159 22.0508 35.5033 22.0117 35.8223 21.9336C36.1413 21.8555 36.4017 21.748 36.6035 21.6113C36.8053 21.4746 36.9518 21.3118 37.043 21.123C37.1341 20.9342 37.1797 20.7259 37.1797 20.498C37.1797 20.1855 37.0885 19.9251 36.9062 19.7168C36.7305 19.502 36.4961 19.3132 36.2031 19.1504C35.9102 18.9876 35.5749 18.8411 35.1973 18.7109C34.8262 18.5807 34.4453 18.4408 34.0547 18.291C33.6706 18.1413 33.2897 17.972 32.9121 17.7832C32.541 17.5944 32.209 17.36 31.916 17.0801C31.623 16.8001 31.3854 16.4681 31.2031 16.084C31.0273 15.6934 30.9395 15.2246 30.9395 14.6777C30.9395 14.1764 31.0306 13.7012 31.2129 13.252C31.3952 12.8027 31.6816 12.4121 32.0723 12.0801C32.4629 11.7415 32.9642 11.4746 33.5762 11.2793C34.1882 11.0775 34.9271 10.9766 35.793 10.9766C36.0469 10.9766 36.3105 10.9896 36.584 11.0156C36.8639 11.0352 37.1374 11.0645 37.4043 11.1035C37.6777 11.1361 37.9382 11.1784 38.1855 11.2305C38.4395 11.276 38.6706 11.3249 38.8789 11.377V13.5742C38.6706 13.4961 38.4427 13.4245 38.1953 13.3594C37.9479 13.2943 37.6908 13.2389 37.4238 13.1934C37.1634 13.1413 36.8997 13.1022 36.6328 13.0762C36.3659 13.0501 36.112 13.0371 35.8711 13.0371C35.4479 13.0371 35.0898 13.0729 34.7969 13.1445C34.5039 13.2096 34.263 13.304 34.0742 13.4277C33.8854 13.5449 33.7487 13.6914 33.6641 13.8672C33.5794 14.043 33.5371 14.2383 33.5371 14.4531C33.5371 14.7201 33.625 14.9512 33.8008 15.1465C33.9831 15.3353 34.2207 15.5078 34.5137 15.6641C34.8132 15.8138 35.1484 15.957 35.5195 16.0938C35.8971 16.224 36.2812 16.3672 36.6719 16.5234C37.069 16.6732 37.4531 16.8457 37.8242 17.041C38.2018 17.2363 38.5371 17.474 38.8301 17.7539C39.1296 18.0339 39.3672 18.3659 39.543 18.75C39.7253 19.1276 39.8164 19.5768 39.8164 20.0977ZM51.1445 18.916C51.1445 19.6973 51.0339 20.4134 50.8125 21.0645C50.5911 21.709 50.2721 22.2624 49.8555 22.7246C49.4388 23.1868 48.9277 23.5449 48.3223 23.7988C47.7168 24.0527 47.0267 24.1797 46.252 24.1797C45.5163 24.1797 44.8587 24.0723 44.2793 23.8574C43.6999 23.6426 43.2083 23.3236 42.8047 22.9004C42.401 22.4707 42.0918 21.9368 41.877 21.2988C41.6621 20.6543 41.5547 19.9056 41.5547 19.0527C41.5547 18.265 41.6654 17.5488 41.8867 16.9043C42.1146 16.2598 42.4368 15.7096 42.8535 15.2539C43.2767 14.7982 43.791 14.4466 44.3965 14.1992C45.002 13.9453 45.6855 13.8184 46.4473 13.8184C47.1895 13.8184 47.8503 13.929 48.4297 14.1504C49.0091 14.3652 49.5007 14.6875 49.9043 15.1172C50.3079 15.5469 50.6139 16.0807 50.8223 16.7188C51.0371 17.3503 51.1445 18.0827 51.1445 18.916ZM48.6641 18.9746C48.6641 17.946 48.4688 17.1745 48.0781 16.6602C47.694 16.1393 47.1243 15.8789 46.3691 15.8789C45.9525 15.8789 45.5977 15.9603 45.3047 16.123C45.0117 16.2858 44.7708 16.5104 44.582 16.7969C44.3932 17.0768 44.2533 17.4056 44.1621 17.7832C44.0775 18.1608 44.0352 18.5645 44.0352 18.9941C44.0352 20.0293 44.2435 20.8105 44.6602 21.3379C45.0768 21.8587 45.6465 22.1191 46.3691 22.1191C46.7663 22.1191 47.1113 22.041 47.4043 21.8848C47.6973 21.722 47.9349 21.5007 48.1172 21.2207C48.2995 20.9342 48.4362 20.599 48.5273 20.2148C48.6185 19.8307 48.6641 19.4173 48.6641 18.9746ZM62.1113 12.1777C61.8249 12.0866 61.4831 12.0117 61.0859 11.9531C60.6953 11.888 60.2949 11.8555 59.8848 11.8555C59.6048 11.8555 59.3444 11.8945 59.1035 11.9727C58.8626 12.0443 58.6543 12.1615 58.4785 12.3242C58.3027 12.487 58.1628 12.6953 58.0586 12.9492C57.9609 13.1966 57.9121 13.4993 57.9121 13.8574V15.459H61.8086V17.3145H57.9121V23.9551H55.5098V17.3145H52.6289V15.459H55.5098V13.9551C55.5098 13.252 55.6107 12.6497 55.8125 12.1484C56.0208 11.6406 56.3105 11.2272 56.6816 10.9082C57.0592 10.5827 57.5117 10.3451 58.0391 10.1953C58.5664 10.0456 59.1556 9.9707 59.8066 9.9707C60.2363 9.9707 60.6432 10 61.0273 10.0586C61.418 10.1107 61.7793 10.1758 62.1113 10.2539V12.1777ZM72.3848 23.8574C71.9551 23.9551 71.5221 24.0332 71.0859 24.0918C70.6497 24.1504 70.2363 24.1797 69.8457 24.1797C69.1947 24.1797 68.6315 24.1113 68.1562 23.9746C67.6875 23.8379 67.2969 23.6296 66.9844 23.3496C66.6784 23.0697 66.4505 22.7148 66.3008 22.2852C66.1576 21.849 66.0859 21.3314 66.0859 20.7324V15.8887H63.4199V14.0332H66.0859V11.4941L68.5273 10.8594V14.0332H72.3848V15.8887H68.5273V20.5566C68.5273 21.123 68.6576 21.5527 68.918 21.8457C69.1784 22.1322 69.6146 22.2754 70.2266 22.2754C70.6172 22.2754 70.998 22.2428 71.3691 22.1777C71.7402 22.1126 72.0788 22.0378 72.3848 21.9531V23.8574Z" fill="#69FF00"/>
<path d="M83.7617 20.1367C83.7617 20.7487 83.6413 21.2923 83.4004 21.7676C83.166 22.2363 82.8275 22.6335 82.3848 22.959C81.9486 23.2845 81.418 23.5319 80.793 23.7012C80.1745 23.8704 79.4844 23.9551 78.7227 23.9551H75.3828V11.1914H79.0352C81.8802 11.1914 83.3027 12.2266 83.3027 14.2969C83.3027 14.987 83.1367 15.5794 82.8047 16.0742C82.4792 16.569 81.9453 16.9368 81.2031 17.1777C81.5482 17.2428 81.8737 17.3535 82.1797 17.5098C82.4922 17.666 82.7656 17.8678 83 18.1152C83.2344 18.3626 83.4199 18.6556 83.5566 18.9941C83.6934 19.3327 83.7617 19.7135 83.7617 20.1367ZM81.4961 14.5312C81.4961 14.2708 81.457 14.0267 81.3789 13.7988C81.3008 13.5645 81.1641 13.3659 80.9688 13.2031C80.7734 13.0339 80.5098 12.9004 80.1777 12.8027C79.8457 12.7051 79.4258 12.6562 78.918 12.6562H77.1211V16.6504H78.8594C79.2565 16.6504 79.6146 16.6081 79.9336 16.5234C80.2591 16.4388 80.5358 16.3086 80.7637 16.1328C80.998 15.957 81.1771 15.7389 81.3008 15.4785C81.431 15.2116 81.4961 14.8958 81.4961 14.5312ZM81.916 20.1953C81.916 19.8698 81.8477 19.5768 81.7109 19.3164C81.5742 19.056 81.3757 18.8379 81.1152 18.6621C80.8548 18.4798 80.5358 18.3398 80.1582 18.2422C79.7871 18.1445 79.3672 18.0957 78.8984 18.0957H77.1211V22.4902H78.957C79.9531 22.4902 80.6953 22.3047 81.1836 21.9336C81.6719 21.5625 81.916 20.9831 81.916 20.1953ZM94.2793 23.9551H92.7559L92.6973 22.373C92.4043 22.7116 92.1243 22.9948 91.8574 23.2227C91.597 23.444 91.3366 23.623 91.0762 23.7598C90.8158 23.8965 90.5521 23.9909 90.2852 24.043C90.0247 24.1016 89.748 24.1309 89.4551 24.1309C88.446 24.1309 87.6842 23.8346 87.1699 23.2422C86.6556 22.6497 86.3984 21.7546 86.3984 20.5566V14.1504H88.0977V20.4199C88.0977 21.9238 88.6641 22.6758 89.7969 22.6758C90.0052 22.6758 90.207 22.6465 90.4023 22.5879C90.6042 22.5228 90.8125 22.4154 91.0273 22.2656C91.2487 22.1094 91.4831 21.901 91.7305 21.6406C91.9844 21.3802 92.2676 21.0514 92.5801 20.6543V14.1504H94.2793V23.9551ZM105.158 21.2793C105.158 21.6243 105.1 21.9336 104.982 22.207C104.865 22.4805 104.706 22.7246 104.504 22.9395C104.302 23.1478 104.068 23.3268 103.801 23.4766C103.534 23.6263 103.247 23.75 102.941 23.8477C102.642 23.9453 102.333 24.0169 102.014 24.0625C101.695 24.1081 101.382 24.1309 101.076 24.1309C100.412 24.1309 99.8001 24.1016 99.2402 24.043C98.6868 23.9844 98.1432 23.89 97.6094 23.7598V22.1973C98.1823 22.36 98.752 22.4837 99.3184 22.5684C99.8848 22.653 100.448 22.6953 101.008 22.6953C101.822 22.6953 102.424 22.5846 102.814 22.3633C103.205 22.1419 103.4 21.8262 103.4 21.416C103.4 21.2402 103.368 21.084 103.303 20.9473C103.244 20.804 103.133 20.6706 102.971 20.5469C102.808 20.4167 102.554 20.2832 102.209 20.1465C101.87 20.0098 101.405 19.8535 100.812 19.6777C100.37 19.5475 99.9596 19.401 99.582 19.2383C99.2109 19.069 98.8887 18.8704 98.6152 18.6426C98.3418 18.4147 98.127 18.1478 97.9707 17.8418C97.8145 17.5358 97.7363 17.1745 97.7363 16.7578C97.7363 16.4844 97.7982 16.1849 97.9219 15.8594C98.0521 15.5339 98.2702 15.2311 98.5762 14.9512C98.8822 14.6712 99.2956 14.4401 99.8164 14.2578C100.337 14.069 100.988 13.9746 101.77 13.9746C102.154 13.9746 102.58 13.9974 103.049 14.043C103.518 14.082 104.006 14.1536 104.514 14.2578V15.7715C103.98 15.6413 103.472 15.5469 102.99 15.4883C102.515 15.4232 102.102 15.3906 101.75 15.3906C101.327 15.3906 100.969 15.4232 100.676 15.4883C100.389 15.5534 100.155 15.6445 99.9727 15.7617C99.7969 15.8724 99.6699 16.0059 99.5918 16.1621C99.5137 16.3118 99.4746 16.4746 99.4746 16.6504C99.4746 16.8262 99.5072 16.9857 99.5723 17.1289C99.6439 17.2721 99.7708 17.4121 99.9531 17.5488C100.142 17.679 100.402 17.8125 100.734 17.9492C101.066 18.0794 101.499 18.2227 102.033 18.3789C102.613 18.5482 103.101 18.7272 103.498 18.916C103.895 19.0983 104.217 19.3034 104.465 19.5312C104.712 19.7591 104.888 20.0163 104.992 20.3027C105.103 20.5892 105.158 20.9147 105.158 21.2793ZM116.672 18.5352C116.672 18.776 116.669 18.9779 116.662 19.1406C116.656 19.3034 116.646 19.4564 116.633 19.5996H109.748C109.748 20.6022 110.028 21.3737 110.588 21.9141C111.148 22.4479 111.955 22.7148 113.01 22.7148C113.296 22.7148 113.583 22.7051 113.869 22.6855C114.156 22.6595 114.432 22.627 114.699 22.5879C114.966 22.5488 115.22 22.5065 115.461 22.4609C115.708 22.4089 115.936 22.3535 116.145 22.2949V23.6914C115.682 23.8216 115.158 23.9258 114.572 24.0039C113.993 24.0885 113.391 24.1309 112.766 24.1309C111.926 24.1309 111.203 24.0169 110.598 23.7891C109.992 23.5612 109.494 23.2324 109.104 22.8027C108.719 22.3665 108.433 21.8359 108.244 21.2109C108.062 20.5794 107.971 19.8665 107.971 19.0723C107.971 18.3822 108.068 17.7311 108.264 17.1191C108.465 16.5007 108.755 15.9603 109.133 15.498C109.517 15.0293 109.986 14.6582 110.539 14.3848C111.092 14.1113 111.721 13.9746 112.424 13.9746C113.107 13.9746 113.713 14.082 114.24 14.2969C114.768 14.5117 115.21 14.8177 115.568 15.2148C115.933 15.6055 116.206 16.084 116.389 16.6504C116.577 17.2103 116.672 17.8385 116.672 18.5352ZM114.904 18.291C114.924 17.8548 114.882 17.4577 114.777 17.0996C114.673 16.735 114.51 16.4225 114.289 16.1621C114.074 15.9017 113.804 15.6999 113.479 15.5566C113.153 15.4069 112.775 15.332 112.346 15.332C111.975 15.332 111.636 15.4036 111.33 15.5469C111.024 15.6901 110.76 15.8919 110.539 16.1523C110.318 16.4128 110.139 16.7253 110.002 17.0898C109.865 17.4544 109.781 17.8548 109.748 18.291H114.904ZM127.15 21.2793C127.15 21.6243 127.092 21.9336 126.975 22.207C126.857 22.4805 126.698 22.7246 126.496 22.9395C126.294 23.1478 126.06 23.3268 125.793 23.4766C125.526 23.6263 125.24 23.75 124.934 23.8477C124.634 23.9453 124.325 24.0169 124.006 24.0625C123.687 24.1081 123.374 24.1309 123.068 24.1309C122.404 24.1309 121.792 24.1016 121.232 24.043C120.679 23.9844 120.135 23.89 119.602 23.7598V22.1973C120.174 22.36 120.744 22.4837 121.311 22.5684C121.877 22.653 122.44 22.6953 123 22.6953C123.814 22.6953 124.416 22.5846 124.807 22.3633C125.197 22.1419 125.393 21.8262 125.393 21.416C125.393 21.2402 125.36 21.084 125.295 20.9473C125.236 20.804 125.126 20.6706 124.963 20.5469C124.8 20.4167 124.546 20.2832 124.201 20.1465C123.863 20.0098 123.397 19.8535 122.805 19.6777C122.362 19.5475 121.952 19.401 121.574 19.2383C121.203 19.069 120.881 18.8704 120.607 18.6426C120.334 18.4147 120.119 18.1478 119.963 17.8418C119.807 17.5358 119.729 17.1745 119.729 16.7578C119.729 16.4844 119.79 16.1849 119.914 15.8594C120.044 15.5339 120.262 15.2311 120.568 14.9512C120.874 14.6712 121.288 14.4401 121.809 14.2578C122.329 14.069 122.98 13.9746 123.762 13.9746C124.146 13.9746 124.572 13.9974 125.041 14.043C125.51 14.082 125.998 14.1536 126.506 14.2578V15.7715C125.972 15.6413 125.464 15.5469 124.982 15.4883C124.507 15.4232 124.094 15.3906 123.742 15.3906C123.319 15.3906 122.961 15.4232 122.668 15.4883C122.382 15.5534 122.147 15.6445 121.965 15.7617C121.789 15.8724 121.662 16.0059 121.584 16.1621C121.506 16.3118 121.467 16.4746 121.467 16.6504C121.467 16.8262 121.499 16.9857 121.564 17.1289C121.636 17.2721 121.763 17.4121 121.945 17.5488C122.134 17.679 122.395 17.8125 122.727 17.9492C123.059 18.0794 123.492 18.2227 124.025 18.3789C124.605 18.5482 125.093 18.7272 125.49 18.916C125.887 19.0983 126.21 19.3034 126.457 19.5312C126.704 19.7591 126.88 20.0163 126.984 20.3027C127.095 20.5892 127.15 20.9147 127.15 21.2793Z" fill="white"/>
</svg>
