<svg width="10" height="12" viewBox="0 0 10 12" fill="none" xmlns="http://www.w3.org/2000/svg">
<path d="M9.91342 6.16057C9.79157 5.62057 9.54786 5.14543 9.2136 4.77143C9.48669 4.01 9.44551 3.136 9.09632 2.418C8.76134 1.73 8.22071 1.23771 7.57387 1.032C7.11848 0.887429 6.64936 0.9 6.20867 1.05714C5.78892 0.394857 5.13534 0 4.43335 0C3.25189 0 2.26092 0.976 1.99723 2.28314C1.99482 2.28343 1.99265 2.28229 1.99024 2.28257C1.29139 2.38543 0.688858 2.85943 0.337022 3.58229C0.00204286 4.27029 -0.0868193 5.072 0.0865702 5.83943C0.208665 6.37971 0.452374 6.85543 0.787112 7.22943C0.514024 7.99114 0.553518 8.862 0.903668 9.582C1.23865 10.27 1.77929 10.7623 2.42612 10.968C2.6419 11.0366 2.86128 11.0706 3.07898 11.0706C3.32053 11.0706 3.55942 11.0246 3.79109 10.942C4.21059 11.6054 4.86153 12 5.56664 12C6.7493 12 7.74075 11.0223 8.00373 9.71343C8.69729 9.61343 9.31161 9.14029 9.66321 8.41771C9.99795 7.72971 10.0868 6.928 9.91342 6.16057ZM7.44912 1.58371C7.97194 1.74971 8.40854 2.14771 8.67898 2.70343C8.9316 3.22257 8.97832 3.84629 8.81601 4.40829C8.79217 4.39057 8.76953 4.37086 8.74521 4.354L6.53714 2.84143C6.46201 2.79029 6.36905 2.79086 6.29392 2.84314L3.83804 4.56914L3.82552 3.25286L5.91174 1.824C6.38061 1.50286 6.92655 1.418 7.44912 1.58371ZM6.14075 5.19857L6.15569 6.77114L5.01517 7.57257L3.85948 6.80143L3.84455 5.22886L4.98507 4.42743L6.14075 5.19857ZM2.40758 2.97486C2.40758 1.64943 3.31643 0.571429 4.43335 0.571429C4.94124 0.571429 5.41878 0.833143 5.74774 1.28229C5.72245 1.29829 5.6962 1.31171 5.67116 1.32886L3.46285 2.84143C3.38771 2.89314 3.34148 2.98914 3.34244 3.092L3.37447 6.478L2.40758 5.83286V2.97486ZM0.551591 5.69171C0.411676 5.07171 0.48368 4.42371 0.75412 3.868C1.00939 3.34343 1.43395 2.98971 1.93028 2.87543C1.92932 2.90857 1.92594 2.94114 1.92594 2.97486V6C1.92594 6.10314 1.9729 6.19829 2.04876 6.24914L4.53618 7.90914L3.58157 8.58L1.4956 7.15086C1.02697 6.83 0.691748 6.312 0.551591 5.69171ZM2.55087 10.4163C2.02805 10.2503 1.59145 9.85228 1.32101 9.29657C1.06742 8.77543 1.02022 8.15343 1.18302 7.59086C1.20734 7.60886 1.23022 7.62886 1.25502 7.646L3.46309 9.15857C3.50018 9.184 3.54184 9.19686 3.5835 9.19686C3.62612 9.19686 3.66851 9.18343 3.70632 9.15686L6.16219 7.43086L6.17471 8.74714L4.0885 10.176C3.61986 10.4974 3.07369 10.5829 2.55087 10.4163ZM7.59241 9.02514C7.59241 10.3506 6.6838 11.4286 5.56664 11.4286C5.05635 11.4286 4.58073 11.166 4.25201 10.716C4.2773 10.7 4.30403 10.688 4.32907 10.6709L6.53738 9.15829C6.61252 9.10657 6.65876 9.01057 6.65779 8.90771L6.62552 5.522L7.59241 6.16714V9.02514ZM9.24587 8.132C8.99157 8.65486 8.56195 9.01371 8.06971 9.12714C8.07068 9.09286 8.07405 9.05943 8.07405 9.02514V6C8.07405 5.89686 8.02709 5.80171 7.95123 5.75086L5.46381 4.09086L6.41842 3.42L8.50439 4.84914C8.97302 5.17 9.30824 5.68829 9.4484 6.30829C9.58832 6.92829 9.51631 7.57629 9.24587 8.132Z" fill="#69FF00"/>
</svg>
