<svg width="10" height="12" viewBox="0 0 10 12" fill="none" xmlns="http://www.w3.org/2000/svg">
<path d="M0.238095 0C0.17495 7.57625e-06 0.114394 0.030112 0.0697435 0.0836921C0.0250933 0.137272 6.31354e-06 0.20994 0 0.285714V11.7143C6.31354e-06 11.7901 0.0250933 11.8627 0.0697435 11.9163C0.114394 11.9699 0.17495 12 0.238095 12H9.7619C9.82505 12 9.88561 11.9699 9.93026 11.9163C9.97491 11.8627 9.99999 11.7901 10 11.7143V0.285714C9.99999 0.20994 9.97491 0.137272 9.93026 0.0836921C9.88561 0.030112 9.82505 7.57625e-06 9.7619 0H0.238095ZM0.47619 0.571429H9.52381V11.4286H0.47619V0.571429ZM2.61905 5.42857V6.41295H3.80952V10.8571H4.7619V6.41295H5.95238V5.42857H2.61905ZM7.78367 5.43136C7.04209 5.42782 6.19466 5.69749 6.19466 6.94978C6.19466 8.58692 8.03292 8.58732 8.03292 9.32589C8.03292 9.39589 8.05766 9.90458 7.40885 9.90458C6.76004 9.90458 6.21931 9.41518 6.21931 9.41518V10.6032C6.21931 10.6032 9.04808 11.7012 9.04808 9.22545C9.04785 7.6183 7.19262 7.69868 7.19262 6.90011C7.19262 6.59068 7.3758 6.30134 7.88318 6.30134C8.39057 6.30134 8.83975 6.66071 8.83975 6.66071L8.87323 5.60212C8.87323 5.60212 8.36045 5.43412 7.78367 5.43136Z" fill="#69FF00"/>
</svg>
