<svg width="10" height="12" viewBox="0 0 10 12" fill="none" xmlns="http://www.w3.org/2000/svg">
<path d="M9.99329 8.86028L8.9105 2.36706C8.88043 2.18825 8.75406 2.0389 8.5798 1.97747C8.40553 1.91703 8.21088 1.95249 8.07178 2.07187L6.41726 3.49288L5.48529 1.71924C5.40071 1.5589 5.23459 1.45551 5.05064 1.44902C4.86619 1.44253 4.69345 1.53343 4.59714 1.68777L4.04071 2.57984L2.84938 0.272747C2.75206 0.0844435 2.54212 -0.019448 2.33015 0.00302854C2.11614 0.0300004 1.94289 0.185838 1.89703 0.392622L0.011689 8.89674C-0.0479286 9.16596 0.126338 9.43218 0.401496 9.49062C0.415254 9.49362 0.429012 9.49312 0.44277 9.49512C0.444298 9.49562 0.444808 9.49711 0.446336 9.49761L4.7546 11.9326C4.83307 11.9775 4.92071 12 5.00886 12C5.09752 12 5.18619 11.9775 5.26517 11.9321L9.74667 9.37224C9.92909 9.26785 10.0274 9.06457 9.99329 8.86028ZM4.99408 2.96693L5.62695 4.17118L5.09752 4.6257L4.58186 3.62774L4.99408 2.96693ZM4.30619 5.30549L2.6532 6.72501L3.95766 4.6307L4.30619 5.30549ZM2.58798 1.97897L3.41651 3.58279L1.57856 6.53321L2.58798 1.97897ZM5.00733 10.9231L1.57194 8.98165L5.32071 5.76201C5.32427 5.75802 5.32886 5.75602 5.33243 5.75203L8.05292 3.41596L8.93139 8.68196L5.00733 10.9231Z" fill="#69FF00"/>
</svg>
