<svg width="12" height="11" viewBox="0 0 12 11" fill="none" xmlns="http://www.w3.org/2000/svg">
<path d="M7.85391 0C6.56761 0 5.69672 0.380156 5.69672 0.380156C5.64624 0.402292 5.60491 0.44113 5.57969 0.490143C5.55446 0.539156 5.54688 0.595357 5.55821 0.649303C5.56953 0.703249 5.59909 0.751652 5.64189 0.786379C5.6847 0.821106 5.73816 0.84004 5.79328 0.84C6.80513 0.84 7.16228 1.01725 7.52531 1.28672C7.58629 1.33199 7.65325 1.39039 7.71656 1.45922L0 2.64937L1.20281 10.5952L5.08922 9.97547C5.13715 10.288 5.35247 10.567 5.67516 10.6687L5.96344 10.7602C5.96422 10.7605 5.965 10.7608 5.96578 10.7611C6.18003 10.8269 6.40209 10.827 6.59578 10.7414C6.78947 10.6558 6.94163 10.4849 7.02281 10.2703C7.02471 10.2652 7.02643 10.2601 7.02797 10.2548C7.02797 10.2548 7.18313 9.7352 7.21266 9.63703L10.868 9.05437L9.78281 2.20828C9.80323 2.20224 9.82333 2.19818 9.84234 2.19797C9.8949 2.19754 9.92866 2.21384 9.92437 2.21063C9.92484 2.21094 9.92531 2.21125 9.92578 2.21156C9.95641 2.23424 9.9493 2.22724 9.95578 2.23313C9.95423 2.28521 9.96967 2.33639 9.99978 2.37893C10.0299 2.42146 10.073 2.45305 10.1227 2.46891L10.6177 2.62687C10.6781 2.64606 10.7436 2.64056 10.8 2.61158C10.8564 2.5826 10.899 2.53249 10.9186 2.47219L11.3016 1.28906C11.3113 1.25893 11.315 1.22717 11.3124 1.19561C11.3099 1.16405 11.3011 1.13331 11.2866 1.10516C11.272 1.07701 11.2521 1.05202 11.2279 1.03161C11.2037 1.0112 11.1757 0.995784 11.1455 0.98625L10.65 0.830625C10.5934 0.812888 10.5323 0.816722 10.4784 0.84139C10.4244 0.866057 10.3815 0.909811 10.358 0.964219C10.3478 0.987601 10.3454 0.984757 10.3523 0.979687C10.3592 0.974618 10.365 0.979219 10.3256 0.979219C10.2998 0.979219 10.2207 0.93733 10.1531 0.861562C10.0856 0.785794 10.0434 0.70875 10.0434 0.70875C10.024 0.672655 9.99556 0.642154 9.96094 0.620156C9.49327 0.323727 8.73357 0 7.85391 0ZM7.85391 0.48C8.59974 0.48 9.27183 0.762181 9.675 1.0125C9.70137 1.05652 9.71966 1.09627 9.795 1.18078C9.90428 1.30337 10.0724 1.45922 10.3256 1.45922C10.4391 1.45922 10.5515 1.42914 10.6369 1.36641C10.6488 1.35765 10.6489 1.34632 10.6594 1.33687L10.7705 1.37156L10.5356 2.09672L10.3978 2.05266C10.3918 2.03684 10.4002 2.02067 10.3917 2.00625C10.3396 1.91773 10.2784 1.87558 10.2117 1.82625C10.0897 1.73514 9.95695 1.71697 9.83859 1.71797H9.83812C9.54551 1.72082 9.3104 1.90952 9.13406 2.14969C8.95773 2.38985 8.81574 2.70012 8.68312 3.05484C8.4179 3.76428 8.19753 4.65418 7.96359 5.44828C7.50763 6.99612 6.57814 10.0828 6.57234 10.102C6.52861 10.2162 6.47168 10.2717 6.40172 10.3027C6.33123 10.3338 6.23439 10.3415 6.10641 10.3022L5.82094 10.2112L5.82 10.2108C5.60698 10.144 5.49992 9.91901 5.58047 9.71437C5.58338 9.7074 6.90306 6.5474 7.34531 5.49328C7.85903 4.26817 8.3285 3.03901 8.43141 2.18906V2.18859C8.50913 1.54442 8.0849 1.10458 7.81125 0.901406C7.6298 0.766716 7.40653 0.656654 7.14609 0.563906C7.38441 0.532574 7.5585 0.48 7.85391 0.48ZM7.94766 1.90969C7.95935 1.97913 7.96471 2.05202 7.95516 2.13094V2.13141C7.86741 2.85681 7.4119 4.09358 6.90281 5.30766C6.4652 6.35071 5.19319 9.39688 5.15906 9.47859L1.605 10.0448L0.546562 3.05109L7.94766 1.90969ZM9.37172 2.68266L10.3186 8.65594L7.365 9.12656C7.64581 8.19211 8.07618 6.76414 8.42391 5.58375C8.66205 4.77537 8.88373 3.88973 9.13312 3.22266C9.21017 3.01657 9.29088 2.8357 9.37172 2.68266ZM5.05406 3.09703C4.98545 3.09172 4.91524 3.11199 4.85812 3.15891L4.65422 3.32953C4.53998 3.42361 4.52657 3.59019 4.62281 3.69891L6.42609 5.74172L6.7875 4.94203L6.21141 4.30359L5.23875 3.18891C5.18943 3.13347 5.12267 3.10234 5.05406 3.09703ZM4.17328 3.94312C4.06871 3.94462 3.96996 4.00617 3.92766 4.10625L3.78234 4.45687L4.52859 4.75547L4.67672 4.40203C4.73072 4.26859 4.66564 4.11644 4.52812 4.06172L4.27781 3.96234C4.24349 3.9486 4.20814 3.94263 4.17328 3.94312ZM3.68016 4.69781L2.62969 7.20281L3.37266 7.49859L4.42641 4.99594L3.68016 4.69781ZM8.96016 4.75547L8.94469 4.75734L8.70234 5.58937L9.08766 5.52937L8.96016 4.75547ZM5.64375 5.27625L4.52859 5.44641L4.17047 6.29437L6.25734 5.97516L5.64375 5.27625ZM2.97469 5.68453L1.75172 5.87297L1.87547 6.64781L2.61891 6.5325L2.97469 5.68453ZM8.52187 6.20203L8.235 7.18734C8.25732 7.19598 8.27965 7.20448 8.30437 7.21312C8.81941 7.3816 8.91797 7.70156 8.91797 7.70156C8.91797 7.70156 9.05016 7.50732 9.05016 7.05516C9.05016 6.5262 8.70091 6.28963 8.52187 6.20203ZM2.53031 7.44656L2.52187 7.49344L2.40609 8.7525L3.23812 7.78406C3.25156 7.77086 3.2595 7.75537 3.26766 7.73953L2.57297 7.46203L2.53031 7.44656Z" fill="#69FF00"/>
</svg>
