<svg width="12" height="11" viewBox="0 0 12 11" fill="none" xmlns="http://www.w3.org/2000/svg">
<path d="M6.00234 0C3.65442 0 1.43496 1.98666 0.949364 4.52295C0.947926 4.53064 0.949855 4.53806 0.948896 4.54575C0.384685 4.9717 0 5.80742 0 6.76732C0 8.1574 0.806289 9.28847 1.79761 9.28847C1.87623 9.28847 1.94965 9.24583 1.99423 9.17444C2.03905 9.10279 2.04917 9.01153 2.02185 8.92979C2.01825 8.91971 1.6773 7.89361 1.6773 6.63462C1.6773 5.30929 2.00186 4.65012 2.00593 4.64216C2.04787 4.56016 2.04719 4.45981 2.00453 4.37833C1.9621 4.29633 1.88294 4.24616 1.79761 4.24616C1.69647 4.24616 1.59765 4.26066 1.50082 4.28348C2.06839 2.15323 3.98182 0.53077 6.00234 0.53077C7.91788 0.53077 9.76262 2.00211 10.4201 4.00099C10.3486 3.98878 10.2762 3.98077 10.2024 3.98077C10.1175 3.98077 10.0388 4.03096 9.99594 4.11243C9.9528 4.19364 9.95261 4.29477 9.99407 4.37678C9.99743 4.38315 10.3222 5.04231 10.3222 6.36924C10.3222 7.41486 10.0877 8.29796 10.0062 8.5737C9.73133 8.82157 9.31363 9.16488 8.82515 9.46211C8.64276 9.2368 8.36066 9.12166 8.07568 9.19517L7.64828 9.30454C7.44623 9.35576 7.27472 9.49072 7.1647 9.68551C7.05493 9.87978 7.0199 10.1108 7.0664 10.3339C7.14885 10.731 7.46913 11 7.82242 11C7.87971 11 7.93762 10.9931 7.9961 10.9782L8.42397 10.8694C8.62578 10.8182 8.7973 10.6824 8.90708 10.4879C8.99911 10.3252 9.03527 10.1378 9.01849 9.94986C9.53261 9.64149 9.97397 9.28407 10.2721 9.01842C11.2309 8.96641 12 7.85911 12 6.50193C12 5.50329 11.5832 4.64136 10.9814 4.2332C10.9804 4.2133 10.9824 4.1935 10.9771 4.17359C10.3532 1.75514 8.26086 0 6.00234 0ZM2.88648 3.84808C2.75393 3.84808 2.6468 3.96671 2.6468 4.11347V7.29809C2.6468 7.44484 2.75393 7.56347 2.88648 7.56347H6.73215C6.61135 7.84398 6.42024 8.22226 6.2762 8.48817C6.22802 8.57708 6.2312 8.68884 6.28369 8.77429C6.32851 8.8478 6.40333 8.8904 6.4817 8.8904C6.49489 8.8904 6.50784 8.88916 6.52103 8.88677C8.00394 8.61316 9.21695 7.55053 9.268 7.50542C9.32481 7.455 9.35788 7.37876 9.35788 7.29809V4.11347C9.35788 3.96671 9.25075 3.84808 9.1182 3.84808H2.88648ZM4.44441 4.90962C4.78044 4.90962 5.04361 5.25913 5.04361 5.70578C5.04361 6.15242 4.78044 6.50193 4.44441 6.50193C4.10838 6.50193 3.84521 6.15242 3.84521 5.70578C3.84521 5.25913 4.10838 4.90962 4.44441 4.90962ZM7.56027 4.90962C7.89631 4.90962 8.15948 5.25913 8.15948 5.70578C8.15948 6.15242 7.89631 6.50193 7.56027 6.50193C7.22424 6.50193 6.96107 6.15242 6.96107 5.70578C6.96107 5.25913 7.22424 4.90962 7.56027 4.90962Z" fill="#69FF00"/>
</svg>
