<svg width="9" height="13" viewBox="0 0 9 13" fill="none" xmlns="http://www.w3.org/2000/svg">
<path d="M5.50003 0C5.43373 1.47695e-05 5.37014 0.0304583 5.32327 0.0846354L0.073195 6.1513C0.026328 6.20548 0 6.27895 0 6.35556C0 6.43216 0.026328 6.50563 0.073195 6.55981L1.57322 8.29314C1.6201 8.3473 1.68368 8.37772 1.74998 8.37772C1.81627 8.37772 1.87985 8.3473 1.92674 8.29314L8.67683 0.493142C8.71177 0.452735 8.73556 0.401265 8.7452 0.345237C8.75484 0.289208 8.74988 0.231136 8.73097 0.17836C8.71205 0.125583 8.68002 0.0804711 8.63892 0.0487247C8.59782 0.0169782 8.5495 2.2426e-05 8.50007 0H5.50003ZM5.60354 0.577778H7.89654L1.74998 7.68038L0.603476 6.35556L5.60354 0.577778ZM5.75003 5.48889C5.68373 5.4889 5.62015 5.51935 5.57327 5.57352L2.57323 9.04019C2.52636 9.09437 2.50003 9.16784 2.50003 9.24444C2.50003 9.32105 2.52636 9.39452 2.57323 9.4487L4.07325 11.182L5.57327 12.9154C5.62015 12.9695 5.68373 13 5.75003 13H8.75007C8.79951 13 8.84783 12.983 8.88892 12.9513C8.93002 12.9195 8.96205 12.8744 8.98097 12.8216C8.99989 12.7689 9.00484 12.7108 8.9952 12.6548C8.98557 12.5987 8.96177 12.5473 8.92683 12.5069L6.10355 9.24444L8.92683 5.98203C8.96177 5.94162 8.98557 5.89015 8.9952 5.83413C9.00484 5.7781 8.99989 5.72003 8.98097 5.66725C8.96205 5.61447 8.93002 5.56936 8.88892 5.53761C8.84783 5.50587 8.79951 5.48891 8.75007 5.48889H5.75003ZM5.85355 6.06667H8.14655L4.25001 10.5693L3.10351 9.24444L5.85355 6.06667ZM5.75003 9.65295L8.14655 12.4222H5.85355L4.60353 10.9778L5.75003 9.65295Z" fill="#69FF00"/>
</svg>
