<svg width="10" height="10" viewBox="0 0 10 10" fill="none" xmlns="http://www.w3.org/2000/svg">
<path d="M0.238095 0C0.17495 6.31354e-06 0.114394 0.0250933 0.0697435 0.0697435C0.0250933 0.114394 6.31354e-06 0.17495 0 0.238095V9.7619C6.31354e-06 9.82505 0.0250933 9.88561 0.0697435 9.93026C0.114394 9.97491 0.17495 9.99999 0.238095 10H9.7619C9.82505 9.99999 9.88561 9.97491 9.93026 9.93026C9.97491 9.88561 9.99999 9.82505 10 9.7619V0.238095C9.99999 0.17495 9.97491 0.114394 9.93026 0.0697435C9.88561 0.0250933 9.82505 6.31354e-06 9.7619 0H0.238095ZM0.47619 0.47619H9.52381V9.52381H0.47619V0.47619ZM2.61905 4.52381V5.34412H3.80952V9.04762H4.7619V5.34412H5.95238V4.52381H2.61905ZM7.78367 4.52613C7.04209 4.52318 6.19466 4.74791 6.19466 5.79148C6.19466 7.15577 8.03292 7.1561 8.03292 7.77158C8.03292 7.82991 8.05766 8.25381 7.40885 8.25381C6.76004 8.25381 6.21931 7.84598 6.21931 7.84598V8.83603C6.21931 8.83603 9.04808 9.75097 9.04808 7.68787C9.04785 6.34859 7.19262 6.41557 7.19262 5.75009C7.19262 5.49224 7.3758 5.25112 7.88318 5.25112C8.39057 5.25112 8.83975 5.5506 8.83975 5.5506L8.87323 4.66843C8.87323 4.66843 8.36045 4.52843 7.78367 4.52613Z" fill="#69FF00"/>
</svg>
