<svg width="18" height="12" viewBox="0 0 18 12" fill="none" xmlns="http://www.w3.org/2000/svg">
<path fill-rule="evenodd" clip-rule="evenodd" d="M17.9277 5.60738C17.7988 5.48186 16.1524 3.46213 15.874 3.12836C15.5752 2.79459 15.4463 2.85735 15.2529 2.87874C15.061 2.90014 12.9854 3.25388 12.7495 3.27385C12.5137 3.31521 12.3643 3.39937 12.5137 3.60761C12.6426 3.79447 14.0107 5.67014 14.311 6.10803L8.85596 7.37892L4.53468 0.315567C4.36329 0.0659529 4.32081 -0.0182026 3.93555 0.00319287C3.5503 0.0245883 0.534187 0.274202 0.32032 0.274202C0.104988 0.295597 -0.129387 0.378327 0.0844803 0.87898C0.298348 1.37821 3.72169 8.54426 3.80665 8.75251C3.89161 8.96076 4.14942 9.29453 4.72657 9.16901C5.32569 9.02352 7.3794 8.5029 8.51319 8.21049C9.11231 9.25174 10.3106 11.377 10.5464 11.6894C10.8452 12.1059 11.0606 12.0232 11.5088 11.8976C11.8721 11.7935 17.1148 9.96064 17.3491 9.85652C17.585 9.75239 17.7344 9.68963 17.563 9.45999C17.4341 9.2931 16.0659 7.48019 15.3379 6.54307C15.8301 6.41755 17.6055 5.95969 17.7988 5.89693C18.0127 5.83702 18.0552 5.7329 17.9277 5.60738ZM8.021 7.58717C7.95655 7.60857 4.89796 8.31604 4.74708 8.35741C4.57569 8.39877 4.57569 8.3788 4.57569 8.31604C4.53468 8.25328 0.939949 1.00307 0.875496 0.920345C0.833016 0.837616 0.833016 0.75346 0.875496 0.75346C0.917976 0.75346 3.76417 0.503847 3.84913 0.503847C3.95606 0.503847 3.93409 0.525242 3.97804 0.586576C3.97804 0.586576 7.97852 7.31616 8.04298 7.42029C8.12794 7.52441 8.08546 7.56577 8.021 7.58717ZM16.6226 9.14904C16.665 9.23177 16.7295 9.27456 16.5581 9.31592C16.4087 9.37868 11.4019 11.0247 11.2949 11.0661C11.188 11.1074 11.1235 11.1288 10.9961 10.9406C10.8672 10.7537 9.24122 8.02364 9.24122 8.02364L14.5689 6.67002C14.6978 6.62865 14.7402 6.60726 14.8252 6.73278C14.9102 6.87827 16.5801 9.08628 16.6226 9.14904ZM16.9639 5.48186C16.835 5.50325 14.8882 5.98251 14.8882 5.98251L13.2842 3.85723C13.2417 3.79447 13.1992 3.73171 13.3062 3.71174C13.4131 3.69034 15.2324 3.37797 15.3174 3.358C15.4024 3.33661 15.4668 3.31664 15.5737 3.46213C15.6807 3.58765 17.0503 5.295 17.1148 5.35776C17.1777 5.42052 17.0928 5.46189 16.9639 5.48186Z" fill="#69FF00"/>
</svg>
