<svg width="10" height="13" viewBox="0 0 10 13" fill="none" xmlns="http://www.w3.org/2000/svg">
<path d="M5 0C4.4767 0 4.04762 0.509295 4.04762 1.13043C4.04762 1.21951 4.07421 1.29883 4.09087 1.38213L1.64807 2.91716C1.47356 2.69119 1.22904 2.54348 0.952381 2.54348C0.429076 2.54348 0 3.05277 0 3.67391C0 4.19374 0.307505 4.61777 0.714286 4.74694V8.25306C0.307962 8.382 0 8.80494 0 9.32609C0 9.94551 0.428215 10.4565 0.952381 10.4565C1.22904 10.4565 1.47356 10.3088 1.64807 10.0828L4.09087 11.6179C4.07421 11.7012 4.04762 11.7805 4.04762 11.8696C4.04762 12.4907 4.4767 13 5 13C5.52417 13 5.95238 12.489 5.95238 11.8696C5.95238 11.7805 5.92579 11.7012 5.90913 11.6179L8.35193 10.0828C8.52644 10.3088 8.77096 10.4565 9.04762 10.4565C9.57178 10.4565 10 9.94551 10 9.32609C10 8.80494 9.69204 8.382 9.28571 8.25306V4.74694C9.69249 4.61777 10 4.19374 10 3.67391C10 3.05277 9.57092 2.54348 9.04762 2.54348C8.77096 2.54348 8.52644 2.69119 8.35193 2.91716L5.90913 1.38213C5.92585 1.29875 5.95238 1.2195 5.95238 1.13043C5.95238 0.509295 5.5233 0 5 0ZM5 0.565217C5.2667 0.565217 5.47619 0.813879 5.47619 1.13043C5.47619 1.44362 5.26583 1.69565 5 1.69565C4.7333 1.69565 4.52381 1.44699 4.52381 1.13043C4.52381 0.813879 4.7333 0.565217 5 0.565217ZM4.30432 1.88719C4.31431 1.90012 4.31895 1.91786 4.32943 1.93024L1.20443 8.25637C1.19989 8.25484 1.19504 8.25451 1.19048 8.25306V4.74694C1.5968 4.618 1.90476 4.19506 1.90476 3.67391C1.90476 3.58484 1.87817 3.50551 1.86151 3.42221L4.30432 1.88719ZM5.69568 1.88774L8.13849 3.42221C8.12183 3.50552 8.09524 3.58484 8.09524 3.67391C8.09524 4.19506 8.4032 4.618 8.80952 4.74694V8.25306C8.80496 8.2545 8.80011 8.25484 8.79557 8.25637L5.67104 1.92969C5.68125 1.9176 5.68593 1.90036 5.69568 1.88774ZM4.74795 2.20015C4.83 2.22777 4.91082 2.26087 5 2.26087C5.08922 2.26087 5.17003 2.22778 5.25205 2.20015L8.37705 8.52628C8.25913 8.66557 8.1877 8.84769 8.1436 9.04348H1.8564C1.8123 8.84769 1.74087 8.66557 1.62295 8.52628L4.74795 2.20015ZM0.952381 3.1087C1.21908 3.1087 1.42857 3.35736 1.42857 3.67391C1.42857 3.99047 1.21908 4.23913 0.952381 4.23913C0.686547 4.23913 0.47619 3.98709 0.47619 3.67391C0.47619 3.35736 0.685685 3.1087 0.952381 3.1087ZM9.04762 3.1087C9.31431 3.1087 9.52381 3.35736 9.52381 3.67391C9.52381 3.98709 9.31345 4.23913 9.04762 4.23913C8.78092 4.23913 8.57143 3.99047 8.57143 3.67391C8.57143 3.35736 8.78092 3.1087 9.04762 3.1087ZM0.952381 8.76087C1.21908 8.76087 1.42857 9.00953 1.42857 9.32609C1.42857 9.64264 1.21908 9.8913 0.952381 9.8913C0.686547 9.8913 0.47619 9.63927 0.47619 9.32609C0.47619 9.00953 0.685685 8.76087 0.952381 8.76087ZM9.04762 8.76087C9.31431 8.76087 9.52381 9.00953 9.52381 9.32609C9.52381 9.63927 9.31345 9.8913 9.04762 9.8913C8.78092 9.8913 8.57143 9.64264 8.57143 9.32609C8.57143 9.00953 8.78092 8.76087 9.04762 8.76087ZM1.91127 9.6087H8.08873L5.69568 11.1128C5.52118 10.8868 5.27666 10.7391 5 10.7391C4.72334 10.7391 4.47882 10.8868 4.30432 11.1128L1.91127 9.6087ZM5 11.3043C5.2667 11.3043 5.47619 11.553 5.47619 11.8696C5.47619 12.1827 5.26583 12.4348 5 12.4348C4.7333 12.4348 4.52381 12.1861 4.52381 11.8696C4.52381 11.553 4.7333 11.3043 5 11.3043Z" fill="#69FF00"/>
</svg>
