<svg width="11" height="12" viewBox="0 0 11 12" fill="none" xmlns="http://www.w3.org/2000/svg">
<path d="M7.78385 0.000912967C7.59748 -0.00657466 7.4024 0.0322488 7.20682 0.108015C6.81564 0.259546 6.40573 0.554845 5.98506 0.963711C5.8202 1.12395 5.65384 1.30711 5.48693 1.50145C5.32369 1.31204 5.16075 1.13324 4.99953 0.976541C4.5792 0.568003 4.1704 0.273149 3.78011 0.12196C3.38982 -0.0292287 3.00148 -0.0339134 2.68254 0.186109C2.3636 0.406132 2.17287 0.810024 2.0873 1.28948C2.00174 1.76893 2.0107 2.3399 2.09664 2.97912C2.12649 3.20115 2.16953 3.43407 2.21802 3.67137C2.03578 3.73737 1.85879 3.80675 1.69468 3.88334C1.19939 4.11449 0.789563 4.39102 0.49113 4.72007C0.192696 5.04913 0 5.44851 0 5.88703C0 6.32556 0.192696 6.72438 0.49113 7.05344C0.789563 7.3825 1.19939 7.65958 1.69468 7.89073C1.87017 7.97262 2.06016 8.04637 2.2563 8.11609C2.18575 8.43106 2.12859 8.73671 2.08964 9.02645C2.00362 9.66618 1.99454 10.2372 2.0803 10.7178C2.16606 11.1983 2.35688 11.6045 2.6774 11.8256C2.99793 12.0467 3.388 12.0413 3.77918 11.8897C4.17035 11.7382 4.5798 11.4435 5.00047 11.0346C5.16381 10.8758 5.32904 10.6947 5.4944 10.5024C5.66055 10.6958 5.82659 10.8779 5.99066 11.0374C6.41099 11.4459 6.82026 11.7408 7.21055 11.892C7.60084 12.0432 7.98871 12.0478 8.30766 11.8278C8.6266 11.6078 8.81733 11.2039 8.90289 10.7245C8.98846 10.245 8.97903 9.67403 8.89309 9.03482C8.85403 8.74429 8.79683 8.43819 8.72596 8.12222C8.92858 8.0508 9.12457 7.97508 9.30532 7.89073C9.80061 7.65958 10.2104 7.3825 10.5089 7.05344C10.8073 6.72438 11 6.32556 11 5.88703C11 5.44851 10.8073 5.04913 10.5089 4.72007C10.2104 4.39102 9.80061 4.11449 9.30532 3.88334C9.13885 3.80565 8.95915 3.73536 8.77404 3.66858C8.82293 3.42983 8.86633 3.19523 8.89636 2.97186C8.98237 2.33214 8.99145 1.76054 8.9057 1.28C8.81994 0.799453 8.62864 0.393833 8.30812 0.172722C8.14786 0.0621665 7.97021 0.00840059 7.78385 0.000912967ZM7.7619 0.582162C7.87885 0.585983 7.97862 0.619235 8.06396 0.678107C8.23464 0.79585 8.3608 1.02501 8.4281 1.40216C8.49541 1.77931 8.49308 2.28887 8.41363 2.87982C8.38643 3.08215 8.34693 3.29659 8.30205 3.5163C7.81325 3.37574 7.27765 3.27138 6.70682 3.21005C6.42004 2.73531 6.12529 2.30345 5.8282 1.91982C5.98527 1.73661 6.14133 1.56527 6.29365 1.41722C6.68224 1.03953 7.05013 0.782532 7.35714 0.663604C7.51065 0.60414 7.64496 0.578341 7.7619 0.582162ZM3.22596 0.583835C3.34358 0.579912 3.47817 0.605642 3.63212 0.665277C3.94002 0.784549 4.30855 1.04143 4.69748 1.41945C4.84671 1.56449 4.99934 1.7321 5.15313 1.91089C4.85389 2.29757 4.55707 2.73395 4.26844 3.21284C3.69963 3.2753 3.16594 3.38065 2.67927 3.52188C2.63468 3.30322 2.59571 3.08964 2.56863 2.88819C2.48911 2.29673 2.48712 1.78653 2.55462 1.40829C2.62212 1.03006 2.74931 0.799727 2.92157 0.680896C3.0077 0.621481 3.10833 0.587759 3.22596 0.583835ZM5.4944 2.33093C5.68909 2.58409 5.8839 2.86122 6.07703 3.15929C5.88723 3.14984 5.69512 3.14423 5.5 3.14423C5.301 3.14423 5.10522 3.15002 4.91176 3.15985C5.10497 2.8615 5.29963 2.58431 5.4944 2.33093ZM5.5 3.72102C5.82505 3.72102 6.14188 3.73698 6.45005 3.76397C6.66209 4.12787 6.86931 4.51394 7.06676 4.92256C7.24025 5.28161 7.39725 5.64011 7.54015 5.99414C7.39574 6.35286 7.23611 6.71621 7.06022 7.08021C6.9054 7.40063 6.74371 7.70496 6.57937 7.99839C6.23126 8.03315 5.87057 8.05249 5.5 8.05249C5.12051 8.05249 4.75171 8.032 4.39589 7.9956C4.23428 7.70639 4.07532 7.40612 3.92297 7.09081C3.74748 6.72764 3.58862 6.36552 3.44444 6.00752C3.58923 5.64751 3.7488 5.28282 3.9253 4.91754C4.12172 4.51106 4.32833 4.12723 4.53922 3.76509C4.8507 3.73749 5.1712 3.72102 5.5 3.72102ZM7.06583 3.83537C7.45969 3.89411 7.82949 3.97571 8.17367 4.07356C8.0715 4.47373 7.94566 4.89172 7.79318 5.32308C7.69418 5.09505 7.59165 4.86624 7.48086 4.63696C7.34667 4.35925 7.20715 4.09407 7.06583 3.83537ZM3.90896 3.83983C3.77054 4.09383 3.63434 4.35358 3.5028 4.6258C3.39059 4.85802 3.28593 5.08991 3.18581 5.32085C3.03465 4.89208 2.90956 4.47647 2.80812 4.07858C3.14987 3.98052 3.51768 3.89925 3.90896 3.83983ZM8.64659 4.22529C8.81604 4.28655 8.97968 4.35047 9.12979 4.42052C9.58637 4.6336 9.94753 4.88592 10.1816 5.14402C10.4157 5.40212 10.5173 5.64825 10.5173 5.88703C10.5173 6.12582 10.4157 6.37195 10.1816 6.63005C9.94753 6.88815 9.58637 7.14047 9.12979 7.35354C8.96298 7.43139 8.77971 7.50198 8.58917 7.56886C8.45325 7.06655 8.27977 6.5425 8.0733 6.00752C8.31069 5.39332 8.50246 4.79447 8.64659 4.22529ZM2.34547 4.22808C2.48795 4.79156 2.67727 5.3845 2.9113 5.99246C2.70347 6.53056 2.52913 7.05758 2.39262 7.56273C2.2088 7.4976 2.03174 7.42893 1.87021 7.35354C1.41363 7.14047 1.05247 6.88815 0.818394 6.63005C0.584316 6.37195 0.482726 6.12582 0.482726 5.88703C0.482726 5.64825 0.584316 5.40212 0.818394 5.14402C1.05247 4.88592 1.41363 4.6336 1.87021 4.42052C2.01801 4.35155 2.17891 4.28853 2.34547 4.22808ZM5.5 4.57504C4.84277 4.57504 4.30486 5.21777 4.30486 6.00306C4.30486 6.78835 4.84277 7.43108 5.5 7.43108C6.15723 7.43108 6.69514 6.78835 6.69514 6.00306C6.69514 5.21777 6.15723 4.57504 5.5 4.57504ZM5.5 5.14625C5.89887 5.14625 6.21709 5.52647 6.21709 6.00306C6.21709 6.47965 5.89887 6.85987 5.5 6.85987C5.10113 6.85987 4.78291 6.47965 4.78291 6.00306C4.78291 5.52647 5.10113 5.14625 5.5 5.14625ZM7.79925 6.67802C7.92461 7.03252 8.03358 7.3794 8.12512 7.7139C7.83766 7.79354 7.53158 7.86065 7.20962 7.9136C7.3023 7.7369 7.39382 7.55691 7.48319 7.37195C7.59522 7.14011 7.69927 6.90856 7.79925 6.67802ZM3.19141 6.67858C3.29192 6.91055 3.39661 7.14312 3.50934 7.37642C3.59758 7.55905 3.6877 7.73735 3.77918 7.91192C3.45817 7.85874 3.15303 7.7914 2.86648 7.71167C2.9576 7.37819 3.06662 7.03203 3.19141 6.67858ZM2.72876 8.26614C3.16136 8.38859 3.63025 8.48265 4.12745 8.54393C4.45942 9.11764 4.80507 9.63289 5.15313 10.0835C4.99752 10.2648 4.84328 10.4349 4.69234 10.5817C4.30375 10.9593 3.93539 11.2158 3.62838 11.3347C3.32137 11.4536 3.09225 11.4379 2.92157 11.3202C2.75089 11.2025 2.6252 10.9733 2.55789 10.5962C2.49058 10.219 2.49244 9.71 2.5719 9.11905C2.60794 8.85096 2.66181 8.56389 2.72876 8.26614ZM8.26331 8.26837C8.33077 8.56778 8.38486 8.85619 8.4211 9.12574C8.50062 9.7172 8.50261 10.2268 8.43511 10.6051C8.36761 10.9833 8.24088 11.2142 8.06863 11.333C7.89637 11.4519 7.66551 11.4679 7.35761 11.3487C7.04971 11.2294 6.68118 10.9719 6.29225 10.5939C6.14022 10.4462 5.98492 10.2752 5.8282 10.0924C6.17852 9.64011 6.52674 9.12207 6.86088 8.54505C7.35933 8.48418 7.82953 8.39068 8.26331 8.26837ZM4.75117 8.6025C4.99659 8.61849 5.24525 8.62928 5.5 8.62928C5.74632 8.62928 5.98692 8.61913 6.22456 8.60418C5.98163 8.99579 5.73402 9.35181 5.48739 9.6724C5.24092 9.35113 4.99377 8.99447 4.75117 8.6025Z" fill="#69FF00"/>
</svg>
