<svg width="10" height="10" viewBox="0 0 10 10" fill="none" xmlns="http://www.w3.org/2000/svg">
<path d="M4.97607 0L2.13867 0.405029L0 3.3999L4.97607 9.20508L9.95142 3.3999L7.81274 0.405029L4.97607 0ZM4.02759 0.892822L2.80225 2.29321L2.88721 1.05615L4.02759 0.892822ZM5.92456 0.892822L7.06494 1.05542L7.1499 2.29321L5.92456 0.892822ZM4.97607 0.948486L6.7749 3.00366H3.17725L4.97607 0.948486ZM2.08667 1.7688L2.00098 3.00366H1.20483L2.08667 1.7688ZM7.86548 1.76953L8.74731 3.00366H7.95117L7.86548 1.76953ZM1.29199 3.75366H2.11963L3.27832 6.07178L1.29199 3.75366ZM2.95825 3.75366H6.9939L4.97607 7.79004L2.95825 3.75366ZM7.83252 3.75366H8.66016L6.67383 6.07178L7.83252 3.75366Z" fill="#69FF00"/>
</svg>
