<svg width="9" height="12" viewBox="0 0 9 12" fill="none" xmlns="http://www.w3.org/2000/svg">
<path d="M4.4978 0C4.36093 0 4.22408 0.0413222 4.10596 0.124399L0.389648 2.76472C0.149648 2.93549 0 3.25882 0 3.60036V8.39063C0 8.73678 0.149648 9.05549 0.389648 9.22626L1.36523 9.91857C1.83773 10.2047 2.00622 10.2043 2.21997 10.2043C2.92122 10.2043 3.32227 9.68286 3.32227 8.77825V3.83564C3.32227 3.76179 3.27387 3.70132 3.21387 3.70132H2.74512C2.68137 3.70132 2.63599 3.76179 2.63599 3.83564V8.77374C2.63599 9.17989 2.29515 9.57671 1.7439 9.23978L0.723633 8.51502C0.686133 8.49195 0.663574 8.44139 0.663574 8.39063V3.60487C0.663574 3.54948 0.686133 3.50275 0.723633 3.47506L4.43994 0.835637C4.47369 0.807945 4.5189 0.807945 4.5564 0.835637L8.27271 3.47506C8.31021 3.50275 8.33276 3.54959 8.33276 3.60036V8.39063C8.33276 8.44139 8.31012 8.49195 8.27637 8.51502L4.5564 11.1599C4.52265 11.1829 4.47369 11.1829 4.43994 11.1599L3.4834 10.463C3.45715 10.44 3.42029 10.4356 3.39404 10.454C3.12779 10.6386 3.07904 10.6616 2.83154 10.7677C2.77154 10.7908 2.67773 10.8368 2.86523 10.966L4.10596 11.8711C4.22596 11.9542 4.36134 12 4.49634 12C4.63509 12 4.76965 11.9542 4.88965 11.8711L8.61035 9.22626C8.85035 9.05549 9 8.73678 9 8.39063V3.60487C9 3.25871 8.85035 2.94 8.61035 2.76923L4.88965 0.124399C4.77152 0.0413222 4.63468 0 4.4978 0ZM5.49756 3.69501C4.43631 3.69501 3.80273 4.2485 3.80273 5.17157C3.80273 6.17311 4.43215 6.4496 5.45215 6.57422C6.6709 6.72191 6.76465 6.9441 6.76465 7.23948C6.76465 7.74718 6.43146 7.96424 5.64771 7.96424C4.66146 7.96424 4.44381 7.65919 4.37256 7.05919C4.36506 6.99458 4.32032 6.94832 4.26782 6.94832H3.78369C3.72369 6.94832 3.67896 7.00889 3.67896 7.07813C3.67896 7.84889 4.02021 8.76653 5.64771 8.76653C6.82521 8.76653 7.5 8.19494 7.5 7.19802C7.5 6.21032 6.95616 5.94674 5.81616 5.75751C4.65741 5.5729 4.54102 5.47594 4.54102 5.14363C4.54102 4.86671 4.64256 4.5027 5.49756 4.5027C6.25881 4.5027 6.54366 4.70513 6.65991 5.33744C6.67116 5.39744 6.71215 5.44381 6.76465 5.44381H7.24878C7.27878 5.44381 7.30465 5.42553 7.32715 5.39784C7.3459 5.37476 7.35727 5.33751 7.35352 5.29597C7.27852 4.20674 6.69006 3.69501 5.49756 3.69501Z" fill="#69FF00"/>
</svg>
