<svg width="12" height="8" viewBox="0 0 12 8" fill="none" xmlns="http://www.w3.org/2000/svg">
<path d="M4.79997 0V1.21212H2.39998V2.42424H1.19999V3.63636H0.269998C0.155624 3.63826 0.0590622 3.72064 0.0374998 3.83333C0.0374998 3.83333 0 4.04072 0 4.30303C0 4.4697 0.0168749 4.65057 0.0449997 4.83333C0.0309372 4.83712 0.0121874 4.84564 0 4.84848H0.0449997C0.114374 5.28693 0.273748 5.75379 0.539997 6.19697C0.540934 6.19886 0.539059 6.20265 0.539997 6.20455C0.541872 6.20928 0.544684 6.21496 0.547496 6.2197C0.559684 6.27746 0.591559 6.3286 0.637496 6.36364C0.642183 6.36648 0.647808 6.36932 0.652496 6.37121C0.726558 6.47917 0.80437 6.58712 0.892494 6.68939C1.53468 7.4375 2.57717 8 4.07997 8C6.5334 8 8.60807 6.94413 9.77994 4.84848H11.9624C11.7018 4.7822 11.1421 4.69318 11.2349 4.34848C10.9246 4.71117 10.334 4.75663 9.87744 4.67424C9.96462 4.50758 10.049 4.33807 10.1249 4.15909C10.8187 4.1411 11.3165 3.91572 11.5949 3.64394C11.8996 3.34659 11.9924 3.01515 11.9924 3.01515C12.0159 2.92235 11.984 2.82481 11.9099 2.76515C11.9099 2.76515 11.3034 2.31818 10.3949 2.4697C10.1362 1.61269 9.46494 1.19697 9.46494 1.19697C9.41525 1.16761 9.35713 1.15625 9.29994 1.16667C9.2615 1.17519 9.22494 1.19318 9.19494 1.2197C9.19494 1.2197 9.03463 1.35795 8.90244 1.60606C8.77026 1.85417 8.64838 2.23201 8.69244 2.7197C8.71307 2.94792 8.78432 3.16477 8.88744 3.37121C8.82932 3.4072 8.79557 3.4375 8.69994 3.47727C8.50119 3.56061 8.21151 3.63636 7.79995 3.63636H7.67995V2.42424H6.47996V0H4.79997ZM5.27997 0.484848H5.99996V1.21212H5.27997V0.484848ZM2.87998 1.69697H3.59998V2.42424H2.87998V1.69697ZM4.07997 1.69697H4.79997V2.42424H4.07997V1.69697ZM5.27997 1.69697H5.99996V2.42424H5.27997V1.69697ZM9.38244 1.75C9.56056 1.88352 9.88306 2.16288 9.99744 2.77273C10.0096 2.83996 10.049 2.89773 10.1062 2.93371C10.1634 2.9697 10.2327 2.98011 10.2974 2.96212C10.9096 2.79261 11.2406 2.93182 11.4224 3.03788C11.3877 3.11458 11.3934 3.16193 11.2574 3.29545C11.039 3.50852 10.6687 3.72348 9.97494 3.69697C9.87369 3.69318 9.78087 3.75379 9.74244 3.84848C9.64681 4.08996 9.53619 4.31345 9.41994 4.5303C9.38431 4.50947 9.35431 4.48485 9.32994 4.46212C9.00838 4.93277 7.14277 4.75284 7.01245 4.38636C6.61027 4.86364 5.36059 4.86364 4.95747 4.38636C4.82716 4.75284 2.95404 4.93277 2.63248 4.46212C2.34467 4.73485 1.20843 4.90246 0.734995 4.34848C0.779995 4.51515 0.663746 4.62311 0.509997 4.69697C0.490309 4.55871 0.479997 4.42708 0.479997 4.30303C0.479997 4.19886 0.487497 4.18939 0.494997 4.12121H7.79995C8.27245 4.12121 8.62682 4.0303 8.87994 3.92424C9.13307 3.81818 9.31306 3.68939 9.33744 3.67424C9.39556 3.63731 9.43494 3.57765 9.44619 3.50947C9.45744 3.44223 9.43963 3.37216 9.39744 3.31818C9.26432 3.14299 9.19494 2.9233 9.17244 2.67424C9.13775 2.28314 9.22869 2.00947 9.32244 1.83333C9.35431 1.77367 9.35619 1.78599 9.38244 1.75ZM1.67999 2.90909H2.39998V3.63636H1.67999V2.90909ZM2.87998 2.90909H3.59998V3.63636H2.87998V2.90909ZM4.07997 2.90909H4.79997V3.63636H4.07997V2.90909ZM5.27997 2.90909H5.99996V3.63636H5.27997V2.90909ZM6.47996 2.90909H7.19995V3.63636H6.47996V2.90909ZM0.539997 4.84848H9.23994C8.13838 6.64583 6.30933 7.51515 4.07997 7.51515C2.76748 7.51515 1.91624 7.06534 1.35749 6.4697C2.42248 6.52083 3.24748 6.23485 3.24748 6.23485C3.37967 6.2178 3.47435 6.09564 3.45748 5.96212C3.4406 5.8286 3.31967 5.73295 3.18748 5.75C3.17435 5.75189 3.16217 5.75379 3.14998 5.75758C3.12935 5.76042 3.10967 5.76515 3.08998 5.77273C3.08998 5.77273 2.10842 6.1108 0.959994 5.94697C0.74437 5.58807 0.608434 5.2036 0.539997 4.84848ZM3.83998 5.33333C3.70779 5.33333 3.59998 5.44224 3.59998 5.57576C3.59998 5.70928 3.70779 5.81818 3.83998 5.81818C3.97216 5.81818 4.07997 5.70928 4.07997 5.57576C4.07997 5.54261 4.07716 5.51326 4.06497 5.48485C4.0481 5.51515 4.01154 5.53788 3.97497 5.53788C3.9206 5.53788 3.87747 5.48674 3.87747 5.43182C3.87747 5.39489 3.90091 5.36553 3.92997 5.34849C3.90279 5.33807 3.87091 5.33333 3.83998 5.33333Z" fill="#69FF00"/>
</svg>
