<svg width="22" height="9" viewBox="0 0 22 9" fill="none" xmlns="http://www.w3.org/2000/svg">
<path d="M22 4.47255C22 6.1038 20.9321 7.2 19.3428 7.2C18.7568 7.2 18.2433 7.05015 17.8288 6.7797C17.7624 7.15905 17.6466 7.4889 17.4473 7.7958C17.0927 8.34525 16.3667 9 14.92 9C14.3726 9 13.8939 8.9136 13.4138 8.72775L12.8454 8.5077V7.2C12.8454 7.2 8.09732 7.2 7.87776 7.2C7.45272 7.2 7.1148 7.1334 6.83936 7.0272C6.7958 7.1577 6.74784 7.28505 6.68448 7.4079C6.41256 7.9479 6.03724 8.3025 5.38868 8.63235L5.0072 8.8263L4.62176 8.64045L3.59436 8.145L1.27688 6.8292L1.28172 6.82875C0.46068 6.3891 0 5.5764 0 4.4748C0 2.93895 0.99 1.83375 2.44684 1.68615V0.9V0H7.04748V0.9V1.97865C7.42456 1.863 7.80868 1.8 8.21128 1.8C8.81232 1.8 9.229 1.94805 9.5238 2.1474L9.75612 2.0826C10.4562 1.8873 11.0339 1.8 11.6296 1.8C12.4164 1.8 13.02 2.02365 13.4253 2.46555C13.4834 2.529 13.534 2.59335 13.5806 2.65905C14.1214 2.1465 14.9565 1.8 16.1735 1.8C16.6962 1.8 17.1952 1.85355 17.7914 1.97415L18.1773 2.052C18.531 1.89 18.9367 1.8 19.386 1.8C20.9493 1.8 22 2.87415 22 4.47255ZM3.32684 0.9V2.62755C3.1614 2.5839 2.96384 2.56905 2.78432 2.56905C1.62668 2.56905 0.88 3.3192 0.88 4.4748C0.88 5.67405 1.584 6.29865 2.937 6.3C3.38888 6.3 3.83284 6.25635 4.4 6.14565V0.9H3.32684ZM3.32684 3.53925V5.35905C3.16844 5.3811 3.00828 5.3883 2.88552 5.3883C2.31836 5.3883 2.00904 5.05575 2.00904 4.4532C2.00904 3.83445 2.33244 3.4812 2.89256 3.4812C3.0294 3.4812 3.19704 3.4956 3.32684 3.53925ZM5.05428 2.7V4.9122C5.05428 5.88825 5.00456 6.2595 4.84616 6.5799C4.69524 6.8931 4.45852 7.09875 3.96968 7.33095L4.99752 7.8264C5.48636 7.578 5.72308 7.353 5.9026 6.99615C6.09488 6.6249 6.16 6.19425 6.16 5.2992V2.7H5.05428ZM5.06 2.0511H6.16748V0.9H5.06V2.0511ZM6.81824 3.8682C7.22876 3.6495 7.66656 3.53565 8.05552 3.53565C8.32128 3.53565 8.4172 3.6072 8.4172 3.80475V4.0446C7.1258 4.1571 6.6 4.51035 6.6 5.2749C6.6 5.98185 6.99556 6.3 7.87776 6.3C8.31424 6.3 8.90912 6.2496 9.3808 6.1794V3.9663C9.3808 3.51315 9.3522 3.30165 9.2642 3.13875C9.10712 2.8485 8.75204 2.7 8.21128 2.7C7.72596 2.7 7.28156 2.79945 6.81692 3.02535L6.81824 3.8682ZM8.46428 4.7574V5.48685C8.25968 5.52195 8.11624 5.5359 7.95916 5.5359C7.67184 5.5359 7.5416 5.43645 7.5416 5.2245C7.5416 4.941 7.7682 4.8276 8.46428 4.7574ZM9.988 6.3H11V3.67065C11.2099 3.60495 11.3709 3.591 11.5139 3.591C11.8866 3.591 12.0608 3.7494 12.0608 4.17375V6.3H13.0684V4.12965C13.0684 3.5766 12.9994 3.3174 12.7829 3.0807C12.5528 2.8296 12.1651 2.7 11.6296 2.7C11.1144 2.7 10.6058 2.7783 9.988 2.95065V6.3ZM13.7258 6.8706V7.8858C14.1139 8.0361 14.4879 8.1 14.92 8.1C15.7696 8.1 16.3676 7.83495 16.713 7.2999C16.9497 6.9345 17.0298 6.4926 17.0298 5.54985V5.2497C17.0223 5.0994 17.0223 4.94955 17.0152 4.79925L17.0082 4.19895L16.9941 3.735V3.62025C17.2168 3.6414 16.9457 3.59325 17.241 3.64995L17.6207 2.85705C17.0883 2.7495 16.6487 2.7 16.1735 2.7C14.5548 2.7 13.64 3.4065 13.64 4.6566C13.64 5.66325 14.2582 6.2991 15.2297 6.2991C15.5166 6.2991 15.7335 6.255 15.9491 6.1488V6.16995C15.9491 6.86925 15.6394 7.16265 14.9129 7.16265C14.502 7.16265 14.1139 7.0704 13.7258 6.8706ZM15.928 3.6711L15.9355 4.03515L15.9425 4.54185C15.9425 4.69215 15.95 4.8348 15.95 4.96395V5.2641V5.34375C15.8074 5.3865 15.6842 5.4144 15.5333 5.4144C15.0436 5.4144 14.7699 5.09985 14.7699 4.55085C14.7699 4.16565 14.9068 3.89385 15.1721 3.744C15.345 3.63645 15.5976 3.57975 15.8132 3.58695H15.8932H15.928V3.6711ZM17.6 4.53465C17.6 5.62365 18.2648 6.3 19.3428 6.3C20.4349 6.3 21.12 5.59575 21.12 4.47255C21.12 3.3768 20.4622 2.7 19.386 2.7C18.2868 2.7 17.6018 3.40425 17.6 4.53465ZM19.3635 5.43375C18.9446 5.43375 18.6987 5.0922 18.6987 4.49865C18.6987 3.9051 18.9433 3.56355 19.3706 3.56355C19.7837 3.56355 20.0209 3.9123 20.0209 4.49865C20.0213 5.0922 19.7771 5.43375 19.3635 5.43375Z" fill="#69FF00"/>
</svg>
