<svg width="10" height="10" viewBox="0 0 10 10" fill="none" xmlns="http://www.w3.org/2000/svg">
<path opacity="0.35" d="M2.42074 0.416666H7.91616C8.14616 0.416666 8.33283 0.603333 8.33283 0.833333V3.33333C8.33283 3.56333 8.14616 3.75 7.91616 3.75H4.99949L2.19949 0.949999C2.00283 0.753333 2.14199 0.416666 2.42074 0.416666Z" fill="#69FF00"/>
<path d="M2.08268 3.75H4.99935L7.79935 6.55C7.99602 6.74667 7.85685 7.08333 7.57852 7.08333H2.08268C1.85268 7.08333 1.66602 6.89667 1.66602 6.66667V4.16667C1.66602 3.93667 1.85268 3.75 2.08268 3.75Z" fill="#69FF00"/>
<path opacity="0.35" d="M1.66602 4.16667V6.66917C1.66602 6.93458 1.77143 7.18875 1.95893 7.37625L4.46602 9.88333C4.66268 10.08 4.99935 9.94083 4.99935 9.6625V3.75H2.08268C1.85268 3.75 1.66602 3.93667 1.66602 4.16667Z" fill="#69FF00"/>
</svg>
