<svg width="10" height="12" viewBox="0 0 10 12" fill="none" xmlns="http://www.w3.org/2000/svg">
<path d="M9.20512 0L5.93841 4.14577L4.23874 2.29155L3.48837 3.21893L5.98247 6L10 0.87571L9.20512 0ZM1.16279 0.545455C0.523368 0.545455 0 1.15922 0 1.90909V10.6364C0 11.3862 0.523368 12 1.16279 12H8.60465C9.24407 12 9.76744 11.3862 9.76744 10.6364V4.43182V1.97727L9.30233 2.56907V4.43182V10.6364C9.30233 11.0914 8.99267 11.4545 8.60465 11.4545H1.16279C0.774771 11.4545 0.465116 11.0914 0.465116 10.6364V1.90909C0.465116 1.45405 0.774771 1.09091 1.16279 1.09091H6.25C6.25047 1.09091 6.2509 1.09091 6.25136 1.09091H7.71166L8.14181 0.545455H6.25136H6.25H1.16279ZM2.47366 5.45455C1.60691 5.45455 1.03561 6.00283 1.03561 6.82511C1.03561 7.49792 1.374 7.9212 2.07168 8.12056L2.57949 8.27024C3.10809 8.4197 3.3194 8.61917 3.3194 8.99308C3.3194 9.41662 2.95993 9.71538 2.47366 9.71538C1.94505 9.71538 1.58602 9.44836 1.52253 9H0.930233C0.972558 9.82227 1.56444 10.3636 2.43141 10.3636C3.36165 10.3636 3.95349 9.8155 3.95349 8.9185C3.95349 8.22087 3.6153 7.82193 2.81205 7.59748L2.36782 7.47283C1.86038 7.32338 1.64926 7.14889 1.64926 6.80007C1.64926 6.37653 1.96648 6.10281 2.45276 6.10281C2.91788 6.10281 3.2348 6.37653 3.29806 6.80007H3.8899C3.86874 6.00262 3.27714 5.45455 2.47366 5.45455ZM6.06741 6.81818C5.19531 6.81818 4.65116 7.51611 4.65116 8.60156C4.65116 9.68702 5.19531 10.3636 6.06741 10.3636C6.76508 10.3636 7.26757 10.0012 7.3978 9.37607H6.80914C6.69984 9.64143 6.43941 9.78462 6.09057 9.78462C5.60918 9.78462 5.28352 9.34064 5.26027 8.76136V8.71236H7.44186V8.53125C7.44186 7.47034 6.91857 6.81818 6.06741 6.81818ZM6.06741 7.37749C6.49996 7.37749 6.77671 7.68 6.82322 8.18182H5.2907C5.34186 7.69909 5.63717 7.37749 6.06741 7.37749Z" fill="#69FF00"/>
</svg>
