<svg width="12" height="12" viewBox="0 0 12 12" fill="none" xmlns="http://www.w3.org/2000/svg">
<path d="M6 0C2.6865 0 0 2.6865 0 6C0 9.314 2.6865 12 6 12C9.314 12 12 9.314 12 6C12 2.6865 9.314 0 6 0ZM6 0.5565C9.0015 0.5565 11.4435 2.9985 11.4435 6C11.4435 9.0015 9.0015 11.4435 6 11.4435C2.9985 11.4435 0.5565 9.0015 0.5565 6C0.5565 2.9985 2.9985 0.5565 6 0.5565ZM9.515 3.157C9.247 3.156 8.875 3.309 8.3875 3.706C7.8615 4.135 6.4805 5.2285 6.4805 5.2285L6.993 5.8785C9.34 4.5995 10.088 4.295 10.051 3.7315C10.03 3.4145 9.8595 3.1585 9.515 3.157ZM9.2615 3.533C9.335 3.533 9.3945 3.586 9.3945 3.6525C9.3945 3.7185 9.335 3.7715 9.2615 3.7715C9.1885 3.7715 9.129 3.7185 9.129 3.6525C9.129 3.567 9.21 3.533 9.2615 3.533ZM8.4715 4.2775C8.4715 4.343 8.4125 4.3965 8.339 4.3965C8.2655 4.3965 8.207 4.343 8.207 4.2775C8.207 4.2135 8.262 4.1605 8.327 4.1575C8.392 4.1545 8.4715 4.196 8.4715 4.2775ZM7.417 4.7825C7.4905 4.7825 7.55 4.8355 7.55 4.9015C7.55 4.9675 7.49 5.0205 7.417 5.0205C7.344 5.0205 7.284 4.9675 7.284 4.9015C7.284 4.8275 7.3535 4.7825 7.417 4.7825ZM6.1945 5.2685C5.4435 5.381 3.291 5.7645 2.1895 6.6045L3.9765 9.298C3.9765 9.298 6.3295 7.832 6.908 6.176L6.1945 5.2685Z" fill="#69FF00"/>
</svg>
