<svg width="12" height="12" viewBox="0 0 12 12" fill="none" xmlns="http://www.w3.org/2000/svg">
<path d="M2.07851 4.88822e-06C1.80527 -0.000390845 1.53465 0.0531674 1.28217 0.157607C1.02968 0.262046 0.800306 0.415311 0.607194 0.608608C0.414083 0.801906 0.261038 1.03143 0.156842 1.28402C0.0526454 1.5366 -0.000652491 1.80727 6.02844e-06 2.0805V9.91951C-0.000652491 10.1927 0.0526454 10.4634 0.156842 10.716C0.261038 10.9686 0.414083 11.1981 0.607194 11.3914C0.800306 11.5847 1.02968 11.738 1.28217 11.8424C1.53465 11.9468 1.80527 12.0004 2.07851 12H9.91951C10.1929 12.0006 10.4637 11.9472 10.7164 11.8428C10.9691 11.7385 11.1987 11.5853 11.392 11.392C11.5853 11.1987 11.7385 10.9691 11.8428 10.7164C11.9472 10.4637 12.0006 10.1929 12 9.91951V2.0805C12.0006 1.80712 11.9472 1.53632 11.8428 1.28363C11.7385 1.03094 11.5853 0.801357 11.392 0.608046C11.1987 0.414736 10.9691 0.26151 10.7164 0.157165C10.4637 0.0528205 10.1929 -0.000588347 9.91951 4.88822e-06H2.07851ZM7.38351 4.3805H7.39851C7.43773 4.37895 7.47687 4.38541 7.51351 4.3995C7.55087 4.41312 7.58507 4.43422 7.61401 4.4615C7.66723 4.52055 7.69616 4.59752 7.69501 4.677C7.69762 4.75733 7.66852 4.83545 7.61401 4.8945C7.5853 4.92256 7.55108 4.94436 7.51351 4.9585C7.477 4.97324 7.43787 4.98038 7.39851 4.9795C7.35825 4.98155 7.31806 4.97437 7.28101 4.9585C7.24356 4.94402 7.2095 4.92199 7.18094 4.89378C7.15238 4.86556 7.12994 4.83177 7.11501 4.7945C7.10031 4.75716 7.09383 4.71708 7.09601 4.677C7.09506 4.59682 7.12557 4.51945 7.18101 4.4615C7.23568 4.40963 7.30814 4.38065 7.38351 4.3805ZM8.81001 5.1665C8.82501 5.1685 8.84051 5.1685 8.85751 5.1685C9.02001 5.163 9.18051 5.2005 9.32601 5.278C9.44501 5.35 9.54151 5.4555 9.60201 5.5825C9.66601 5.722 9.69651 5.8735 9.69451 6.0265V6.123C9.69651 6.15948 9.69651 6.19603 9.69451 6.2325H8.44551C8.44701 6.346 8.48301 6.4575 8.54751 6.5535C8.58735 6.59917 8.63728 6.63492 8.69335 6.65792C8.74942 6.68092 8.81007 6.69053 8.87051 6.686C8.95675 6.69343 9.04275 6.66926 9.11251 6.618C9.1665 6.57831 9.20671 6.52271 9.22751 6.459L9.68501 6.5875C9.65852 6.68616 9.61073 6.77781 9.54501 6.856C9.47501 6.9355 9.38451 6.998 9.28451 7.0335C9.15078 7.08262 9.0089 7.1057 8.86651 7.1015C8.69163 7.10697 8.51859 7.06461 8.36601 6.979C8.22191 6.8985 8.10589 6.77585 8.03351 6.6275C7.9544 6.46654 7.91545 6.2888 7.92001 6.1095C7.90518 5.85404 7.99138 5.60298 8.16001 5.4105C8.33813 5.25008 8.57031 5.16292 8.81001 5.1665ZM4.00651 5.178C4.08751 5.18 4.16901 5.191 4.24651 5.2175C4.35001 5.25 4.44651 5.3045 4.52801 5.3745C4.65801 5.5255 4.72451 5.7205 4.71101 5.9185V7.0565H4.26501L4.21051 6.701H4.17801C4.14601 6.7825 4.10051 6.856 4.04201 6.9205C3.98941 6.97689 3.92575 7.02182 3.85501 7.0525C3.78364 7.08337 3.70618 7.09757 3.62851 7.094C3.4732 7.10182 3.32004 7.05513 3.19551 6.962C3.13878 6.91268 3.09437 6.85078 3.06581 6.78124C3.03725 6.71171 3.02533 6.63646 3.03101 6.5615C3.02749 6.48774 3.04047 6.41412 3.06901 6.346C3.09578 6.27749 3.13705 6.21557 3.19001 6.16451C3.33831 6.04965 3.52474 5.99549 3.71151 6.013H4.18751V5.9225C4.19209 5.84121 4.16803 5.76089 4.11951 5.6955C4.09077 5.66756 4.05629 5.6462 4.01848 5.63291C3.98066 5.61961 3.94041 5.6147 3.90051 5.61851C3.8347 5.61462 3.76915 5.62954 3.71151 5.6615C3.6658 5.6916 3.63175 5.73641 3.61501 5.7885L3.12001 5.7165C3.13877 5.61345 3.18294 5.5167 3.24851 5.435C3.31851 5.348 3.40901 5.284 3.51501 5.246C3.64551 5.2005 3.78501 5.178 3.92501 5.1815C3.95151 5.18 3.97801 5.178 4.00651 5.178ZM6.19851 5.1815C6.28551 5.1815 6.37201 5.2005 6.45151 5.2385C6.54251 5.28 6.62151 5.344 6.68051 5.4255C6.80901 5.637 6.86901 5.881 6.85601 6.1285C6.8709 6.38219 6.80905 6.63448 6.67851 6.8525C6.62398 6.93557 6.54883 7.00307 6.46039 7.04838C6.37196 7.09369 6.27328 7.11527 6.17401 7.111C6.07201 7.111 5.97351 7.0885 5.88301 7.043C5.78048 6.99469 5.6963 6.91454 5.64301 6.8145C5.62013 6.77751 5.60104 6.73832 5.58601 6.6975H5.56351L5.56551 7.5895H5.03601V5.233H5.48801L5.54651 5.6355H5.57501C5.60901 5.5315 5.66351 5.435 5.73901 5.3555C5.79347 5.29914 5.85908 5.25474 5.93165 5.22513C6.00422 5.19552 6.08216 5.18134 6.16051 5.1835H6.19851V5.1815ZM9.97801 5.2235H10.4295L10.486 5.626H10.5125C10.5353 5.53836 10.5752 5.45611 10.63 5.384C10.6714 5.3314 10.7252 5.28984 10.7865 5.263C10.8474 5.23454 10.9144 5.22149 10.9815 5.225H11.0985V5.7505H10.898C10.8463 5.73931 10.7926 5.74068 10.7415 5.7545C10.6903 5.76834 10.6435 5.79502 10.6055 5.832C10.5666 5.86778 10.5367 5.91235 10.5185 5.962C10.5018 6.01257 10.4972 6.06633 10.505 6.119V7.0565H9.97801V5.2235ZM1.22051 5.225H2.85151V5.673L1.86501 6.552L1.88201 6.6085H2.86851L2.88951 7.0585H1.20001V6.6085L2.16551 5.7315L2.14301 5.673H1.22051V5.225ZM7.12801 5.225H7.65551V7.0545H7.12801V5.225ZM8.84951 5.567L8.85901 5.575C8.79954 5.56712 8.73906 5.57488 8.68351 5.5975C8.62831 5.61974 8.57914 5.65468 8.54001 5.6995C8.48501 5.777 8.45301 5.8675 8.44551 5.9605H9.21801C9.20101 5.6975 9.08951 5.567 8.84801 5.567H8.84951ZM5.99051 5.6485C5.97751 5.6485 5.96201 5.6485 5.94901 5.6505C5.89608 5.64872 5.84334 5.65774 5.79401 5.677C5.74486 5.69887 5.70102 5.73111 5.66551 5.7715C5.58997 5.87087 5.55366 5.99457 5.56351 6.119V6.151C5.55601 6.2795 5.59201 6.4045 5.66551 6.5065C5.6986 6.54945 5.74215 6.58319 5.79201 6.6045C5.8409 6.62784 5.89493 6.63834 5.94901 6.635C6.00453 6.63982 6.06034 6.63013 6.111 6.60691C6.16166 6.58368 6.20542 6.54771 6.23801 6.5025C6.30801 6.391 6.34001 6.2625 6.33251 6.1325C6.33966 6.00751 6.30805 5.88336 6.24201 5.777C6.21181 5.73874 6.1737 5.70745 6.1303 5.68527C6.08689 5.66309 6.03921 5.65055 5.99051 5.6485ZM3.73601 6.2815C3.68707 6.28393 3.64017 6.30178 3.60201 6.3325C3.58351 6.35034 3.5689 6.3718 3.55909 6.39555C3.54928 6.4193 3.54449 6.44482 3.54501 6.4705C3.54501 6.497 3.54901 6.5235 3.55851 6.548C3.56815 6.57285 3.58298 6.59535 3.60201 6.614C3.65913 6.65618 3.72982 6.67577 3.80051 6.669V6.671C3.90213 6.67479 4.00183 6.64256 4.08201 6.58C4.11582 6.55246 4.14291 6.51756 4.16119 6.47796C4.17947 6.43836 4.18847 6.39511 4.18751 6.3515V6.2815H3.73601Z" fill="#69FF00"/>
</svg>
