<svg width="12" height="8" viewBox="0 0 12 8" fill="none" xmlns="http://www.w3.org/2000/svg">
<path d="M11.935 0.239938H11.731C11.4787 0.239938 11.2411 0.357538 11.0878 0.557698L8.99976 3.28818L6.91176 0.557698C6.75888 0.357538 6.52104 0.239938 6.26904 0.239938H6.06504L8.69808 3.68298L6.00864 7.19994H6.21264C6.46488 7.19994 6.70248 7.08234 6.8556 6.88218L9 4.07802L11.1444 6.88218C11.2975 7.08234 11.5351 7.19994 11.7874 7.19994H11.9914L9.30192 3.68298L11.935 0.239938ZM5.10936 5.81802C4.4964 6.74946 3.28968 7.22682 2.136 6.80586C1.12104 6.43554 0.48 5.42658 0.48 4.3461V4.07994H3.36H6V3.08778C6 1.52658 4.84368 0.159778 3.2892 0.0136176C1.50552 -0.154142 0 1.25034 0 2.99994V4.33746C0 5.6265 0.7716 6.82482 1.98456 7.26138C3.56928 7.83162 5.23608 6.98058 5.7996 5.51994H5.64648C5.42784 5.51994 5.22936 5.63538 5.10936 5.81802ZM0.48 2.99994C0.48 1.61034 1.6104 0.479938 3 0.479938C4.3896 0.479938 5.52 1.61034 5.52 2.99994V3.59994H0.48V2.99994Z" fill="#69FF00"/>
</svg>
